<svg width="1440" height="762" viewBox="0 0 1440 762" fill="none" xmlns="http://www.w3.org/2000/svg">
<g opacity="0.6">
<path d="M541.657 82.7437C540.997 82.7437 540.457 82.2067 540.457 81.5452C540.468 81.2343 540.6 80.9398 540.824 80.7237C541.047 80.5077 541.346 80.3869 541.657 80.3869C541.969 80.3869 542.268 80.5077 542.491 80.7237C542.715 80.9398 542.847 81.2343 542.858 81.5452C542.858 82.2067 542.317 82.7437 541.657 82.7437ZM856.801 326.537C856.644 326.537 856.488 326.506 856.343 326.446C856.198 326.386 856.065 326.298 855.954 326.187C855.843 326.075 855.755 325.943 855.694 325.798C855.634 325.653 855.603 325.497 855.603 325.339C855.603 325.182 855.634 325.026 855.694 324.881C855.754 324.736 855.842 324.603 855.954 324.492C856.065 324.381 856.197 324.293 856.342 324.232C856.488 324.172 856.643 324.141 856.801 324.141C857.119 324.141 857.423 324.267 857.648 324.492C857.873 324.716 857.999 325.021 857.999 325.339C857.999 325.656 857.873 325.961 857.649 326.186C857.424 326.411 857.119 326.537 856.801 326.537ZM239.55 514.037C238.89 514.037 238.35 513.501 238.35 512.839C238.361 512.528 238.492 512.233 238.716 512.017C238.94 511.801 239.239 511.68 239.55 511.68C239.861 511.68 240.16 511.801 240.384 512.017C240.608 512.233 240.739 512.528 240.75 512.839C240.75 513.501 240.21 514.037 239.55 514.037Z" fill="#8F6E35"/>
<path d="M209.55 373.037C208.89 373.037 208.35 372.501 208.35 371.839C208.361 371.528 208.492 371.233 208.716 371.017C208.94 370.801 209.239 370.68 209.55 370.68C209.861 370.68 210.16 370.801 210.384 371.017C210.608 371.233 210.739 371.528 210.75 371.839C210.75 372.501 210.21 373.037 209.55 373.037ZM540.457 104.55C539.505 104.55 538.725 103.783 538.725 102.835C538.725 101.889 539.505 101.121 540.457 101.121C540.684 101.12 540.908 101.163 541.118 101.248C541.328 101.334 541.518 101.46 541.679 101.619C541.84 101.778 541.968 101.968 542.056 102.176C542.143 102.385 542.189 102.609 542.19 102.835C542.189 103.062 542.144 103.286 542.056 103.495C541.968 103.703 541.84 103.893 541.679 104.052C541.519 104.211 541.328 104.337 541.118 104.423C540.908 104.508 540.684 104.551 540.457 104.55ZM745.223 32.037C744.74 32.037 744.277 31.8451 743.935 31.5034C743.593 31.1618 743.401 30.6984 743.401 30.2152C743.401 29.7321 743.593 29.2687 743.935 28.9271C744.277 28.5854 744.74 28.3935 745.223 28.3935C745.706 28.3935 746.17 28.5854 746.511 28.9271C746.853 29.2687 747.045 29.7321 747.045 30.2152C747.045 30.6984 746.853 31.1618 746.511 31.5034C746.17 31.8451 745.706 32.037 745.223 32.037ZM426.322 66.579C425.839 66.579 425.376 66.3871 425.034 66.0455C424.692 65.7038 424.5 65.2405 424.5 64.7572C424.514 64.2829 424.712 63.8326 425.052 63.5019C425.392 63.1713 425.848 62.9863 426.322 62.9863C426.797 62.9863 427.253 63.1713 427.593 63.5019C427.933 63.8326 428.131 64.2829 428.145 64.7572C428.145 65.2405 427.953 65.7038 427.611 66.0455C427.269 66.3871 426.806 66.579 426.322 66.579ZM519.81 28.3935C518.805 28.3935 517.987 27.5775 517.987 26.5717C517.987 26.0884 518.179 25.6248 518.521 25.283C518.863 24.9413 519.327 24.7492 519.81 24.7492C520.293 24.7492 520.757 24.9413 521.099 25.283C521.44 25.6248 521.632 26.0884 521.632 26.5717C521.632 27.0549 521.44 27.5182 521.098 27.8597C520.756 28.2013 520.293 28.3933 519.81 28.3935ZM253.177 139.806C253.126 139.789 253.082 139.757 253.05 139.713C253.015 139.671 252.994 139.62 252.99 139.566C252.952 139.328 253.012 139.086 253.155 138.891C253.237 138.771 253.325 138.654 253.417 138.541C253.665 138.256 253.927 137.989 254.212 137.741C255.14 136.944 256.131 136.223 257.175 135.585C258.48 134.759 260.002 133.922 261.532 133.159C261.711 132.121 262.156 131.147 262.822 130.332C263.49 129.519 264.357 128.892 265.339 128.512C266.32 128.132 267.383 128.012 268.425 128.164C269.467 128.316 270.452 128.737 271.282 129.385C272.278 129.099 273.284 128.847 274.297 128.629C275.49 128.359 276.697 128.18 277.92 128.092C278.43 128.051 278.943 128.068 279.45 128.142C279.63 128.157 279.795 128.209 279.952 128.292C280.104 128.377 280.237 128.492 280.342 128.629C280.385 128.678 280.411 128.739 280.417 128.803C280.417 128.867 280.402 128.932 280.372 128.987C280.423 129.004 280.468 129.036 280.5 129.079C280.537 129.119 280.559 129.172 280.56 129.226C280.597 129.464 280.537 129.706 280.395 129.901C280.32 130.023 280.23 130.139 280.132 130.249C279.892 130.534 279.63 130.801 279.345 131.05C278.416 131.846 277.425 132.567 276.382 133.206C275.479 133.772 274.556 134.308 273.615 134.81C273.51 135.905 273.112 136.951 272.46 137.836C271.806 138.72 270.926 139.412 269.913 139.839C268.899 140.266 267.789 140.412 266.7 140.262C265.61 140.109 264.582 139.665 263.722 138.979C262.207 139.453 260.662 139.871 259.26 140.168C258.067 140.437 256.852 140.617 255.637 140.704C255.127 140.746 254.61 140.729 254.1 140.654C253.926 140.638 253.757 140.586 253.604 140.502C253.45 140.419 253.315 140.305 253.207 140.167C253.11 139.997 253.125 139.873 253.177 139.806ZM275.722 132.073C276.755 131.541 277.748 130.934 278.692 130.257C278.955 130.063 279.21 129.852 279.442 129.624C279.524 129.548 279.599 129.466 279.667 129.379C279.787 129.242 279.932 129.132 280.095 129.052C279.84 129.058 279.592 129.051 279.345 129.031C278.902 129.007 278.452 129.034 278.017 129.112C276.87 129.296 275.73 129.559 274.62 129.898C273.93 130.098 273.195 130.33 272.452 130.582C273.02 131.342 273.4 132.224 273.562 133.158C274.312 132.799 275.047 132.433 275.722 132.073ZM254.205 139.762C254.649 139.785 255.094 139.757 255.532 139.68C256.682 139.496 257.817 139.233 258.93 138.893C260.062 138.567 261.292 138.152 262.53 137.707C261.953 136.889 261.592 135.939 261.48 134.944C260.197 135.523 258.937 136.125 257.827 136.717C256.792 137.25 255.802 137.857 254.857 138.533C254.595 138.727 254.34 138.939 254.107 139.166C254.025 139.243 253.95 139.326 253.882 139.411C253.762 139.547 253.62 139.658 253.462 139.738C253.71 139.733 253.957 139.741 254.205 139.762ZM591.735 99.0787L587.55 97.8967L591.735 96.7147L592.92 92.5312L594.097 96.7147L598.282 97.8967L594.097 99.0787L592.92 103.262L591.735 99.0787ZM62.3324 401.834C62.3324 401.834 64.5599 401.609 67.515 401.549C73.8599 401.442 80.1974 402.013 86.4149 403.255C89.3174 403.842 91.4699 404.467 91.4699 404.467C92.4449 404.723 92.5499 404.369 91.5974 404.037C91.5974 404.037 89.46 403.309 86.5574 402.612C80.3286 401.078 73.9029 400.498 67.4999 400.891C64.515 401.058 62.2875 401.386 62.2875 401.386C60.9075 401.576 60.8024 401.976 62.3324 401.834ZM81.2474 406.234C81.2474 406.234 82.0349 406.276 83.0699 406.384C84.1049 406.493 85.3799 406.667 86.3774 406.82C87.3749 406.973 88.65 407.162 89.67 407.365C90.6899 407.569 91.4549 407.755 91.4549 407.755C91.7999 407.831 91.9124 407.477 91.5824 407.327C91.5824 407.327 90.84 407.035 89.8275 406.727C87.6525 406.036 85.3875 405.699 83.1075 405.727C82.0425 405.727 81.2474 405.787 81.2474 405.787C80.7599 405.82 80.7149 406.207 81.2474 406.234ZM104.017 470.045C104.295 469.309 104.295 468.496 104.017 467.76C103.987 467.681 103.62 467.685 103.567 467.76C103.29 468.496 103.29 469.309 103.567 470.045C103.597 470.152 103.987 470.165 104.017 470.045ZM740.545 126.702C740.825 125.966 740.825 125.153 740.545 124.417C740.512 124.338 740.144 124.342 740.095 124.417C739.816 125.153 739.816 125.966 740.095 126.702C740.126 126.809 740.516 126.822 740.545 126.702ZM105.622 471.765C105.813 471.883 106.037 471.934 106.26 471.91C106.482 471.885 106.69 471.789 106.852 471.636C106.875 471.486 106.86 471.331 106.807 471.19C106.612 471.073 106.387 471.022 106.17 471.046C105.945 471.069 105.735 471.166 105.577 471.319C105.525 471.357 105.555 471.74 105.622 471.765ZM742.151 128.422C742.341 128.54 742.565 128.591 742.787 128.568C743.009 128.544 743.217 128.448 743.378 128.293C743.405 128.143 743.388 127.988 743.332 127.846C743.141 127.73 742.918 127.679 742.696 127.703C742.474 127.726 742.266 127.822 742.104 127.976C742.051 128.014 742.085 128.397 742.151 128.422ZM96.1124 472.762C97.2005 473.099 98.3555 473.158 99.4724 472.935C99.5924 472.907 99.6074 472.54 99.4949 472.485C98.4069 472.148 97.2519 472.089 96.1349 472.312C95.9775 472.34 95.9399 472.723 96.1124 472.762ZM732.64 129.418C733.728 129.755 734.883 129.815 736 129.592C736.118 129.564 736.135 129.197 736.024 129.142C734.936 128.805 733.781 128.746 732.664 128.968C732.505 128.997 732.467 129.38 732.64 129.418ZM321.697 660.904C321.697 660.904 326.295 656.497 329.167 653.569C332.032 650.641 336.33 645.94 336.33 645.94C336.81 645.402 336.54 645.151 336.007 645.626C336.007 645.626 331.41 650.034 328.545 652.962C325.68 655.89 321.382 660.591 321.382 660.591C320.715 661.312 320.917 661.663 321.697 660.904ZM262.177 588.65C262.177 588.65 264.802 589.861 266.535 590.521C268.267 591.18 271.042 591.998 271.042 591.998C271.357 592.081 271.485 591.736 271.2 591.579C271.2 591.579 268.575 590.368 266.842 589.708C265.11 589.049 262.335 588.231 262.335 588.231C261.907 588.105 261.727 588.448 262.177 588.65ZM607.897 570.783C607.632 570.788 607.369 570.74 607.122 570.643C606.876 570.545 606.651 570.399 606.462 570.213C606.272 570.027 606.122 569.806 606.019 569.561C605.916 569.316 605.863 569.054 605.863 568.789C605.863 568.523 605.916 568.261 606.019 568.016C606.121 567.772 606.272 567.55 606.461 567.364C606.65 567.179 606.875 567.032 607.121 566.934C607.368 566.837 607.632 566.789 607.897 566.794C608.419 566.804 608.916 567.018 609.282 567.391C609.648 567.764 609.853 568.266 609.853 568.788C609.853 569.31 609.649 569.812 609.283 570.185C608.917 570.558 608.42 570.773 607.897 570.783Z" fill="#FFAA17"/>
<path d="M587.272 657.73L583.095 656.549L587.272 655.366L588.457 651.183L589.642 655.366L593.82 656.549L589.642 657.73L588.457 661.913L587.272 657.73ZM757.445 221.941L753.262 220.759L757.445 219.577L758.628 215.393L759.81 219.577L763.993 220.759L759.81 221.941L758.628 226.124L757.445 221.941ZM393.547 581.802L389.362 580.619L393.547 579.437L394.725 575.254L395.91 579.437L400.095 580.619L395.91 581.802L394.725 585.985L393.547 581.802Z" fill="#8F6E35"/>
<path d="M390.03 388.122L385.845 386.94L390.03 385.757L391.207 381.574L392.392 385.757L396.578 386.94L392.392 388.122L391.207 392.305L390.03 388.122ZM392.25 379.105C392.527 377.697 392.527 376.248 392.25 374.84C392.212 374.694 391.845 374.695 391.8 374.84C391.515 376.248 391.515 377.697 391.8 379.105C391.83 379.305 392.22 379.327 392.25 379.105ZM611.242 572.566C611.242 572.566 612.172 573.248 613.365 574.2C614.633 575.225 615.876 576.281 617.093 577.366C618.195 578.351 619.605 579.616 620.692 580.68C621.78 581.743 622.575 582.586 622.575 582.586C622.942 582.955 623.22 582.712 622.913 582.29C622.913 582.29 622.192 581.374 621.165 580.226C620.065 578.993 618.898 577.821 617.67 576.715C616.418 575.63 615.112 574.615 613.755 573.675C613.014 573.16 612.259 572.667 611.49 572.195C610.882 571.822 610.597 572.101 611.242 572.566ZM763.755 357.38C763.226 357.38 762.718 357.17 762.344 356.796C761.97 356.422 761.76 355.914 761.76 355.385C761.76 354.856 761.97 354.349 762.344 353.975C762.718 353.6 763.226 353.39 763.755 353.39C764.284 353.39 764.792 353.6 765.166 353.975C765.54 354.349 765.75 354.856 765.75 355.385C765.75 355.914 765.54 356.422 765.166 356.796C764.792 357.17 764.284 357.38 763.755 357.38ZM758.719 355.722C758.719 355.722 757.609 356.043 756.129 356.402C754.649 356.76 752.797 357.145 751.342 357.416C749.887 357.688 748.029 358.029 746.52 358.241C745.636 358.366 744.75 358.474 743.862 358.564C743.344 358.629 743.368 358.995 743.889 359.014C743.889 359.014 745.053 359.007 746.589 358.895C749.893 358.69 753.158 358.066 756.305 357.038C757.774 356.575 758.855 356.153 758.855 356.153C759.528 355.893 759.477 355.502 758.719 355.722ZM560.76 534.751C560.76 534.751 563.385 535.963 565.125 536.622C566.857 537.281 569.625 538.099 569.625 538.099C569.947 538.183 570.067 537.838 569.79 537.68C569.79 537.68 567.165 536.469 565.425 535.81C563.693 535.151 560.918 534.332 560.918 534.332C560.498 534.205 560.31 534.55 560.76 534.751ZM378.848 189.106C378.848 189.106 379.635 189.514 380.617 190.132C381.667 190.797 382.688 191.515 383.663 192.281C384.555 192.966 385.665 193.885 386.512 194.687C387.36 195.489 387.953 196.142 387.953 196.142C388.23 196.427 388.515 196.197 388.297 195.857C387.885 195.293 387.45 194.751 386.985 194.231C385.304 192.288 383.251 190.7 380.948 189.561C379.883 189.019 379.043 188.7 379.043 188.7C378.525 188.497 378.315 188.827 378.848 189.106ZM381.54 194.653C381.54 194.653 382.83 195.761 383.73 196.368C384.638 196.975 386.16 197.733 386.16 197.733C386.332 197.808 386.535 197.503 386.407 197.358C386.407 197.358 385.118 196.249 384.218 195.643C383.31 195.037 381.788 194.278 381.788 194.278C381.738 194.248 381.679 194.238 381.622 194.251C381.562 194.263 381.518 194.297 381.48 194.346C381.45 194.395 381.435 194.454 381.45 194.511C381.46 194.568 381.492 194.62 381.54 194.653Z" fill="#FFAA17"/>
<path d="M475.74 578.904C475.08 578.904 474.54 578.367 474.54 577.706C474.551 577.395 474.682 577.1 474.906 576.884C475.13 576.668 475.429 576.547 475.74 576.547C476.051 576.547 476.35 576.668 476.574 576.884C476.798 577.1 476.929 577.395 476.94 577.706C476.94 578.367 476.4 578.904 475.74 578.904ZM476.288 392.685C475.628 392.685 475.095 392.148 475.095 391.487C475.095 391.169 475.221 390.865 475.445 390.641C475.67 390.416 475.974 390.29 476.291 390.29C476.609 390.29 476.913 390.416 477.137 390.641C477.362 390.865 477.488 391.169 477.488 391.487C477.488 392.148 476.955 392.685 476.288 392.685Z" fill="#8F6E35"/>
<path d="M474.54 600.71C473.587 600.71 472.808 599.943 472.808 598.996C472.808 598.049 473.587 597.281 474.54 597.281C474.766 597.28 474.991 597.323 475.201 597.408C475.41 597.494 475.601 597.62 475.762 597.779C475.923 597.938 476.051 598.128 476.138 598.337C476.226 598.545 476.272 598.769 476.273 598.996C476.272 599.222 476.226 599.446 476.138 599.655C476.051 599.864 475.923 600.053 475.762 600.212C475.601 600.372 475.41 600.498 475.201 600.583C474.991 600.669 474.766 600.712 474.54 600.71ZM663.922 223.905C662.962 223.905 662.19 223.137 662.19 222.19C662.191 221.964 662.236 221.74 662.324 221.531C662.412 221.322 662.54 221.133 662.701 220.974C662.861 220.814 663.052 220.689 663.262 220.603C663.472 220.518 663.696 220.475 663.922 220.476C664.875 220.476 665.655 221.243 665.655 222.19C665.655 223.137 664.875 223.905 663.922 223.905ZM442.98 587.727C441.975 587.727 441.157 586.911 441.157 585.905C441.157 585.422 441.35 584.958 441.691 584.617C442.033 584.275 442.497 584.083 442.98 584.083C443.463 584.083 443.927 584.275 444.269 584.617C444.61 584.958 444.802 585.422 444.802 585.905C444.802 586.388 444.61 586.852 444.268 587.193C443.927 587.535 443.463 587.727 442.98 587.727ZM524.22 642.87L520.035 641.688L524.22 640.505L525.398 636.322L526.582 640.505L530.767 641.688L526.582 642.87L525.398 647.053L524.22 642.87ZM430.988 574.234C430.988 574.234 431.768 574.642 432.758 575.26C433.808 575.925 434.82 576.642 435.802 577.409C436.695 578.093 437.805 579.013 438.652 579.815C439.492 580.616 440.085 581.27 440.085 581.27C440.363 581.555 440.647 581.324 440.43 580.985C440.43 580.985 439.912 580.25 439.117 579.359C437.436 577.415 435.384 575.828 433.08 574.689C432.022 574.148 431.175 573.828 431.175 573.828C430.658 573.625 430.448 573.955 430.988 574.234ZM433.672 579.781C433.672 579.781 434.963 580.889 435.87 581.495C436.77 582.101 438.293 582.86 438.293 582.86C438.473 582.935 438.675 582.632 438.54 582.485C438.54 582.485 437.25 581.377 436.35 580.771C435.45 580.165 433.92 579.406 433.92 579.406C433.875 579.373 433.815 579.361 433.755 579.373C433.695 579.384 433.643 579.419 433.613 579.469C433.575 579.518 433.567 579.579 433.575 579.637C433.59 579.695 433.625 579.745 433.672 579.781Z" fill="#FFAA17"/>
<path d="M345.187 440.825C344.527 440.825 343.995 440.288 343.995 439.627C343.995 439.309 344.121 439.005 344.345 438.781C344.57 438.557 344.874 438.43 345.191 438.43C345.508 438.43 345.813 438.557 346.037 438.781C346.261 439.005 346.387 439.309 346.387 439.627C346.387 440.288 345.855 440.825 345.187 440.825ZM593.7 258.696C593.04 258.696 592.5 258.159 592.5 257.497C592.511 257.187 592.642 256.892 592.866 256.676C593.09 256.46 593.389 256.339 593.7 256.339C594.011 256.339 594.31 256.46 594.534 256.676C594.758 256.892 594.889 257.187 594.9 257.497C594.9 258.159 594.36 258.696 593.7 258.696Z" fill="#8F6E35"/>
<path d="M1189.52 156.539C1188.56 156.539 1187.78 155.772 1187.78 154.825C1187.78 153.877 1188.56 153.11 1189.52 153.11C1190.47 153.11 1191.25 153.877 1191.25 154.825C1191.25 155.772 1190.47 156.539 1189.52 156.539ZM897.11 478.333C896.153 478.333 895.378 477.566 895.378 476.619C895.378 475.672 896.153 474.904 897.11 474.904C898.067 474.904 898.843 475.672 898.843 476.619C898.843 477.566 898.067 478.333 897.11 478.333ZM687.045 442.172C686.562 442.172 686.098 441.98 685.757 441.639C685.415 441.297 685.223 440.834 685.223 440.35C685.236 439.876 685.434 439.426 685.774 439.095C686.115 438.765 686.571 438.58 687.045 438.58C687.52 438.58 687.975 438.765 688.316 439.095C688.656 439.426 688.854 439.876 688.868 440.35C688.867 440.834 688.675 441.297 688.333 441.639C687.992 441.98 687.528 442.172 687.045 442.172ZM567.518 193.201C566.513 193.201 565.703 192.386 565.703 191.38C565.703 190.897 565.894 190.435 566.235 190.094C566.576 189.753 567.039 189.561 567.521 189.561C568.004 189.561 568.466 189.753 568.807 190.094C569.148 190.435 569.34 190.897 569.34 191.38C569.341 191.619 569.294 191.856 569.202 192.078C569.111 192.299 568.977 192.5 568.807 192.669C568.638 192.839 568.437 192.973 568.216 193.064C567.994 193.155 567.757 193.202 567.518 193.201ZM937.508 383.283C937.268 383.283 937.031 383.236 936.81 383.144C936.589 383.052 936.388 382.918 936.219 382.749C936.05 382.58 935.916 382.379 935.824 382.158C935.732 381.936 935.685 381.699 935.685 381.46C935.686 381.221 935.733 380.984 935.824 380.763C935.916 380.542 936.05 380.341 936.22 380.172C936.389 380.002 936.59 379.868 936.811 379.777C937.032 379.685 937.269 379.638 937.508 379.638C937.992 379.638 938.455 379.83 938.797 380.172C939.139 380.514 939.331 380.978 939.33 381.461C939.33 381.944 939.138 382.408 938.796 382.749C938.455 383.091 937.991 383.283 937.508 383.283ZM1055.14 663.096L1050.96 661.913L1055.14 660.731L1056.32 656.548L1057.5 660.731L1061.69 661.913L1057.5 663.096L1056.32 667.279L1055.14 663.096ZM300.435 436.156C300.435 436.156 301.223 436.563 302.205 437.181C303.255 437.846 304.275 438.563 305.25 439.33C306.143 440.014 307.253 440.934 308.093 441.736C308.94 442.538 309.533 443.191 309.533 443.191C309.81 443.477 310.095 443.245 309.878 442.906C309.473 442.342 309.03 441.799 308.565 441.28C306.884 439.336 304.831 437.749 302.528 436.61C301.463 436.069 300.623 435.749 300.623 435.749C300.105 435.546 299.903 435.876 300.435 436.156ZM303.128 441.702C303.128 441.702 304.418 442.81 305.318 443.416C306.225 444.022 307.748 444.781 307.748 444.781C307.92 444.856 308.123 444.552 307.995 444.406C307.995 444.406 306.705 443.298 305.798 442.692C304.898 442.086 303.375 441.327 303.375 441.327C303.326 441.297 303.267 441.287 303.21 441.299C303.182 441.305 303.154 441.316 303.13 441.332C303.106 441.348 303.085 441.369 303.069 441.393C303.053 441.417 303.042 441.445 303.037 441.473C303.031 441.502 303.032 441.531 303.038 441.559C303.041 441.588 303.051 441.616 303.066 441.641C303.082 441.666 303.103 441.686 303.128 441.702ZM119.835 461.818C119.835 461.818 121.073 460.871 122.64 459.544C124.208 458.219 126.113 456.505 127.53 455.088C128.948 453.671 130.665 451.777 131.993 450.207C133.313 448.637 134.265 447.407 134.265 447.407C134.693 446.846 134.4 446.62 133.92 447.12C133.92 447.12 132.9 448.281 131.498 449.771C130.103 451.262 128.325 453.071 126.915 454.474C125.505 455.876 123.698 457.661 122.205 459.054C120.713 460.448 119.55 461.473 119.55 461.473C118.845 462.105 119.003 462.476 119.835 461.818ZM756.365 118.474C756.365 118.474 757.598 117.527 759.168 116.201C760.739 114.875 762.638 113.162 764.055 111.745C765.472 110.327 767.192 108.434 768.518 106.864C769.843 105.293 770.795 104.064 770.795 104.064C771.218 103.503 770.929 103.277 770.45 103.777C770.45 103.777 769.427 104.938 768.029 106.428C766.63 107.918 764.851 109.728 763.442 111.13C762.032 112.533 760.227 114.317 758.732 115.711C757.238 117.104 756.079 118.13 756.079 118.13C755.369 118.762 755.528 119.133 756.365 118.474ZM118.035 472.92C118.035 472.92 121.005 472.839 122.91 472.658C124.815 472.477 127.74 471.978 127.74 471.978C128.07 471.912 128.025 471.547 127.695 471.532C127.695 471.532 124.725 471.613 122.828 471.793C120.923 471.974 117.99 472.474 117.99 472.474C117.54 472.55 117.525 472.94 118.035 472.92ZM754.561 129.577C754.561 129.577 757.532 129.496 759.436 129.315C761.34 129.134 764.266 128.635 764.266 128.635C764.596 128.569 764.556 128.203 764.222 128.188C764.222 128.188 761.252 128.269 759.352 128.45C757.452 128.631 754.521 129.13 754.521 129.13C754.067 129.207 754.053 129.597 754.561 129.577ZM957.764 231.367C956.717 231.367 955.868 230.527 955.868 229.49C955.868 228.454 956.717 227.613 957.764 227.613C958.812 227.613 959.661 228.454 959.661 229.49C959.661 230.527 958.812 231.367 957.764 231.367ZM1095.38 258.738C1095.04 258.738 1094.7 258.67 1094.38 258.539C1094.06 258.407 1093.77 258.214 1093.53 257.971C1093.29 257.728 1093.09 257.439 1092.96 257.122C1092.83 256.804 1092.76 256.464 1092.76 256.12C1092.76 255.776 1092.83 255.435 1092.96 255.118C1093.09 254.8 1093.29 254.511 1093.53 254.268C1093.77 254.025 1094.06 253.832 1094.38 253.7C1094.7 253.569 1095.04 253.501 1095.38 253.501C1096.07 253.501 1096.74 253.776 1097.23 254.267C1097.72 254.758 1098 255.424 1098 256.119C1098 256.813 1097.72 257.48 1097.23 257.971C1096.74 258.462 1096.08 258.738 1095.38 258.738ZM971.72 547.34C971.025 547.34 970.359 547.064 969.868 546.573C969.377 546.082 969.101 545.416 969.101 544.721C969.101 544.027 969.377 543.36 969.868 542.869C970.359 542.378 971.025 542.102 971.72 542.102C972.414 542.102 973.08 542.378 973.571 542.869C974.063 543.36 974.339 544.027 974.339 544.721C974.339 545.416 974.063 546.082 973.571 546.573C973.08 547.064 972.414 547.34 971.72 547.34Z" fill="#FFAA17"/>
<path d="M803.893 508.735L799.71 507.552L803.893 506.37L805.075 502.186L806.257 506.37L810.44 507.552L806.257 508.735L805.075 512.917L803.893 508.735Z" fill="#8F6E35"/>
<path d="M924.918 223.891C924.918 223.891 927.149 223.666 930.106 223.606C933.275 223.548 936.444 223.664 939.6 223.953C942.757 224.236 945.895 224.689 949.003 225.311C951.902 225.899 954.056 226.523 954.056 226.523C955.031 226.779 955.135 226.426 954.184 226.093C954.184 226.093 952.048 225.366 949.145 224.668C942.914 223.133 936.486 222.553 930.081 222.947C927.101 223.114 924.869 223.442 924.869 223.442C923.495 223.631 923.392 224.032 924.918 223.891ZM943.84 228.29C943.84 228.29 944.629 228.332 945.663 228.44C946.768 228.561 947.87 228.706 948.968 228.875C949.964 229.028 951.238 229.218 952.257 229.421C952.855 229.54 953.45 229.67 954.043 229.812C954.392 229.883 954.502 229.533 954.175 229.383C954.175 229.383 953.43 229.091 952.416 228.783C950.244 228.093 947.975 227.755 945.696 227.783C944.637 227.783 943.84 227.843 943.84 227.843C943.348 227.876 943.299 228.263 943.84 228.29ZM858.461 522.277C858.742 521.541 858.742 520.727 858.461 519.991C858.427 519.912 858.061 519.916 858.011 519.991C857.731 520.727 857.731 521.541 858.011 522.277C858.046 522.383 858.433 522.395 858.461 522.277ZM860.068 523.996C860.258 524.113 860.481 524.164 860.704 524.141C860.926 524.118 861.134 524.021 861.295 523.867C861.322 523.717 861.305 523.562 861.248 523.421C861.058 523.305 860.835 523.254 860.613 523.277C860.391 523.301 860.183 523.397 860.021 523.55C859.967 523.589 860.001 523.974 860.068 523.996ZM850.556 524.99C851.644 525.328 852.799 525.387 853.916 525.164C854.034 525.136 854.051 524.769 853.939 524.713C852.851 524.377 851.696 524.318 850.579 524.54C850.42 524.57 850.383 524.955 850.556 524.99ZM874.282 514.048C874.282 514.048 875.514 513.101 877.084 511.775C878.653 510.449 880.555 508.736 881.971 507.319C883.387 505.901 885.109 504.008 886.434 502.438C887.21 501.52 887.969 500.587 888.71 499.64C889.135 499.08 888.844 498.854 888.366 499.353C888.366 499.353 887.343 500.514 885.944 502.004C884.545 503.494 882.766 505.304 881.357 506.707C879.948 508.109 878.143 509.893 876.649 511.287C875.774 512.104 874.889 512.911 873.994 513.707C873.285 514.336 873.445 514.707 874.282 514.048ZM872.477 525.152C872.477 525.152 875.448 525.07 877.348 524.889C879.247 524.708 882.178 524.209 882.178 524.209C882.508 524.143 882.468 523.777 882.134 523.759C882.134 523.759 879.163 523.84 877.264 524.02C875.364 524.201 872.434 524.701 872.434 524.701C871.984 524.781 871.969 525.172 872.477 525.152Z" fill="#FFAA17"/>
<path d="M359.782 628.683C360.06 627.946 360.06 627.134 359.782 626.397C359.745 626.318 359.377 626.322 359.332 626.397C359.047 627.133 359.047 627.947 359.332 628.683C359.362 628.79 359.752 628.801 359.782 628.683ZM361.387 630.402C361.578 630.52 361.802 630.571 362.025 630.547C362.247 630.522 362.455 630.426 362.618 630.273C362.64 630.123 362.625 629.968 362.565 629.827C362.378 629.71 362.152 629.659 361.935 629.683C361.71 629.706 361.5 629.803 361.343 629.956C361.29 629.995 361.32 630.38 361.387 630.402ZM354.878 630.449C355.966 630.786 357.121 630.845 358.238 630.622C358.35 630.594 358.365 630.227 358.26 630.172C357.172 629.835 356.017 629.776 354.9 629.999C354.742 630.025 354.698 630.411 354.878 630.449ZM359.79 634.453C359.79 634.453 359.79 634.236 359.797 633.96C359.805 633.684 359.805 633.342 359.782 633.08C359.76 632.818 359.685 632.486 359.633 632.213C359.58 631.94 359.535 631.73 359.535 631.73C359.505 631.636 359.138 631.619 359.085 631.714C359.04 631.881 359.003 632.05 358.98 632.22C358.92 632.53 358.905 632.846 358.92 633.16C358.958 633.473 359.04 633.78 359.145 634.074C359.25 634.351 359.348 634.55 359.348 634.55C359.408 634.675 359.79 634.597 359.79 634.453Z" fill="#8F6E35"/>
<path d="M912.547 30.2153C912.063 30.2153 911.6 30.0233 911.258 29.6817C910.917 29.3401 910.725 28.8767 910.725 28.3935C910.725 27.9104 910.917 27.447 911.258 27.1054C911.6 26.7637 912.063 26.5718 912.547 26.5718C913.03 26.5718 913.493 26.7637 913.835 27.1054C914.176 27.447 914.368 27.9104 914.368 28.3935C914.368 28.8767 914.176 29.3401 913.835 29.6817C913.493 30.0233 913.03 30.2153 912.547 30.2153ZM926.41 60.693C925.927 60.693 925.464 60.5011 925.122 60.1594C924.781 59.8178 924.589 59.3544 924.589 58.8713C924.589 58.3881 924.781 57.9247 925.122 57.5831C925.464 57.2415 925.927 57.0495 926.41 57.0495C926.894 57.0495 927.357 57.2415 927.699 57.5831C928.04 57.9247 928.232 58.3881 928.232 58.8713C928.232 59.3544 928.04 59.8178 927.699 60.1594C927.357 60.5011 926.894 60.693 926.41 60.693ZM1310.47 74.6273C1309.94 74.6273 1309.43 74.4171 1309.06 74.043C1308.68 73.6688 1308.47 73.1614 1308.47 72.6323C1308.47 72.1032 1308.68 71.5957 1309.06 71.2216C1309.43 70.8475 1309.94 70.6373 1310.47 70.6373C1311 70.6373 1311.5 70.8475 1311.88 71.2216C1312.25 71.5957 1312.46 72.1032 1312.46 72.6323C1312.46 73.1614 1312.25 73.6688 1311.88 74.043C1311.5 74.4171 1311 74.6273 1310.47 74.6273ZM550.005 485.907C549.74 485.912 549.476 485.864 549.23 485.767C548.983 485.669 548.759 485.523 548.569 485.337C548.38 485.151 548.229 484.93 548.127 484.685C548.024 484.441 547.971 484.178 547.971 483.913C547.971 483.648 548.024 483.385 548.126 483.14C548.229 482.896 548.379 482.674 548.569 482.488C548.758 482.303 548.982 482.156 549.229 482.058C549.475 481.961 549.739 481.913 550.004 481.918C550.526 481.928 551.024 482.142 551.39 482.515C551.756 482.888 551.961 483.39 551.961 483.912C551.961 484.434 551.756 484.936 551.39 485.309C551.025 485.682 550.527 485.897 550.005 485.907ZM1053.54 138.405C1052.49 138.405 1051.64 137.565 1051.64 136.528C1051.64 135.491 1052.49 134.651 1053.54 134.651C1054.59 134.651 1055.44 135.491 1055.44 136.528C1055.44 137.565 1054.59 138.405 1053.54 138.405ZM1053.54 169.354C1053.2 169.354 1052.86 169.286 1052.54 169.154C1052.22 169.023 1051.93 168.83 1051.69 168.587C1051.45 168.344 1051.25 168.055 1051.12 167.737C1050.99 167.419 1050.92 167.079 1050.92 166.735C1050.92 166.391 1050.99 166.05 1051.12 165.733C1051.25 165.415 1051.45 165.126 1051.69 164.883C1051.93 164.64 1052.22 164.447 1052.54 164.315C1052.86 164.184 1053.2 164.116 1053.54 164.116C1054.24 164.116 1054.9 164.392 1055.39 164.883C1055.88 165.374 1056.16 166.04 1056.16 166.735C1056.16 167.429 1055.88 168.096 1055.39 168.587C1054.9 169.078 1054.24 169.354 1053.54 169.354Z" fill="#FFAA17"/>
<path d="M874.703 170.798L870.52 169.615L874.703 168.433L875.885 164.25L877.067 168.433L881.25 169.615L877.067 170.798L875.885 174.98L874.703 170.798Z" fill="#8F6E35"/>
<path d="M366.202 269.048L362.017 267.865L366.202 266.684L367.387 262.5L368.565 266.684L372.75 267.865L368.565 269.048L367.387 273.231L366.202 269.048ZM1190.17 659.189C1190.45 657.781 1190.45 656.332 1190.17 654.924C1190.14 654.778 1189.77 654.779 1189.72 654.924C1189.44 656.332 1189.44 657.781 1189.72 659.189C1189.76 659.39 1190.14 659.412 1190.17 659.189Z" fill="#FFAA17"/>
<path d="M991.266 420.32L987.082 419.138L991.266 417.956L992.448 413.773L993.631 417.956L997.813 419.138L993.631 420.32L992.448 424.504L991.266 420.32Z" fill="#8F6E35"/>
<path d="M1315.94 384.323C1315.41 384.323 1314.9 384.113 1314.53 383.739C1314.16 383.365 1313.95 382.857 1313.95 382.328C1313.95 381.799 1314.16 381.292 1314.53 380.918C1314.9 380.543 1315.41 380.333 1315.94 380.333C1316.47 380.333 1316.98 380.543 1317.35 380.918C1317.73 381.292 1317.94 381.799 1317.94 382.328C1317.94 382.857 1317.73 383.365 1317.35 383.739C1316.98 384.113 1316.47 384.323 1315.94 384.323ZM1310.9 382.666C1310.9 382.666 1309.79 382.987 1308.32 383.345C1306.84 383.704 1304.98 384.088 1303.53 384.36C1302.07 384.632 1300.22 384.972 1298.71 385.185C1297.82 385.311 1296.94 385.418 1296.05 385.507C1295.53 385.573 1295.55 385.939 1296.08 385.957C1296.08 385.957 1297.24 385.951 1298.78 385.839C1302.08 385.632 1305.34 385.008 1308.49 383.982C1309.96 383.518 1311.04 383.097 1311.04 383.097C1311.71 382.837 1311.66 382.446 1310.9 382.666Z" fill="#FFAA17"/>
<path d="M1087.78 586.2C1087.46 586.2 1087.16 586.074 1086.93 585.849C1086.71 585.624 1086.58 585.319 1086.58 585.001C1086.58 584.684 1086.71 584.379 1086.93 584.154C1087.16 583.929 1087.46 583.803 1087.78 583.803C1088.1 583.803 1088.4 583.929 1088.63 584.154C1088.85 584.379 1088.98 584.684 1088.98 585.001C1088.98 585.319 1088.85 585.624 1088.63 585.849C1088.4 586.074 1088.1 586.2 1087.78 586.2Z" fill="#8F6E35"/>
<path d="M1071.72 416.785C1070.77 416.785 1069.99 416.017 1069.99 415.07C1069.99 414.124 1070.77 413.356 1071.72 413.356C1072.68 413.356 1073.46 414.124 1073.46 415.07C1073.46 416.017 1072.68 416.785 1071.72 416.785ZM1324.16 336.494C1323.2 336.494 1322.43 335.726 1322.43 334.78C1322.43 333.832 1323.2 333.065 1324.16 333.065C1325.12 333.065 1325.89 333.832 1325.89 334.78C1325.89 335.726 1325.12 336.494 1324.16 336.494ZM1034.87 521.759C1034.38 521.759 1033.92 521.567 1033.58 521.226C1033.24 520.884 1033.05 520.421 1033.05 519.937C1033.05 519.454 1033.24 518.991 1033.58 518.649C1033.92 518.308 1034.38 518.116 1034.87 518.116C1035.35 518.116 1035.81 518.308 1036.16 518.649C1036.5 518.991 1036.69 519.454 1036.69 519.937C1036.69 520.421 1036.5 520.884 1036.16 521.226C1035.81 521.567 1035.35 521.759 1034.87 521.759ZM1329.28 458.795L1325.1 457.613L1329.28 456.43L1330.46 452.248L1331.65 456.43L1335.83 457.613L1331.65 458.795L1330.46 462.978L1329.28 458.795ZM1022.87 508.265C1022.87 508.265 1023.66 508.673 1024.64 509.29C1025.69 509.958 1026.71 510.675 1027.69 511.44C1028.57 512.134 1029.69 513.044 1030.53 513.846C1031.03 514.315 1031.51 514.8 1031.97 515.301C1032.25 515.586 1032.54 515.356 1032.32 515.016C1031.91 514.452 1031.47 513.91 1031.01 513.39C1029.32 511.446 1027.27 509.858 1024.97 508.72C1023.9 508.178 1023.06 507.859 1023.06 507.859C1022.55 507.657 1022.34 507.987 1022.87 508.265ZM1025.56 513.815C1025.56 513.815 1026.85 514.923 1027.76 515.53C1028.66 516.136 1030.18 516.895 1030.18 516.895C1030.36 516.97 1030.56 516.665 1030.43 516.52C1030.43 516.52 1029.14 515.411 1028.24 514.805C1027.34 514.199 1025.81 513.44 1025.81 513.44C1025.79 513.424 1025.76 513.413 1025.73 513.407C1025.7 513.401 1025.67 513.401 1025.64 513.407C1025.61 513.413 1025.59 513.424 1025.56 513.441C1025.54 513.457 1025.52 513.479 1025.5 513.503C1025.47 513.553 1025.45 513.614 1025.47 513.673C1025.47 513.702 1025.48 513.729 1025.5 513.754C1025.52 513.778 1025.54 513.799 1025.56 513.815Z" fill="#FFAA17"/>
<path d="M1217.55 328.986C1217.23 328.986 1216.93 328.86 1216.7 328.635C1216.48 328.411 1216.35 328.106 1216.35 327.788C1216.35 327.47 1216.48 327.166 1216.7 326.941C1216.93 326.716 1217.23 326.59 1217.55 326.59C1217.87 326.59 1218.17 326.716 1218.4 326.94C1218.62 327.165 1218.75 327.47 1218.75 327.787C1218.75 328.105 1218.62 328.41 1218.4 328.635C1218.17 328.86 1217.87 328.986 1217.55 328.986Z" fill="#8F6E35"/>
<path d="M1250.11 629.934C1249.63 629.934 1249.16 629.742 1248.82 629.4C1248.48 629.059 1248.29 628.595 1248.29 628.112C1248.29 627.629 1248.48 627.166 1248.82 626.824C1249.16 626.482 1249.63 626.291 1250.11 626.291C1250.59 626.291 1251.06 626.482 1251.4 626.824C1251.74 627.166 1251.93 627.629 1251.93 628.112C1251.93 628.595 1251.74 629.059 1251.4 629.4C1251.06 629.742 1250.59 629.934 1250.11 629.934ZM1191.2 296.144C1190.71 296.144 1190.25 295.952 1189.91 295.61C1189.57 295.268 1189.38 294.805 1189.38 294.322C1189.38 293.839 1189.57 293.375 1189.91 293.034C1190.25 292.692 1190.71 292.5 1191.2 292.5C1191.68 292.5 1192.14 292.692 1192.49 293.034C1192.83 293.375 1193.02 293.839 1193.02 294.322C1193.02 294.805 1192.83 295.268 1192.49 295.61C1192.14 295.952 1191.68 296.144 1191.2 296.144ZM1333.93 655.393C1333.69 655.393 1333.45 655.346 1333.23 655.255C1333.01 655.163 1332.81 655.029 1332.64 654.86C1332.47 654.691 1332.34 654.49 1332.25 654.269C1332.15 654.048 1332.11 653.811 1332.11 653.572C1332.11 653.333 1332.15 653.096 1332.25 652.875C1332.34 652.654 1332.47 652.453 1332.64 652.284C1332.81 652.114 1333.01 651.98 1333.23 651.889C1333.45 651.797 1333.69 651.75 1333.93 651.75C1334.41 651.75 1334.87 651.942 1335.22 652.284C1335.56 652.625 1335.75 653.089 1335.75 653.572C1335.75 654.055 1335.56 654.518 1335.22 654.86C1334.87 655.202 1334.41 655.393 1333.93 655.393ZM1320.69 641.43C1320.69 641.43 1321.48 641.837 1322.46 642.455C1323.51 643.121 1324.53 643.838 1325.5 644.604C1326.4 645.289 1327.51 646.208 1328.35 647.01C1329.19 647.812 1329.79 648.466 1329.79 648.466C1330.07 648.751 1330.35 648.52 1330.13 648.18C1329.72 647.617 1329.29 647.074 1328.82 646.554C1327.14 644.611 1325.09 643.023 1322.78 641.885C1321.72 641.343 1320.88 641.024 1320.88 641.024C1320.36 640.82 1320.16 641.15 1320.69 641.43ZM1323.38 646.976C1323.38 646.976 1324.67 648.085 1325.57 648.691C1326.48 649.297 1328 650.056 1328 650.056C1328.18 650.131 1328.38 649.826 1328.25 649.681C1328.25 649.681 1326.96 648.572 1326.05 647.966C1325.15 647.36 1323.63 646.601 1323.63 646.601C1323.58 646.57 1323.52 646.56 1323.46 646.573C1323.41 646.585 1323.36 646.62 1323.32 646.669C1323.29 646.717 1323.28 646.777 1323.29 646.834C1323.3 646.891 1323.33 646.942 1323.38 646.976Z" fill="#FFAA17"/>
<path d="M1322.4 561.094C1322.68 560.358 1322.68 559.544 1322.4 558.808C1322.37 558.729 1322 558.733 1321.95 558.808C1321.67 559.544 1321.67 560.357 1321.95 561.094C1321.99 561.2 1322.37 561.212 1322.4 561.094ZM300.15 316.734C300.435 315.999 300.435 315.183 300.15 314.448C300.12 314.369 299.752 314.373 299.7 314.448C299.422 315.185 299.422 315.998 299.7 316.734C299.737 316.841 300.127 316.853 300.15 316.734ZM599.4 370.734C599.685 369.999 599.685 369.183 599.4 368.448C599.37 368.369 599.002 368.373 598.95 368.448C598.672 369.184 598.672 369.998 598.95 370.734C598.987 370.841 599.377 370.853 599.4 370.734ZM1066.65 332.344C1066.93 331.608 1066.93 330.794 1066.65 330.058C1066.62 329.979 1066.25 329.983 1066.2 330.058C1065.92 330.794 1065.92 331.607 1066.2 332.344C1066.24 332.45 1066.62 332.462 1066.65 332.344Z" fill="#8F6E35"/>
<path d="M717.153 592.734C717.433 591.998 717.433 591.184 717.153 590.448C717.119 590.369 716.752 590.373 716.703 590.448C716.423 591.184 716.423 591.998 716.703 592.734C716.738 592.841 717.124 592.853 717.153 592.734ZM477.9 296.344C478.185 295.608 478.185 294.793 477.9 294.058C477.87 293.979 477.502 293.983 477.45 294.058C477.172 294.794 477.172 295.607 477.45 296.344C477.487 296.45 477.877 296.462 477.9 296.344Z" fill="#FFAA17"/>
<path d="M1324.01 562.813C1324.21 562.9 1324.43 562.949 1324.65 562.958C1324.86 562.903 1325.06 562.81 1325.24 562.684C1325.26 562.534 1325.25 562.379 1325.19 562.238C1325 562.121 1324.78 562.069 1324.55 562.093C1324.33 562.116 1324.12 562.213 1323.96 562.367C1323.91 562.408 1323.94 562.791 1324.01 562.813ZM301.763 318.453C301.958 318.54 302.175 318.589 302.393 318.598C302.605 318.544 302.806 318.451 302.985 318.324C303.015 318.174 303 318.02 302.94 317.879C302.753 317.761 302.528 317.71 302.302 317.734C302.085 317.757 301.875 317.853 301.71 318.008C301.658 318.048 301.688 318.431 301.763 318.453ZM601.013 372.453C601.208 372.54 601.425 372.589 601.643 372.598C601.855 372.544 602.056 372.451 602.235 372.324C602.265 372.174 602.25 372.02 602.19 371.879C602.003 371.761 601.778 371.71 601.553 371.734C601.335 371.757 601.125 371.853 600.96 372.008C600.908 372.048 600.938 372.431 601.013 372.453ZM1068.26 334.063C1068.46 334.15 1068.68 334.199 1068.9 334.208C1069.11 334.153 1069.31 334.06 1069.49 333.934C1069.51 333.784 1069.5 333.629 1069.44 333.488C1069.25 333.371 1069.03 333.319 1068.8 333.343C1068.58 333.366 1068.37 333.463 1068.21 333.617C1068.16 333.658 1068.19 334.041 1068.26 334.063Z" fill="#8F6E35"/>
<path d="M718.76 594.453C718.961 594.54 719.177 594.589 719.396 594.598C719.608 594.543 719.809 594.45 719.988 594.324C720.014 594.174 719.998 594.02 719.941 593.879C719.751 593.761 719.527 593.709 719.305 593.733C719.083 593.756 718.874 593.853 718.713 594.008C718.659 594.048 718.689 594.431 718.76 594.453ZM479.513 298.063C479.708 298.15 479.925 298.198 480.143 298.207C480.355 298.154 480.556 298.061 480.735 297.934C480.765 297.784 480.75 297.629 480.69 297.488C480.503 297.37 480.278 297.32 480.053 297.344C479.835 297.367 479.625 297.463 479.46 297.617C479.408 297.658 479.438 298.041 479.513 298.063Z" fill="#FFAA17"/>
<path d="M1317.5 562.858C1318.58 563.194 1319.74 563.254 1320.86 563.031C1320.97 563.003 1320.99 562.636 1320.88 562.581C1319.79 562.244 1318.64 562.184 1317.52 562.408C1317.36 562.436 1317.32 562.822 1317.5 562.858ZM295.245 318.498C296.333 318.835 297.488 318.894 298.605 318.671C298.725 318.643 298.74 318.276 298.628 318.221C297.54 317.884 296.385 317.825 295.268 318.048C295.11 318.077 295.073 318.462 295.245 318.498ZM594.495 372.498C595.583 372.835 596.738 372.894 597.855 372.671C597.975 372.643 597.99 372.276 597.878 372.221C596.79 371.884 595.634 371.825 594.518 372.048C594.36 372.077 594.323 372.462 594.495 372.498ZM1061.75 334.108C1062.83 334.444 1063.99 334.504 1065.11 334.281C1065.22 334.253 1065.24 333.886 1065.13 333.831C1064.04 333.494 1062.89 333.435 1061.77 333.658C1061.61 333.686 1061.57 334.072 1061.75 334.108Z" fill="#8F6E35"/>
<path d="M712.247 594.498C713.335 594.835 714.49 594.894 715.607 594.671C715.724 594.643 715.741 594.276 715.63 594.221C714.542 593.884 713.387 593.825 712.27 594.048C712.111 594.077 712.073 594.462 712.247 594.498ZM472.995 298.108C474.083 298.444 475.238 298.504 476.355 298.281C476.475 298.253 476.49 297.886 476.378 297.831C475.29 297.494 474.134 297.434 473.018 297.658C472.86 297.686 472.823 298.072 472.995 298.108Z" fill="#FFAA17"/>
<path d="M1322.41 566.863C1322.41 566.863 1322.41 566.647 1322.42 566.371C1322.43 566.095 1322.43 565.753 1322.41 565.491C1322.39 565.229 1322.31 564.897 1322.26 564.624L1322.16 564.141C1322.13 564.046 1321.76 564.03 1321.71 564.125C1321.71 564.125 1321.65 564.341 1321.6 564.631C1321.54 564.941 1321.52 565.257 1321.54 565.571C1321.58 565.884 1321.66 566.19 1321.77 566.485C1321.87 566.762 1321.97 566.961 1321.97 566.961C1322.03 567.086 1322.41 567.008 1322.41 566.863ZM300.157 322.504C300.157 322.504 300.157 322.287 300.165 322.011C300.172 321.735 300.18 321.393 300.157 321.131C300.135 320.87 300.06 320.537 300.007 320.264L299.91 319.781C299.88 319.687 299.512 319.67 299.46 319.766C299.46 319.766 299.4 319.981 299.347 320.271C299.295 320.582 299.272 320.897 299.295 321.212C299.332 321.524 299.407 321.831 299.52 322.125C299.625 322.402 299.722 322.601 299.722 322.601C299.782 322.726 300.165 322.649 300.157 322.504ZM599.407 376.504C599.407 376.504 599.407 376.287 599.415 376.011C599.422 375.735 599.43 375.393 599.407 375.131C599.385 374.87 599.31 374.537 599.257 374.264L599.16 373.781C599.13 373.687 598.762 373.67 598.71 373.766C598.71 373.766 598.65 373.981 598.597 374.271C598.545 374.582 598.523 374.897 598.545 375.212C598.583 375.524 598.657 375.831 598.77 376.125C598.875 376.402 598.972 376.601 598.972 376.601C599.032 376.726 599.415 376.649 599.407 376.504ZM1066.66 338.114C1066.66 338.114 1066.66 337.897 1066.67 337.621C1066.68 337.345 1066.68 337.003 1066.66 336.741C1066.64 336.479 1066.56 336.147 1066.51 335.874L1066.41 335.391C1066.38 335.297 1066.01 335.28 1065.96 335.375C1065.96 335.375 1065.9 335.591 1065.85 335.881C1065.79 336.191 1065.77 336.507 1065.79 336.821C1065.83 337.134 1065.91 337.44 1066.02 337.735C1066.12 338.012 1066.22 338.211 1066.22 338.211C1066.28 338.336 1066.66 338.258 1066.66 338.114Z" fill="#8F6E35"/>
<path d="M717.161 598.504C717.161 598.504 717.161 598.287 717.168 598.011C717.176 597.735 717.179 597.393 717.158 597.131C717.137 596.87 717.061 596.537 717.008 596.264L716.911 595.781C716.88 595.687 716.513 595.67 716.461 595.766C716.461 595.766 716.4 595.981 716.351 596.271C716.294 596.582 716.275 596.897 716.292 597.211C716.333 597.524 716.41 597.831 716.522 598.125C716.581 598.287 716.648 598.446 716.723 598.601C716.784 598.726 717.163 598.648 717.161 598.504ZM477.908 302.114C477.908 302.114 477.908 301.897 477.915 301.621C477.923 301.345 477.93 301.003 477.908 300.741C477.885 300.479 477.81 300.147 477.758 299.874L477.66 299.391C477.63 299.297 477.263 299.28 477.21 299.375C477.21 299.375 477.15 299.591 477.098 299.881C477.045 300.191 477.023 300.507 477.045 300.821C477.083 301.134 477.158 301.441 477.27 301.735C477.375 302.012 477.473 302.211 477.473 302.211C477.533 302.336 477.915 302.258 477.908 302.114ZM842.937 575.385C842.408 575.385 841.901 575.175 841.526 574.801C841.152 574.427 840.942 573.919 840.942 573.39C840.942 572.861 841.152 572.353 841.526 571.979C841.901 571.605 842.408 571.395 842.937 571.395C843.466 571.395 843.974 571.605 844.348 571.979C844.722 572.353 844.932 572.861 844.932 573.39C844.932 573.919 844.722 574.427 844.348 574.801C843.974 575.175 843.466 575.385 842.937 575.385Z" fill="#FFAA17"/>
<path d="M742.773 677.674L738.59 676.491L742.773 675.309L743.955 671.126L745.138 675.309L749.321 676.491L745.138 677.674L743.955 681.857L742.773 677.674ZM118.778 605.188L114.593 604.005L118.778 602.823L119.963 598.64L121.14 602.823L125.325 604.005L121.14 605.188L119.963 609.371L118.778 605.188Z" fill="#8F6E35"/>
<path d="M1222.7 482.797L1218.52 481.615L1222.7 480.433L1223.88 476.25L1225.07 480.433L1229.25 481.615L1225.07 482.797L1223.88 486.98L1222.7 482.797ZM777.534 688.237C777.814 686.829 777.814 685.379 777.534 683.971C777.5 683.825 777.133 683.827 777.084 683.971C776.804 685.379 776.804 686.829 777.084 688.237C777.118 688.436 777.505 688.46 777.534 688.237ZM153.54 615.751C153.818 614.343 153.818 612.893 153.54 611.486C153.502 611.339 153.135 611.341 153.09 611.486C152.812 612.893 152.812 614.343 153.09 615.751C153.12 615.95 153.51 615.973 153.54 615.751ZM846.284 577.168C846.284 577.168 847.216 577.85 848.405 578.802C849.674 579.827 850.918 580.883 852.135 581.969C853.24 582.953 854.646 584.219 855.735 585.281C856.824 586.344 857.616 587.187 857.616 587.187C857.984 587.557 858.259 587.315 857.953 586.892C857.953 586.892 857.237 585.976 856.209 584.828C854.025 582.34 851.535 580.138 848.797 578.276C848.058 577.761 847.304 577.268 846.536 576.797C845.924 576.424 845.649 576.703 846.284 577.168ZM1013.08 600.208C1012.6 600.208 1012.14 600.016 1011.79 599.674C1011.45 599.333 1011.26 598.869 1011.26 598.386C1011.26 597.902 1011.45 597.439 1011.79 597.097C1012.14 596.755 1012.6 596.563 1013.08 596.564C1013.57 596.564 1014.03 596.756 1014.37 597.098C1014.71 597.439 1014.91 597.903 1014.91 598.386C1014.91 598.87 1014.71 599.333 1014.37 599.675C1014.03 600.017 1013.57 600.209 1013.08 600.208ZM851.336 689.459C851.096 689.459 850.859 689.412 850.638 689.321C850.417 689.229 850.216 689.095 850.047 688.926C849.878 688.757 849.744 688.556 849.652 688.335C849.561 688.114 849.514 687.877 849.514 687.637C849.514 687.398 849.561 687.161 849.652 686.94C849.744 686.719 849.878 686.518 850.047 686.349C850.216 686.18 850.417 686.046 850.638 685.954C850.859 685.863 851.096 685.816 851.336 685.816C851.819 685.816 852.282 686.008 852.624 686.349C852.965 686.691 853.157 687.154 853.157 687.637C853.157 688.121 852.965 688.584 852.624 688.926C852.282 689.267 851.819 689.459 851.336 689.459ZM143.603 181.645C142.552 181.645 141.705 180.804 141.705 179.768C141.705 178.731 142.552 177.89 143.603 177.89C144.652 177.89 145.5 178.731 145.5 179.768C145.5 180.804 144.652 181.645 143.603 181.645ZM563.602 353.254C562.552 353.254 561.705 352.414 561.705 351.377C561.705 350.341 562.552 349.5 563.602 349.5C564.652 349.5 565.5 350.341 565.5 351.377C565.5 352.414 564.652 353.254 563.602 353.254ZM213.233 256.05C211.785 256.05 210.608 254.878 210.608 253.431C210.609 252.736 210.886 252.069 211.378 251.578C211.87 251.087 212.537 250.812 213.233 250.812C213.576 250.812 213.917 250.88 214.234 251.011C214.552 251.143 214.841 251.336 215.084 251.579C215.327 251.822 215.52 252.111 215.651 252.429C215.783 252.747 215.85 253.087 215.85 253.431C215.85 253.775 215.783 254.115 215.651 254.433C215.52 254.751 215.327 255.04 215.084 255.283C214.841 255.526 214.552 255.719 214.234 255.851C213.917 255.982 213.576 256.05 213.233 256.05Z" fill="#FFAA17"/>
<path d="M167.505 272.294L163.32 271.111L167.505 269.929L168.683 265.746L169.868 269.929L174.052 271.111L169.868 272.294L168.683 276.476L167.505 272.294ZM1322.62 158.567C1322.31 158.567 1322 158.44 1321.78 158.216C1321.55 157.991 1321.43 157.687 1321.43 157.369C1321.42 157.051 1321.55 156.746 1321.78 156.521C1322 156.297 1322.31 156.17 1322.62 156.17C1322.78 156.17 1322.94 156.201 1323.08 156.261C1323.23 156.321 1323.36 156.41 1323.47 156.521C1323.58 156.632 1323.67 156.764 1323.73 156.91C1323.79 157.055 1323.82 157.211 1323.82 157.368C1323.82 157.525 1323.79 157.681 1323.73 157.827C1323.67 157.972 1323.58 158.104 1323.47 158.215C1323.36 158.327 1323.23 158.415 1323.08 158.475C1322.94 158.535 1322.78 158.566 1322.62 158.567ZM136.875 57.147C136.215 57.147 135.675 56.6108 135.675 55.9485C135.686 55.6376 135.817 55.3431 136.041 55.127C136.265 54.9109 136.564 54.7902 136.875 54.7902C137.186 54.7902 137.485 54.9109 137.709 55.127C137.933 55.3431 138.064 55.6376 138.075 55.9485C138.075 56.6108 137.535 57.147 136.875 57.147Z" fill="#8F6E35"/>
<path d="M1321.42 180.373C1320.47 180.373 1319.69 179.605 1319.69 178.658C1319.69 177.711 1320.47 176.944 1321.42 176.944C1322.38 176.944 1323.16 177.711 1323.16 178.658C1323.16 179.605 1322.38 180.373 1321.42 180.373ZM135.675 78.9532C134.715 78.9532 133.943 78.1853 133.943 77.2388C133.943 77.0123 133.989 76.7883 134.077 76.5795C134.164 76.3707 134.292 76.1813 134.453 76.022C134.614 75.8628 134.805 75.7368 135.014 75.6514C135.224 75.566 135.449 75.5228 135.675 75.5243C135.901 75.5228 136.126 75.566 136.336 75.6514C136.545 75.7368 136.736 75.8628 136.897 76.022C137.058 76.1813 137.186 76.3707 137.273 76.5795C137.361 76.7883 137.407 77.0123 137.407 77.2388C137.406 77.4651 137.361 77.6891 137.273 77.8979C137.186 78.1066 137.058 78.296 136.897 78.4553C136.736 78.6145 136.545 78.7405 136.335 78.8259C136.126 78.9114 135.901 78.9546 135.675 78.9532ZM1212.22 44.754C1211.74 44.754 1211.27 44.5621 1210.93 44.2204C1210.59 43.8788 1210.4 43.4154 1210.4 42.9322C1210.4 42.4491 1210.59 41.9857 1210.93 41.6441C1211.27 41.3024 1211.74 41.1105 1212.22 41.1105C1212.7 41.1105 1213.17 41.3024 1213.51 41.6441C1213.85 41.9857 1214.04 42.4491 1214.04 42.9322C1214.04 43.4154 1213.85 43.8788 1213.51 44.2204C1213.17 44.5621 1212.7 44.754 1212.22 44.754ZM451.755 456.034C450.75 456.034 449.94 455.219 449.94 454.212C449.94 453.973 449.987 453.737 450.078 453.516C450.17 453.295 450.304 453.095 450.473 452.926C450.642 452.757 450.842 452.623 451.063 452.532C451.283 452.44 451.52 452.393 451.759 452.393C451.998 452.393 452.234 452.44 452.455 452.532C452.675 452.623 452.876 452.757 453.045 452.926C453.214 453.095 453.348 453.295 453.439 453.516C453.531 453.737 453.578 453.973 453.578 454.212C453.578 454.451 453.531 454.689 453.44 454.91C453.348 455.131 453.214 455.332 453.045 455.502C452.875 455.671 452.674 455.805 452.453 455.896C452.232 455.988 451.994 456.034 451.755 456.034ZM1372.7 174.902L1368.52 173.72L1372.7 172.537L1373.88 168.354L1375.07 172.537L1379.25 173.72L1375.07 174.902L1373.88 179.084L1372.7 174.902ZM186.953 73.482L182.767 72.3L186.953 71.1173L188.137 66.9345L189.315 71.1173L193.5 72.3L189.315 73.482L188.137 77.6647L186.953 73.482Z" fill="#FFAA17"/>
</g>
</svg>
