<svg width="681" height="572" viewBox="0 0 681 572" fill="none" xmlns="http://www.w3.org/2000/svg">
<path d="M227.15 49.3217C162.347 86.0213 105.603 135.402 60.306 194.517C37.2926 224.659 24.98 119.654 48.5597 78.7963C72.1394 37.9384 142.937 3.87561 213.69 3.87561C284.444 3.87561 274.585 22.6058 227.15 49.3217Z" fill="#263238"/>
<path d="M71.9216 511.681C-41.4904 452.297 -7.74703 304.633 83.1307 197.755C234.279 19.9778 438.859 -55.4511 567.589 44.7481C696.319 144.947 698.933 388.861 654.154 460.006C609.376 531.152 509.366 563.414 335.436 563.414C161.507 563.414 126.559 540.285 71.9216 511.681Z" fill="#263238"/>
<path d="M667.309 439.966C664.762 448.375 661.442 456.531 657.392 464.329C656.347 466.323 655.263 468.201 654.14 469.963C652.688 472.286 651.163 474.566 649.566 476.802C647.679 479.488 645.689 482.13 643.599 484.7C640.549 488.504 637.297 492.183 633.841 495.735C629.035 500.672 623.924 505.303 618.538 509.601C595.307 528.201 565.484 542.517 528.168 552.826C528.168 552.826 468.638 571.454 340.213 571.454C211.788 571.454 140.033 552.826 140.033 552.826C138.581 552.39 137.303 551.94 135.967 551.475C115.349 544.433 99.2182 536.07 81.9544 526.996L71.7908 521.681C50.2583 510.298 34.04 495.779 22.4244 478.907C19.2941 474.332 16.4804 469.549 14.0031 464.591C-2.78148 430.92 -3.71073 390.062 7.13535 347.796C7.86133 344.892 8.65506 341.988 9.51655 339.084C13.5518 325.446 18.5394 312.109 24.4426 299.17C24.6169 298.763 24.8056 298.371 24.9944 297.965L25.6477 298.415C26.1704 298.778 26.6641 299.141 27.0997 299.518C27.5353 299.896 28.0725 300.259 28.5516 300.636C30.9272 302.531 33.1417 304.619 35.1725 306.88C35.9421 307.736 36.6245 308.622 37.4231 309.522C37.8296 310.03 38.2362 310.553 38.6282 311.09L39.572 312.397C39.9591 312.949 40.3367 313.515 40.7045 314.096L41.6628 315.635C41.9241 316.07 42.1855 316.521 42.4323 316.971C42.5194 317.116 42.6065 317.261 42.6791 317.406C42.9405 317.871 43.1873 318.35 43.4342 318.858C43.681 319.366 43.9859 319.947 44.2472 320.499C44.5086 321.051 44.6973 321.457 44.9006 321.951C45.4378 323.156 45.917 324.39 46.3526 325.639C46.5704 326.205 46.7591 326.786 46.9479 327.381V327.497C47.1221 328.035 47.2818 328.601 47.4415 329.153L47.79 330.459L48.0078 331.33C48.2401 332.303 48.4434 333.305 48.6321 334.234C48.6321 334.612 48.7628 334.989 48.8209 335.381C48.879 335.773 48.9516 336.195 49.0097 336.616C49.0677 337.037 49.1403 337.748 49.1984 338.314C49.2565 338.881 49.3146 339.534 49.3726 340.158C49.4598 341.465 49.5033 342.772 49.5033 344.108C49.5084 352.092 47.7846 359.982 44.4505 367.237C41.9327 372.701 38.5552 377.726 34.4466 382.12C42.0413 384.571 48.7007 389.295 53.5252 395.652C63.0703 389.011 74.4529 385.52 86.08 385.669C97.7072 385.817 108.997 389.597 118.369 396.48C119.081 397.002 119.821 397.539 120.446 398.091C123.167 400.307 125.671 402.776 127.923 405.467C128.49 406.135 129.027 406.832 129.564 407.529C130.348 408.574 131.103 409.649 131.829 410.752C132.79 412.227 133.677 413.748 134.486 415.311C134.893 416.095 135.27 416.88 135.648 417.693C136.374 419.29 137.1 420.945 137.622 422.629C139.543 428.238 140.524 434.125 140.526 440.053C140.528 442.251 140.397 444.447 140.134 446.63C139.612 450.871 138.584 455.034 137.071 459.03C136.911 459.422 136.766 459.814 136.606 460.191C142.665 460.297 148.474 462.627 152.926 466.74C157.88 461.618 164.133 457.939 171.017 456.097L172.266 455.777C173.501 455.456 174.758 455.223 176.026 455.08C176.477 454.993 176.927 454.95 177.377 454.906C177.827 454.863 178.64 454.79 179.279 454.761C179.918 454.732 180.658 454.761 181.355 454.761C186.546 454.752 191.688 455.774 196.481 457.768C201.274 459.762 205.623 462.688 209.276 466.377C214.165 471.289 217.628 477.436 219.295 484.163C228.105 478.893 238.184 476.122 248.45 476.148C279.551 476.148 304.786 501.02 304.786 531.714C304.786 531.976 304.786 532.266 304.786 532.557C307.809 530.579 311.229 529.287 314.805 528.771C318.381 528.255 322.027 528.529 325.486 529.572C328.945 530.615 332.134 532.403 334.829 534.81C337.523 537.217 339.659 540.184 341.084 543.504C342.613 539.884 344.985 536.682 348.001 534.163C351.017 531.645 354.591 529.882 358.425 529.023C362.259 528.164 366.244 528.233 370.046 529.224C373.849 530.214 377.36 532.099 380.287 534.72C380.072 532.913 379.961 531.095 379.953 529.275C379.948 517.036 384.719 505.278 393.253 496.505L394.124 495.779C394.937 494.965 395.794 494.196 396.665 493.441C397.246 492.947 397.841 492.468 398.436 491.989L399.366 491.292C399.975 490.842 400.614 490.392 401.253 489.971C402.533 489.11 403.856 488.316 405.217 487.59L406.248 487.052C406.945 486.704 407.7 486.37 408.353 486.05C409.007 485.731 409.805 485.426 410.517 485.15C411.228 484.874 411.969 484.599 412.724 484.352C420.653 481.712 429.127 481.154 437.334 482.73C445.541 484.307 453.206 487.965 459.593 493.354C460.696 494.283 461.742 495.256 462.758 496.258C464.756 498.305 466.569 500.525 468.174 502.893C471.214 500.481 474.781 498.819 478.584 498.044C478.027 496.289 477.567 494.505 477.205 492.7C477.089 492.091 476.973 491.481 476.871 490.856C476.473 488.364 476.274 485.845 476.276 483.321C476.274 481.277 476.405 479.235 476.668 477.208C476.774 476.356 476.905 475.5 477.06 474.638C477.486 472.241 478.102 469.881 478.904 467.582C479.194 466.71 479.513 465.854 479.862 465.012C480.123 464.387 480.399 463.763 480.675 463.139C483.155 457.723 486.599 452.803 490.839 448.619C500.208 439.39 512.839 434.23 525.99 434.259C528.635 434.263 531.275 434.467 533.889 434.869C535.152 435.072 536.415 435.319 537.65 435.61L539.508 436.089L540.96 436.524C541.696 436.757 542.422 437.004 543.138 437.265L544.909 437.947C545.49 438.18 546.071 438.441 546.652 438.702L547.915 439.298L548.249 439.457C559.602 445.076 568.361 454.843 572.714 466.74C577.251 462.617 583.165 460.338 589.296 460.351C590.036 460.351 590.747 460.351 591.488 460.438C591.412 459.807 591.373 459.172 591.372 458.536C591.377 455.516 592.054 452.536 593.355 449.811C594.656 447.086 596.548 444.685 598.893 442.782L597.063 442.289C592.308 440.886 587.815 438.713 583.764 435.857C582.762 435.145 581.789 434.405 580.86 433.635C579.93 432.866 579.001 432.038 578.145 431.181C573.907 427.068 570.538 422.145 568.239 416.706C565.939 411.266 564.755 405.42 564.758 399.514C564.755 397.6 564.886 395.689 565.15 393.793C565.266 392.937 565.411 392.08 565.571 391.223C565.73 390.367 565.992 389.263 566.253 388.32C565.091 388.102 563.93 387.826 562.797 387.507L561.128 386.998C560.01 386.621 558.921 386.214 557.861 385.764C556.801 385.314 555.755 384.806 554.739 384.312C552.211 382.973 549.832 381.372 547.639 379.535C543.187 375.821 539.605 371.174 537.146 365.922C534.687 360.671 533.412 354.944 533.41 349.146C533.41 348.478 533.41 347.825 533.41 347.157V346.997C533.41 346.489 533.41 345.981 533.526 345.545C533.526 345.327 533.526 345.109 533.526 344.906C533.519 344.878 533.519 344.848 533.526 344.819C533.526 344.282 533.642 343.774 533.729 343.251C533.729 343.12 533.729 342.99 533.729 342.859C533.816 342.278 533.933 341.712 534.049 341.16C534.165 340.608 534.31 339.97 534.455 339.374C534.6 338.779 534.702 338.46 534.847 338.009C534.993 337.559 535.065 337.254 535.181 336.891C535.486 335.962 535.835 335.033 536.212 334.133C536.357 333.77 536.517 333.407 536.677 333.044L536.851 332.681C537.011 332.332 537.17 331.984 537.345 331.65C537.795 330.721 538.303 329.806 538.797 328.906L539.247 328.18C539.311 328.063 539.384 327.951 539.465 327.846C539.857 327.221 540.263 326.626 540.713 326.031C540.776 325.923 540.849 325.821 540.931 325.726L541.512 324.956C542.106 324.168 542.74 323.412 543.414 322.691C543.719 322.357 544.024 322.023 544.343 321.704C544.663 321.385 544.967 321.051 545.301 320.746C545.635 320.441 545.955 320.107 546.289 319.816C546.623 319.526 546.942 319.221 547.276 318.931C548.307 318.046 549.388 317.222 550.514 316.462C557.313 311.771 565.383 309.268 573.643 309.29C576.196 309.297 578.742 309.535 581.252 310.001C581.252 309.754 581.252 309.537 581.252 309.29C581.246 308.392 581.299 307.495 581.411 306.604C581.411 306.255 581.484 305.921 581.542 305.587C581.558 305.431 581.582 305.276 581.615 305.123C581.716 304.498 581.847 303.889 582.007 303.279C582.202 302.541 582.434 301.814 582.704 301.101C582.834 300.738 582.98 300.375 583.125 300.012C583.27 299.649 583.372 299.446 583.502 299.17C583.633 298.894 583.706 298.734 583.822 298.516C584.795 296.588 586.026 294.8 587.481 293.202L587.989 292.665C588.388 292.232 588.81 291.82 589.252 291.431C589.473 291.22 589.706 291.021 589.949 290.836L590.617 290.298C591.305 289.738 592.033 289.229 592.795 288.774L593.564 288.309L594.348 287.888C594.624 287.728 594.915 287.583 595.19 287.452C595.728 287.206 596.25 286.973 596.802 286.77L597.644 286.451C598.152 286.276 598.661 286.102 599.198 285.971C599.735 285.841 599.982 285.754 600.388 285.667L601.187 285.507C601.791 285.377 602.402 285.285 603.016 285.231L603.96 285.144H604.904C605.223 285.144 605.543 285.144 605.877 285.144C611.698 285.132 617.333 287.19 621.776 290.952C622.004 286.335 624.005 281.984 627.361 278.806C630.718 275.627 635.172 273.867 639.794 273.891H640.375C637.015 267.963 635.249 261.264 635.25 254.45C635.292 245.784 638.145 237.366 643.382 230.461C648.619 223.557 655.955 218.539 664.289 216.162C673.859 252.759 679.131 290.347 679.999 328.165C681.32 371.216 676.456 410.796 667.309 439.966Z" fill="#37474F"/>
<path d="M463.905 545.043H411.765C412.233 538.448 415.182 532.275 420.02 527.768C424.857 523.261 431.223 520.755 437.835 520.755C444.447 520.755 450.813 523.261 455.651 527.768C460.488 532.275 463.438 538.448 463.905 545.043Z" fill="#263238"/>
<path d="M135.967 551.475C115.349 544.433 99.2183 536.07 81.9546 526.996C86.7626 523.225 92.513 520.846 98.5795 520.117C104.646 519.388 110.796 520.338 116.361 522.862C121.925 525.387 126.69 529.39 130.137 534.435C133.584 539.48 135.58 545.374 135.909 551.475H135.967Z" fill="#263238"/>
<path d="M282.847 550.953H185.813C182.89 547.063 181.31 542.329 181.312 537.464C181.375 531.469 183.783 525.736 188.02 521.494C192.257 517.252 197.987 514.837 203.982 514.767C209.978 514.697 215.763 516.977 220.098 521.118C224.433 525.26 226.975 530.935 227.179 536.927C231.28 532.861 236.362 529.924 241.932 528.4C247.502 526.876 253.372 526.816 258.971 528.227C264.571 529.638 269.712 532.472 273.895 536.453C278.078 540.435 281.161 545.429 282.847 550.953Z" fill="#263238"/>
<path d="M657.392 464.329C656.347 466.323 655.263 468.201 654.14 469.963C652.688 472.286 651.163 474.566 649.566 476.802C647.679 479.488 645.69 482.13 643.599 484.7C640.55 488.504 637.297 492.183 633.842 495.735C629.035 500.672 623.924 505.303 618.538 509.601C595.307 528.201 565.484 542.517 528.169 552.826L497.91 558.125L497.765 552.826C504.832 540.215 516.567 530.882 530.444 526.833C544.322 522.785 559.234 524.344 571.974 531.177C573.731 526.228 576.981 521.946 581.274 518.922C585.568 515.898 590.694 514.28 595.946 514.291C598.313 514.298 600.667 514.631 602.944 515.278C603.807 501.443 609.926 488.46 620.048 478.989C630.17 469.517 643.53 464.273 657.392 464.329Z" fill="#263238"/>
<path d="M667.309 439.966C660.33 437.956 654.12 433.889 649.489 428.294C644.859 422.7 642.023 415.839 641.354 408.607C640.684 401.376 642.211 394.111 645.736 387.761C649.26 381.411 654.618 376.273 661.109 373.016C658.238 370.634 655.925 367.65 654.335 364.275C652.744 360.901 651.914 357.218 651.904 353.487C651.925 350.087 652.616 346.724 653.937 343.591C655.258 340.458 657.185 337.616 659.605 335.228C662.026 332.84 664.893 330.952 668.044 329.673C671.194 328.394 674.566 327.748 677.966 327.773C678.75 327.773 679.52 327.773 680.275 327.875C681.32 371.216 676.456 410.796 667.309 439.966Z" fill="#263238"/>
<path d="M38.7009 479.415C38.6784 472.729 36.8054 466.18 33.2893 460.493C29.7732 454.806 24.7513 450.204 18.7801 447.196C21.6587 444.808 23.9759 441.815 25.5669 438.429C27.1579 435.044 27.9836 431.35 27.9855 427.609C27.9646 424.209 27.2736 420.846 25.9522 417.713C24.6307 414.58 22.7047 411.738 20.2842 409.35C17.8636 406.962 14.9961 405.074 11.8455 403.795C8.69498 402.516 5.32317 401.87 1.92292 401.895C1.26955 401.895 0.630687 401.895 0.00634766 401.982C0.137023 424.444 4.56548 445.657 14.0032 464.591C16.4805 469.549 19.2942 474.332 22.4245 478.907C26.2674 484.498 30.5653 489.762 35.2743 494.646C37.5265 489.884 38.6967 484.683 38.7009 479.415Z" fill="#263238"/>
<path d="M617.87 356.275C617.85 354.691 618.301 353.138 619.166 351.811C620.031 350.484 621.271 349.445 622.729 348.825C624.186 348.205 625.795 348.032 627.35 348.329C628.906 348.625 630.339 349.378 631.466 350.491C632.593 351.603 633.363 353.026 633.68 354.578C633.996 356.129 633.844 357.74 633.243 359.205C632.642 360.671 631.618 361.924 630.303 362.806C628.987 363.688 627.439 364.159 625.856 364.159C624.813 364.167 623.78 363.969 622.814 363.577C621.848 363.184 620.97 362.605 620.228 361.873C619.486 361.141 618.896 360.269 618.491 359.309C618.087 358.348 617.876 357.317 617.87 356.275Z" fill="#263238"/>
<path d="M60.8722 439.602C60.8521 438.019 61.3032 436.465 62.1684 435.139C63.0335 433.812 64.2736 432.773 65.7309 432.153C67.1882 431.533 68.797 431.36 70.3527 431.656C71.9084 431.953 73.3408 432.705 74.4678 433.818C75.5948 434.931 76.3656 436.353 76.682 437.905C76.9985 439.457 76.8464 441.068 76.245 442.533C75.6437 443.998 74.6203 445.251 73.305 446.133C71.9896 447.015 70.4417 447.486 68.858 447.487C67.8157 447.494 66.7821 447.296 65.8164 446.904C64.8507 446.512 63.9718 445.933 63.2301 445.201C62.4883 444.468 61.8983 443.597 61.4937 442.636C61.0891 441.676 60.8779 440.645 60.8722 439.602Z" fill="#263238"/>
<path d="M160.055 521.827C160.032 520.162 160.505 518.528 161.413 517.133C162.321 515.738 163.623 514.644 165.154 513.991C166.686 513.338 168.377 513.155 170.012 513.465C171.648 513.776 173.154 514.566 174.339 515.735C175.525 516.904 176.335 518.399 176.669 520.03C177.002 521.661 176.843 523.354 176.211 524.895C175.58 526.435 174.504 527.752 173.122 528.68C171.739 529.607 170.112 530.103 168.447 530.103C167.352 530.112 166.266 529.906 165.251 529.494C164.236 529.083 163.312 528.476 162.533 527.707C161.753 526.938 161.133 526.023 160.708 525.014C160.283 524.005 160.061 522.922 160.055 521.827Z" fill="#263238"/>
<path d="M478.802 534.764C478.779 533.099 479.252 531.465 480.16 530.07C481.068 528.674 482.37 527.581 483.901 526.928C485.433 526.275 487.124 526.092 488.759 526.402C490.395 526.713 491.901 527.503 493.086 528.672C494.272 529.841 495.083 531.336 495.416 532.967C495.749 534.598 495.59 536.291 494.958 537.832C494.327 539.372 493.251 540.689 491.869 541.617C490.486 542.544 488.859 543.039 487.194 543.04C486.1 543.047 485.015 542.839 484.001 542.428C482.986 542.016 482.063 541.408 481.284 540.64C480.505 539.871 479.885 538.957 479.459 537.948C479.033 536.94 478.81 535.858 478.802 534.764Z" fill="#263238"/>
<path d="M601.492 264.744C604.956 264.744 607.764 261.975 607.764 258.559C607.764 255.143 604.956 252.373 601.492 252.373C598.028 252.373 595.219 255.143 595.219 258.559C595.219 261.975 598.028 264.744 601.492 264.744Z" fill="#455A64"/>
<path d="M453.32 441.446C453.291 440.292 453.607 439.155 454.228 438.181C454.848 437.207 455.745 436.44 456.803 435.978C457.861 435.516 459.033 435.381 460.169 435.588C461.305 435.795 462.354 436.337 463.181 437.143C464.007 437.949 464.575 438.983 464.811 440.114C465.047 441.244 464.941 442.419 464.506 443.489C464.071 444.559 463.327 445.475 462.369 446.119C461.411 446.764 460.283 447.109 459.128 447.109C458.373 447.125 457.623 446.99 456.921 446.712C456.219 446.435 455.579 446.021 455.038 445.494C454.498 444.967 454.068 444.338 453.773 443.643C453.478 442.948 453.324 442.201 453.32 441.446Z" fill="#455A64"/>
<path d="M167.489 428.161C170.063 428.161 172.15 426.1 172.15 423.558C172.15 421.016 170.063 418.956 167.489 418.956C164.915 418.956 162.828 421.016 162.828 423.558C162.828 426.1 164.915 428.161 167.489 428.161Z" fill="#455A64"/>
<path d="M63.2679 354.518C63.2304 352.75 63.7203 351.011 64.6752 349.523C65.6302 348.035 67.0068 346.865 68.6295 346.162C70.2521 345.459 72.0474 345.256 73.7861 345.578C75.5249 345.899 77.1284 346.732 78.3921 347.969C79.6558 349.206 80.5224 350.791 80.8814 352.522C81.2404 354.254 81.0756 356.053 80.4078 357.69C79.7401 359.328 78.5997 360.729 77.1322 361.716C75.6647 362.702 73.9366 363.229 72.1683 363.23C69.8356 363.245 67.5913 362.339 65.9241 360.707C64.257 359.075 63.3023 356.851 63.2679 354.518Z" fill="#455A64"/>
<path d="M381.434 535.794C381.071 535.431 380.679 535.097 380.302 534.764C380.51 536.512 380.815 538.247 381.216 539.961C381.216 538.553 381.303 537.174 381.434 535.794Z" fill="#FFAA17"/>
<path d="M468.174 502.908C462.397 494.43 454.072 488.011 444.404 484.581C434.736 481.152 424.227 480.889 414.399 483.831C404.571 486.773 395.935 492.767 389.742 500.946C383.549 509.124 380.121 519.061 379.953 529.319C379.959 531.139 380.076 532.957 380.302 534.763C380.679 535.097 381.071 535.431 381.434 535.794C382.384 526.666 385.916 517.997 391.616 510.804C397.316 503.611 404.947 498.19 413.617 495.178C422.286 492.166 431.634 491.686 440.566 493.796C449.499 495.906 457.645 500.517 464.05 507.089C470.098 513.257 474.337 520.966 476.305 529.377C476.324 519.936 473.49 510.71 468.174 502.908Z" fill="#FFAA17"/>
<path d="M541.744 439.152C543.944 439.157 546.141 439.303 548.322 439.588C541.386 436.146 533.748 434.357 526.005 434.361C512.915 434.272 500.325 439.386 491.005 448.578C481.684 457.771 476.397 470.288 476.305 483.379C476.3 488.379 477.068 493.351 478.584 498.116C481.491 507.042 486.87 514.961 494.097 520.952C501.324 526.943 510.103 530.76 519.413 531.961C515.305 529.919 511.499 527.32 508.102 524.237C500.858 517.692 495.744 509.124 493.423 499.641C492.506 495.886 492.043 492.035 492.044 488.17C492.136 475.08 497.424 462.562 506.744 453.37C516.064 444.178 528.654 439.064 541.744 439.152Z" fill="#FFAA17"/>
<path d="M622.081 435.319C610.146 435.4 598.667 430.738 590.169 422.357C581.671 413.976 576.85 402.563 576.765 390.628C576.765 390.018 576.765 389.423 576.852 388.813C576.991 385.4 577.522 382.014 578.435 378.722C569.303 376.951 561.062 372.084 555.102 364.942C549.143 357.8 545.83 348.821 545.723 339.519C545.713 329.897 549.219 320.603 555.581 313.384C548.076 317.101 541.937 323.094 538.039 330.506C534.141 337.919 532.684 346.373 533.875 354.663C535.066 362.953 538.845 370.655 544.672 376.67C550.5 382.685 558.078 386.706 566.326 388.16C565.361 391.823 564.873 395.595 564.874 399.383C564.924 409.369 568.311 419.051 574.496 426.891C580.681 434.731 589.309 440.278 599.009 442.652C602.56 439.766 606.958 438.122 611.531 437.973C616.104 437.824 620.6 439.176 624.331 441.824C631.385 439.535 637.768 435.546 642.916 430.208C636.476 433.543 629.333 435.295 622.081 435.319Z" fill="#FFAA17"/>
<path d="M611.017 332.855C611.627 332.739 612.236 332.579 612.832 332.419C612.106 332.419 611.38 332.289 610.683 332.173C610.799 332.405 610.915 332.623 611.017 332.855Z" fill="#FFAA17"/>
<path d="M610.683 332.173C605.646 331.421 600.97 329.113 597.31 325.572C593.649 322.031 591.187 317.435 590.268 312.426C590.007 311.037 589.871 309.628 589.862 308.215C589.856 305.393 590.348 302.591 591.314 299.939C592.667 296.298 594.868 293.031 597.733 290.408C600.599 287.785 604.047 285.881 607.793 284.853C607.242 284.853 606.69 284.766 606.124 284.766C601.29 284.771 596.564 286.195 592.532 288.861C588.501 291.528 585.341 295.319 583.444 299.765C582.188 302.712 581.541 305.883 581.542 309.087C581.542 309.333 581.542 309.58 581.542 309.827C581.787 316.167 584.486 322.164 589.071 326.55C593.655 330.936 599.764 333.369 606.109 333.334C607.738 333.338 609.362 333.177 610.959 332.855C610.915 332.623 610.799 332.405 610.683 332.173Z" fill="#FFAA17"/>
<path d="M208.463 492.613C211.716 489.374 215.353 486.546 219.295 484.192C217.18 475.726 212.287 468.214 205.398 462.857C198.509 457.5 190.023 454.609 181.297 454.645C177.802 454.672 174.326 455.16 170.959 456.097C180.641 456.403 189.858 460.32 196.798 467.077C203.738 473.834 207.899 482.943 208.463 492.613Z" fill="#FFAA17"/>
<path d="M85.4683 385.735H84.2777C96.6791 388.157 107.857 394.805 115.905 404.546C123.954 414.286 128.376 426.517 128.417 439.152C128.428 448.21 126.14 457.123 121.767 465.055C119.407 469.368 116.477 473.344 113.055 476.874C102.861 487.271 88.9781 493.229 74.4189 493.455C78.0573 494.181 81.7584 494.545 85.4683 494.544C94.7021 494.561 103.794 492.275 111.923 487.894C123.137 481.855 131.899 472.102 136.708 460.307C139.304 453.906 140.635 447.062 140.628 440.154C140.628 410.113 115.93 385.735 85.4683 385.735Z" fill="#FFAA17"/>
<path d="M49.6049 344.151C49.61 358.28 44.219 371.877 34.5336 382.163C27.5426 379.877 20.0475 379.615 12.9141 381.408C20.5063 376.31 26.7285 369.422 31.0327 361.353C35.337 353.284 37.5913 344.28 37.5972 335.135C37.6062 321.97 32.9215 309.234 24.3845 299.213C24.5587 298.807 24.7475 298.415 24.9362 298.008C32.5128 303.091 38.7249 309.957 43.0263 318.003C47.3277 326.048 49.5868 335.028 49.6049 344.151Z" fill="#FFAA17"/>
<g opacity="0.3">
<path d="M381.434 535.794C381.071 535.431 380.679 535.097 380.302 534.764C380.51 536.512 380.815 538.247 381.216 539.961C381.216 538.553 381.303 537.174 381.434 535.794Z" fill="black"/>
<path d="M468.174 502.908C462.397 494.43 454.072 488.011 444.404 484.581C434.736 481.152 424.227 480.889 414.399 483.831C404.571 486.773 395.935 492.767 389.742 500.946C383.549 509.124 380.121 519.061 379.953 529.319C379.959 531.139 380.076 532.957 380.302 534.764C380.679 535.097 381.071 535.431 381.434 535.794C382.384 526.666 385.916 517.997 391.616 510.804C397.316 503.611 404.947 498.19 413.617 495.178C422.286 492.166 431.634 491.687 440.566 493.796C449.499 495.906 457.645 500.517 464.05 507.089C470.098 513.257 474.337 520.966 476.305 529.377C476.324 519.936 473.49 510.71 468.174 502.908Z" fill="black"/>
<path d="M541.744 439.152C543.944 439.157 546.141 439.303 548.322 439.588C541.386 436.146 533.748 434.357 526.005 434.361C512.915 434.272 500.325 439.386 491.005 448.578C481.684 457.771 476.397 470.288 476.305 483.379C476.3 488.379 477.068 493.351 478.584 498.116C481.491 507.042 486.87 514.961 494.097 520.952C501.324 526.943 510.103 530.76 519.413 531.961C515.305 529.919 511.499 527.32 508.102 524.237C500.858 517.692 495.744 509.124 493.423 499.641C492.506 495.886 492.043 492.035 492.044 488.17C492.136 475.08 497.424 462.562 506.744 453.37C516.064 444.178 528.654 439.064 541.744 439.152Z" fill="black"/>
<path d="M622.081 435.319C610.146 435.4 598.667 430.738 590.169 422.357C581.671 413.976 576.85 402.563 576.765 390.628C576.765 390.018 576.765 389.423 576.852 388.813C576.991 385.4 577.522 382.014 578.435 378.722C569.303 376.951 561.062 372.084 555.102 364.942C549.143 357.8 545.83 348.821 545.723 339.519C545.713 329.897 549.219 320.603 555.581 313.384C548.076 317.101 541.937 323.094 538.039 330.506C534.141 337.919 532.684 346.373 533.875 354.663C535.066 362.953 538.845 370.655 544.672 376.67C550.5 382.685 558.078 386.706 566.326 388.16C565.361 391.823 564.873 395.595 564.874 399.383C564.924 409.369 568.311 419.051 574.496 426.891C580.681 434.731 589.309 440.278 599.009 442.652C602.56 439.766 606.958 438.122 611.531 437.973C616.104 437.824 620.6 439.176 624.331 441.824C631.385 439.535 637.768 435.546 642.916 430.208C636.476 433.543 629.333 435.295 622.081 435.319Z" fill="black"/>
<path d="M611.017 332.855C611.626 332.739 612.236 332.579 612.832 332.419C612.106 332.419 611.38 332.289 610.683 332.173C610.799 332.405 610.915 332.623 611.017 332.855Z" fill="black"/>
<path d="M610.683 332.173C605.646 331.421 600.97 329.113 597.31 325.572C593.649 322.031 591.187 317.435 590.268 312.426C590.007 311.037 589.871 309.628 589.862 308.215C589.856 305.393 590.348 302.591 591.314 299.939C592.667 296.298 594.868 293.031 597.733 290.408C600.599 287.785 604.047 285.881 607.793 284.853C607.242 284.853 606.69 284.766 606.124 284.766C601.29 284.771 596.564 286.195 592.532 288.861C588.501 291.528 585.341 295.319 583.444 299.765C582.188 302.712 581.541 305.883 581.542 309.087C581.542 309.333 581.542 309.58 581.542 309.827C581.787 316.167 584.486 322.164 589.071 326.55C593.655 330.936 599.764 333.369 606.109 333.334C607.738 333.338 609.362 333.177 610.959 332.855C610.915 332.623 610.799 332.405 610.683 332.173Z" fill="black"/>
<path d="M208.463 492.613C211.715 489.374 215.353 486.546 219.294 484.192C217.18 475.726 212.286 468.214 205.398 462.857C198.509 457.5 190.023 454.609 181.297 454.645C177.802 454.672 174.326 455.16 170.959 456.097C180.641 456.403 189.857 460.32 196.797 467.077C203.737 473.834 207.899 482.943 208.463 492.613Z" fill="black"/>
<path d="M85.4681 385.735H84.2775C96.6788 388.157 107.856 394.805 115.905 404.546C123.954 414.286 128.376 426.517 128.417 439.152C128.428 448.21 126.14 457.123 121.767 465.055C119.407 469.368 116.477 473.344 113.055 476.874C102.86 487.271 88.9778 493.229 74.4187 493.455C78.0571 494.181 81.7581 494.545 85.4681 494.544C94.7019 494.561 103.794 492.275 111.923 487.894C123.136 481.855 131.899 472.102 136.707 460.307C139.304 453.906 140.635 447.062 140.628 440.154C140.628 410.113 115.93 385.735 85.4681 385.735Z" fill="black"/>
<path d="M49.6049 344.151C49.61 358.28 44.219 371.877 34.5336 382.163C27.5426 379.877 20.0475 379.615 12.9141 381.408C20.5063 376.309 26.7285 369.422 31.0327 361.353C35.337 353.284 37.5913 344.28 37.5972 335.135C37.6062 321.97 32.9215 309.234 24.3845 299.213C24.5587 298.807 24.7475 298.415 24.9362 298.008C32.5128 303.091 38.7249 309.957 43.0263 318.003C47.3277 326.048 49.5868 335.028 49.6049 344.151Z" fill="black"/>
</g>
<path d="M239.767 300.201C239.767 300.649 239.634 301.087 239.385 301.459C239.137 301.832 238.783 302.122 238.369 302.293C237.955 302.465 237.5 302.51 237.06 302.422C236.621 302.335 236.217 302.119 235.9 301.802C235.584 301.485 235.368 301.082 235.281 300.643C235.193 300.203 235.238 299.748 235.409 299.334C235.581 298.92 235.871 298.566 236.244 298.317C236.616 298.068 237.054 297.936 237.502 297.936C237.8 297.934 238.096 297.991 238.371 298.104C238.647 298.217 238.897 298.384 239.108 298.595C239.319 298.805 239.486 299.056 239.599 299.332C239.712 299.607 239.769 299.903 239.767 300.201Z" fill="white"/>
<path d="M89.8529 266.762C91.1039 266.762 92.118 265.748 92.118 264.497C92.118 263.246 91.1039 262.232 89.8529 262.232C88.602 262.232 87.5879 263.246 87.5879 264.497C87.5879 265.748 88.602 266.762 89.8529 266.762Z" fill="white"/>
<path d="M278.65 92.3537C278.65 92.8017 278.518 93.2396 278.269 93.6121C278.02 93.9846 277.666 94.2749 277.252 94.4463C276.838 94.6177 276.383 94.6626 275.944 94.5752C275.504 94.4878 275.101 94.2721 274.784 93.9553C274.467 93.6385 274.251 93.2349 274.164 92.7956C274.076 92.3562 274.121 91.9008 274.293 91.4869C274.464 91.073 274.755 90.7192 275.127 90.4704C275.499 90.2215 275.937 90.0886 276.385 90.0886C276.986 90.0886 277.562 90.3273 277.987 90.752C278.412 91.1768 278.65 91.7529 278.65 92.3537Z" fill="white"/>
<path d="M66.2588 159.027C66.2617 159.477 66.1309 159.916 65.8831 160.291C65.6354 160.666 65.2818 160.958 64.8673 161.132C64.4528 161.305 63.9962 161.351 63.5555 161.264C63.1147 161.177 62.7098 160.961 62.3922 160.643C62.0745 160.326 61.8585 159.921 61.7716 159.48C61.6846 159.039 61.7307 158.583 61.904 158.168C62.0772 157.754 62.3698 157.4 62.7445 157.152C63.1192 156.905 63.5591 156.774 64.0083 156.777C64.6052 156.777 65.1776 157.014 65.5996 157.436C66.0217 157.858 66.2588 158.43 66.2588 159.027Z" fill="white"/>
<path d="M451.084 315.824C451.084 316.306 450.941 316.778 450.673 317.179C450.405 317.58 450.024 317.893 449.578 318.077C449.133 318.262 448.642 318.31 448.169 318.216C447.696 318.122 447.261 317.89 446.92 317.548C446.579 317.207 446.347 316.773 446.252 316.299C446.158 315.826 446.207 315.336 446.391 314.89C446.576 314.444 446.889 314.063 447.29 313.795C447.691 313.527 448.162 313.384 448.645 313.384C448.965 313.384 449.282 313.447 449.578 313.57C449.874 313.693 450.143 313.872 450.37 314.099C450.596 314.325 450.776 314.594 450.898 314.89C451.021 315.186 451.084 315.503 451.084 315.824Z" fill="white"/>
<path d="M457.894 320.092C457.894 320.334 457.822 320.569 457.688 320.77C457.554 320.971 457.364 321.127 457.141 321.219C456.918 321.311 456.673 321.336 456.436 321.289C456.2 321.241 455.982 321.125 455.812 320.955C455.641 320.784 455.525 320.567 455.478 320.33C455.431 320.094 455.455 319.848 455.547 319.626C455.64 319.403 455.796 319.212 455.997 319.078C456.197 318.944 456.433 318.873 456.674 318.873C456.998 318.873 457.308 319.001 457.537 319.23C457.765 319.459 457.894 319.769 457.894 320.092Z" fill="white"/>
<path d="M524.8 391.935C524.8 392.176 524.728 392.412 524.594 392.613C524.46 392.813 524.27 392.969 524.047 393.062C523.824 393.154 523.579 393.178 523.342 393.131C523.106 393.084 522.888 392.968 522.718 392.797C522.547 392.627 522.431 392.409 522.384 392.173C522.337 391.936 522.361 391.691 522.453 391.468C522.546 391.245 522.702 391.055 522.903 390.921C523.103 390.787 523.339 390.715 523.58 390.715C523.903 390.719 524.211 390.849 524.438 391.077C524.666 391.305 524.796 391.613 524.8 391.935Z" fill="white"/>
<path d="M520.836 401.881C520.839 402.364 520.698 402.837 520.432 403.24C520.166 403.643 519.786 403.958 519.34 404.145C518.895 404.332 518.404 404.382 517.93 404.29C517.456 404.197 517.02 403.966 516.677 403.625C516.335 403.285 516.101 402.85 516.005 402.377C515.91 401.903 515.958 401.412 516.142 400.965C516.326 400.519 516.639 400.137 517.04 399.868C517.442 399.6 517.914 399.456 518.397 399.456C519.041 399.456 519.659 399.711 520.116 400.165C520.574 400.62 520.832 401.236 520.836 401.881Z" fill="white"/>
<path d="M620.019 212.285C620.307 212.413 620.534 212.647 620.653 212.939C620.772 213.231 620.774 213.557 620.657 213.85C620.541 214.143 620.316 214.379 620.029 214.51C619.742 214.64 619.416 214.655 619.119 214.55C618.831 214.422 618.603 214.188 618.484 213.896C618.365 213.604 618.364 213.278 618.48 212.985C618.596 212.692 618.822 212.455 619.109 212.325C619.395 212.195 619.722 212.18 620.019 212.285Z" fill="white"/>
<path d="M627.888 219.661C628.337 219.839 628.723 220.146 628.997 220.543C629.271 220.94 629.421 221.41 629.428 221.892C629.435 222.375 629.299 222.849 629.037 223.254C628.775 223.659 628.398 223.977 627.955 224.168C627.512 224.359 627.022 224.415 626.547 224.327C626.073 224.24 625.635 224.014 625.289 223.677C624.943 223.341 624.704 222.909 624.604 222.437C624.503 221.965 624.545 221.474 624.723 221.026C624.84 220.727 625.015 220.455 625.238 220.224C625.46 219.994 625.727 219.81 626.021 219.683C626.315 219.556 626.632 219.489 626.953 219.485C627.273 219.481 627.591 219.541 627.888 219.661Z" fill="white"/>
<path d="M448.354 131.077C448.509 131.132 448.652 131.217 448.773 131.328C448.894 131.439 448.991 131.573 449.059 131.723C449.127 131.872 449.164 132.034 449.168 132.198C449.172 132.362 449.143 132.525 449.083 132.678C449.022 132.831 448.931 132.969 448.815 133.086C448.7 133.203 448.562 133.295 448.41 133.357C448.258 133.419 448.095 133.449 447.931 133.447C447.766 133.444 447.604 133.409 447.454 133.342C447.166 133.214 446.939 132.98 446.82 132.688C446.701 132.396 446.699 132.07 446.816 131.777C446.932 131.484 447.157 131.248 447.444 131.117C447.731 130.987 448.057 130.972 448.354 131.077Z" fill="white"/>
<path d="M456.151 138.453C456.602 138.628 456.99 138.932 457.267 139.328C457.545 139.723 457.698 140.192 457.709 140.675C457.719 141.158 457.586 141.633 457.326 142.04C457.066 142.448 456.691 142.768 456.248 142.962C455.806 143.156 455.316 143.214 454.84 143.129C454.365 143.044 453.925 142.819 453.577 142.484C453.229 142.149 452.989 141.718 452.886 141.246C452.784 140.774 452.823 140.282 453.001 139.832C453.237 139.233 453.701 138.751 454.292 138.493C454.882 138.235 455.551 138.22 456.151 138.453Z" fill="white"/>
<path d="M574.369 118.648C574.82 118.823 575.208 119.127 575.486 119.523C575.763 119.919 575.916 120.388 575.927 120.871C575.937 121.354 575.804 121.829 575.544 122.236C575.284 122.643 574.909 122.964 574.466 123.157C574.024 123.351 573.534 123.409 573.058 123.324C572.583 123.239 572.143 123.014 571.795 122.679C571.447 122.344 571.207 121.913 571.104 121.441C571.002 120.969 571.041 120.477 571.219 120.028C571.455 119.428 571.919 118.947 572.51 118.688C573.1 118.43 573.769 118.416 574.369 118.648Z" fill="white"/>
<path d="M108.815 69.6016C109.026 69.6811 109.208 69.8215 109.338 70.0048C109.468 70.1881 109.541 70.406 109.547 70.6309C109.553 70.8557 109.492 71.0772 109.372 71.2672C109.251 71.4572 109.077 71.607 108.871 71.6976C108.665 71.7882 108.437 71.8154 108.216 71.7758C107.994 71.7362 107.79 71.6316 107.628 71.4753C107.466 71.319 107.355 71.1181 107.308 70.8982C107.26 70.6782 107.28 70.4493 107.363 70.2404C107.474 69.965 107.687 69.7438 107.959 69.6243C108.23 69.5049 108.538 69.4967 108.815 69.6016Z" fill="white"/>
<path d="M116.061 76.4548C116.481 76.6138 116.845 76.8945 117.106 77.2611C117.367 77.6277 117.512 78.0637 117.524 78.5133C117.536 78.963 117.414 79.406 117.173 79.786C116.932 80.1659 116.584 80.4656 116.172 80.6467C115.76 80.8279 115.304 80.8824 114.861 80.8032C114.418 80.724 114.009 80.5148 113.686 80.2022C113.362 79.8896 113.139 79.4878 113.045 79.0479C112.951 78.6081 112.99 78.1501 113.157 77.7325C113.377 77.1816 113.805 76.7392 114.348 76.5003C114.891 76.2614 115.506 76.245 116.061 76.4548Z" fill="white"/>
<path d="M163.961 268.592C163.961 268.816 163.894 269.035 163.77 269.221C163.645 269.407 163.468 269.552 163.261 269.638C163.055 269.724 162.827 269.746 162.607 269.702C162.387 269.659 162.186 269.551 162.027 269.392C161.869 269.234 161.761 269.032 161.717 268.813C161.674 268.593 161.696 268.365 161.782 268.158C161.867 267.951 162.013 267.774 162.199 267.65C162.385 267.526 162.604 267.459 162.828 267.459C163.128 267.459 163.416 267.578 163.629 267.791C163.841 268.003 163.961 268.291 163.961 268.592Z" fill="white"/>
<path d="M169.1 266.036C170.351 266.036 171.366 265.022 171.366 263.771C171.366 262.52 170.351 261.506 169.1 261.506C167.85 261.506 166.835 262.52 166.835 263.771C166.835 265.022 167.85 266.036 169.1 266.036Z" fill="white"/>
<g opacity="0.5">
<path d="M461.233 224.104C461.236 224.613 461.088 225.112 460.806 225.537C460.525 225.962 460.124 226.294 459.654 226.49C459.183 226.686 458.666 226.738 458.166 226.64C457.666 226.541 457.207 226.296 456.846 225.936C456.486 225.575 456.241 225.116 456.142 224.616C456.043 224.116 456.096 223.598 456.292 223.128C456.488 222.658 456.82 222.257 457.245 221.975C457.67 221.694 458.168 221.546 458.678 221.548C459.356 221.548 460.006 221.818 460.485 222.297C460.964 222.776 461.233 223.426 461.233 224.104Z" fill="white"/>
<path d="M453.654 231.102C453.654 231.404 453.565 231.699 453.397 231.949C453.23 232.2 452.992 232.395 452.713 232.511C452.435 232.626 452.128 232.656 451.832 232.597C451.537 232.539 451.265 232.393 451.052 232.18C450.839 231.967 450.693 231.695 450.635 231.4C450.576 231.104 450.606 230.797 450.721 230.519C450.837 230.24 451.032 230.002 451.283 229.835C451.533 229.667 451.828 229.578 452.13 229.578C452.333 229.567 452.536 229.6 452.725 229.672C452.915 229.745 453.087 229.857 453.231 230.001C453.375 230.145 453.487 230.317 453.56 230.507C453.632 230.696 453.665 230.899 453.654 231.102Z" fill="white"/>
<path d="M449.298 221.548C449.298 221.792 449.226 222.031 449.09 222.234C448.955 222.437 448.762 222.595 448.537 222.689C448.311 222.782 448.063 222.806 447.823 222.759C447.584 222.711 447.364 222.594 447.192 222.421C447.019 222.248 446.901 222.029 446.854 221.789C446.806 221.55 446.831 221.302 446.924 221.076C447.017 220.851 447.176 220.658 447.379 220.522C447.582 220.387 447.82 220.314 448.064 220.314C448.392 220.314 448.705 220.444 448.937 220.676C449.168 220.907 449.298 221.221 449.298 221.548Z" fill="white"/>
</g>
<g opacity="0.5">
<path d="M403.765 67.3075C403.765 67.8129 403.615 68.307 403.334 68.7272C403.053 69.1474 402.654 69.475 402.187 69.6684C401.72 69.8618 401.207 69.9124 400.711 69.8138C400.215 69.7152 399.76 69.4718 399.403 69.1144C399.045 68.7571 398.802 68.3017 398.703 67.806C398.605 67.3103 398.655 66.7965 398.849 66.3296C399.042 65.8626 399.37 65.4635 399.79 65.1827C400.21 64.9019 400.704 64.752 401.21 64.752C401.887 64.752 402.537 65.0213 403.016 65.5005C403.496 65.9798 403.765 66.6297 403.765 67.3075Z" fill="white"/>
<path d="M396.113 74.3059C396.128 74.6101 396.051 74.9117 395.892 75.1717C395.734 75.4318 395.501 75.6385 395.224 75.7651C394.947 75.8917 394.639 75.9324 394.338 75.882C394.038 75.8317 393.76 75.6925 393.539 75.4825C393.319 75.2724 393.166 75.0012 393.101 74.7036C393.036 74.4061 393.062 74.0959 393.175 73.8131C393.288 73.5302 393.483 73.2877 393.735 73.1168C393.987 72.9458 394.284 72.8543 394.589 72.8539C394.785 72.8441 394.982 72.8743 395.167 72.9429C395.351 73.0114 395.52 73.1168 395.663 73.2527C395.805 73.3885 395.919 73.5519 395.996 73.7329C396.074 73.914 396.114 74.1089 396.113 74.3059Z" fill="white"/>
<path d="M391.786 64.752C391.786 64.9961 391.714 65.2347 391.578 65.4377C391.443 65.6407 391.25 65.7988 391.025 65.8923C390.799 65.9857 390.551 66.0101 390.312 65.9625C390.072 65.9149 389.852 65.7973 389.68 65.6247C389.507 65.4521 389.389 65.2322 389.342 64.9928C389.294 64.7534 389.319 64.5053 389.412 64.2798C389.505 64.0542 389.664 63.8615 389.867 63.7259C390.07 63.5903 390.308 63.5179 390.552 63.5179C390.88 63.5179 391.194 63.6479 391.425 63.8794C391.656 64.1108 391.786 64.4247 391.786 64.752Z" fill="white"/>
</g>
<g opacity="0.5">
<path d="M81.2429 125.531C81.551 125.93 81.7339 126.412 81.7686 126.915C81.8034 127.419 81.6883 127.921 81.438 128.359C81.1877 128.797 80.8134 129.151 80.3621 129.377C79.9109 129.603 79.4029 129.69 78.9023 129.627C78.4017 129.564 77.9308 129.355 77.5489 129.025C77.1671 128.695 76.8915 128.26 76.7567 127.774C76.6219 127.288 76.6341 126.773 76.7916 126.293C76.9492 125.814 77.2451 125.392 77.642 125.081C77.9075 124.872 78.2115 124.719 78.5366 124.629C78.8617 124.539 79.2015 124.514 79.5362 124.556C79.871 124.597 80.1941 124.705 80.4871 124.872C80.78 125.04 81.0369 125.264 81.2429 125.531Z" fill="white"/>
<path d="M79.486 135.694C79.7344 136.014 79.8456 136.419 79.7952 136.821C79.7449 137.222 79.537 137.588 79.2174 137.836C78.8978 138.084 78.4926 138.196 78.0909 138.145C77.6893 138.095 77.3241 137.887 77.0757 137.567C76.9528 137.409 76.8622 137.228 76.8091 137.035C76.756 136.842 76.7416 136.64 76.7665 136.441C76.7914 136.242 76.8553 136.05 76.9545 135.876C77.0536 135.702 77.1861 135.549 77.3443 135.426C77.5026 135.303 77.6835 135.212 77.8768 135.159C78.0701 135.106 78.2719 135.092 78.4708 135.117C78.6697 135.141 78.8617 135.205 79.0359 135.305C79.21 135.404 79.363 135.536 79.486 135.694Z" fill="white"/>
<path d="M70.208 130.787C70.3563 130.98 70.4442 131.213 70.4606 131.455C70.477 131.698 70.4212 131.941 70.3003 132.152C70.1793 132.363 69.9985 132.534 69.7807 132.643C69.5629 132.752 69.3178 132.793 69.0762 132.763C68.8346 132.733 68.6074 132.632 68.423 132.473C68.2387 132.314 68.1055 132.104 68.0403 131.869C67.975 131.635 67.9806 131.386 68.0563 131.155C68.132 130.923 68.2744 130.72 68.4657 130.569C68.7263 130.369 69.0554 130.279 69.3816 130.32C69.7078 130.361 70.0048 130.528 70.208 130.787Z" fill="white"/>
</g>
<g opacity="0.5">
<path d="M246.882 425.461C247.171 425.631 247.423 425.857 247.624 426.126C247.826 426.394 247.972 426.7 248.054 427.026C248.136 427.351 248.153 427.689 248.104 428.021C248.055 428.353 247.941 428.672 247.768 428.96C247.509 429.394 247.128 429.743 246.671 429.96C246.215 430.178 245.704 430.256 245.204 430.183C244.703 430.11 244.236 429.891 243.86 429.552C243.484 429.214 243.218 428.771 243.093 428.281C242.969 427.791 242.994 427.275 243.163 426.798C243.332 426.322 243.639 425.906 244.045 425.604C244.45 425.302 244.936 425.127 245.441 425.102C245.946 425.076 246.448 425.201 246.882 425.461Z" fill="white"/>
<path d="M248.929 435.61C249.277 435.818 249.529 436.155 249.628 436.549C249.728 436.942 249.667 437.359 249.459 437.708C249.251 438.056 248.913 438.308 248.52 438.407C248.126 438.507 247.709 438.446 247.361 438.238C247.188 438.135 247.038 437.999 246.918 437.838C246.798 437.676 246.711 437.493 246.661 437.298C246.612 437.104 246.602 436.901 246.631 436.702C246.66 436.503 246.728 436.312 246.831 436.14C246.934 435.967 247.07 435.816 247.231 435.696C247.392 435.576 247.575 435.489 247.77 435.44C247.965 435.391 248.168 435.381 248.366 435.41C248.565 435.439 248.756 435.507 248.929 435.61Z" fill="white"/>
<path d="M238.548 434.434C238.826 434.605 239.027 434.879 239.105 435.197C239.184 435.515 239.135 435.851 238.969 436.132C238.842 436.341 238.657 436.507 238.436 436.61C238.215 436.714 237.969 436.749 237.728 436.712C237.487 436.676 237.262 436.568 237.082 436.404C236.902 436.24 236.774 436.026 236.715 435.789C236.657 435.553 236.67 435.304 236.752 435.074C236.835 434.845 236.983 434.645 237.179 434.5C237.375 434.355 237.61 434.272 237.853 434.26C238.097 434.248 238.338 434.308 238.548 434.434Z" fill="white"/>
</g>
<path d="M525.279 171.63C525.279 172.113 525.136 172.584 524.868 172.985C524.6 173.387 524.219 173.699 523.773 173.884C523.327 174.068 522.837 174.117 522.364 174.023C521.891 173.929 521.456 173.696 521.115 173.355C520.774 173.014 520.541 172.579 520.447 172.106C520.353 171.633 520.401 171.142 520.586 170.697C520.771 170.251 521.083 169.87 521.484 169.602C521.886 169.334 522.357 169.191 522.84 169.191C523.485 169.195 524.104 169.453 524.56 169.91C525.017 170.366 525.275 170.984 525.279 171.63Z" fill="white"/>
<path d="M560.14 198.274L555.363 199.929L554.013 204.807C553.984 204.911 553.927 205.004 553.849 205.077C553.77 205.15 553.673 205.2 553.567 205.221C553.462 205.242 553.353 205.234 553.252 205.197C553.151 205.159 553.063 205.095 552.997 205.011L549.948 200.974L544.895 201.192C544.787 201.199 544.68 201.175 544.585 201.123C544.491 201.072 544.413 200.994 544.361 200.899C544.309 200.805 544.285 200.697 544.292 200.59C544.3 200.482 544.337 200.379 544.401 200.292L547.305 196.139L545.534 191.406C545.497 191.305 545.489 191.195 545.511 191.09C545.532 190.985 545.583 190.887 545.657 190.809C545.731 190.731 545.825 190.675 545.929 190.647C546.032 190.619 546.142 190.62 546.245 190.651L551.08 192.103L555.029 188.937C555.115 188.873 555.216 188.834 555.322 188.824C555.428 188.814 555.535 188.833 555.631 188.879C555.727 188.926 555.809 188.998 555.866 189.087C555.924 189.177 555.956 189.281 555.959 189.388L556.06 194.44L560.285 197.228C560.385 197.284 560.466 197.368 560.516 197.47C560.567 197.572 560.586 197.687 560.57 197.8C560.555 197.913 560.505 198.019 560.428 198.104C560.352 198.188 560.251 198.247 560.14 198.274Z" fill="white"/>
<path d="M480.225 62.7919L475.433 64.4471L474.083 69.3257C474.053 69.4281 473.994 69.5201 473.915 69.5916C473.835 69.663 473.738 69.7112 473.633 69.7307C473.528 69.7502 473.419 69.7403 473.319 69.7022C473.219 69.664 473.132 69.5991 473.067 69.5144L470.018 65.478L464.965 65.7103C464.859 65.7119 464.755 65.6847 464.664 65.6315C464.573 65.5784 464.498 65.5014 464.447 65.4089C464.396 65.3163 464.372 65.2116 464.376 65.1061C464.38 65.0006 464.413 64.8983 464.471 64.8101L467.375 60.6575L465.604 55.9242C465.567 55.8231 465.559 55.7137 465.581 55.6084C465.603 55.5031 465.653 55.4058 465.727 55.3275C465.801 55.2492 465.895 55.193 465.999 55.165C466.103 55.137 466.212 55.1385 466.315 55.1692L471.15 56.6211L475.1 53.4704C475.184 53.4029 475.285 53.3601 475.392 53.347C475.499 53.3339 475.608 53.351 475.706 53.3962C475.804 53.4414 475.888 53.5131 475.947 53.6031C476.007 53.6932 476.04 53.798 476.043 53.906L476.13 58.9588L480.356 61.7465C480.449 61.8052 480.525 61.8895 480.572 61.9895C480.62 62.0895 480.638 62.201 480.624 62.3109C480.61 62.4208 480.565 62.5244 480.495 62.6096C480.424 62.6949 480.33 62.7581 480.225 62.7919Z" fill="white"/>
<path d="M196.513 48.1127L191.736 49.7679L190.386 54.6464C190.356 54.7489 190.297 54.8409 190.218 54.9123C190.138 54.9838 190.041 55.0319 189.936 55.0514C189.831 55.071 189.722 55.0611 189.622 55.0229C189.522 54.9848 189.435 54.9198 189.37 54.8352L186.321 50.7988L181.268 51.0311C181.16 51.0382 181.053 51.0144 180.958 50.9625C180.864 50.9107 180.786 50.8329 180.734 50.7383C180.682 50.6438 180.658 50.5364 180.666 50.4288C180.673 50.3211 180.71 50.2178 180.774 50.1309L183.678 45.9783L181.878 41.3175C181.841 41.2164 181.833 41.1071 181.855 41.0018C181.876 40.8964 181.927 40.7992 182.001 40.7209C182.075 40.6426 182.169 40.5863 182.273 40.5584C182.376 40.5304 182.486 40.5318 182.589 40.5625L187.424 42.0145L191.388 38.8637C191.472 38.8003 191.572 38.761 191.677 38.7501C191.782 38.7393 191.888 38.7572 191.984 38.8019C192.079 38.8467 192.161 38.9167 192.219 39.0043C192.278 39.0919 192.312 39.1939 192.317 39.2993L192.419 44.3521L196.659 47.1253C196.737 47.1888 196.797 47.2715 196.833 47.3653C196.87 47.4591 196.881 47.5607 196.866 47.6602C196.852 47.7598 196.812 47.8538 196.75 47.9331C196.688 48.0124 196.606 48.0743 196.513 48.1127Z" fill="white"/>
<path d="M196.02 196.531C197.271 196.531 198.285 195.517 198.285 194.266C198.285 193.015 197.271 192.001 196.02 192.001C194.769 192.001 193.755 193.015 193.755 194.266C193.755 195.517 194.769 196.531 196.02 196.531Z" fill="white"/>
<path d="M179.235 166.563L177.304 171.238L180.063 175.478C180.124 175.567 180.159 175.672 180.163 175.78C180.167 175.888 180.14 175.995 180.085 176.088C180.03 176.181 179.949 176.257 179.853 176.306C179.756 176.354 179.648 176.374 179.54 176.364L174.502 175.986L171.322 179.921C171.254 180.005 171.163 180.069 171.06 180.104C170.958 180.139 170.847 180.145 170.742 180.121C170.636 180.097 170.539 180.044 170.462 179.967C170.385 179.891 170.331 179.794 170.306 179.689L169.115 174.766L164.396 172.966C164.296 172.927 164.209 172.861 164.144 172.776C164.079 172.69 164.039 172.589 164.029 172.482C164.018 172.375 164.038 172.267 164.085 172.171C164.131 172.074 164.204 171.993 164.295 171.935L168.65 169.293L168.912 164.24C168.915 164.132 168.948 164.027 169.009 163.937C169.07 163.848 169.155 163.778 169.254 163.735C169.353 163.692 169.462 163.679 169.569 163.696C169.676 163.714 169.775 163.761 169.856 163.833L173.703 167.1L178.596 165.793C178.697 165.772 178.801 165.779 178.898 165.813C178.995 165.847 179.081 165.907 179.147 165.986C179.213 166.065 179.256 166.161 179.271 166.262C179.287 166.364 179.274 166.468 179.235 166.563Z" fill="white"/>
<path d="M133.789 342.206L129.578 345.022V350.075C129.576 350.182 129.544 350.286 129.486 350.375C129.428 350.465 129.347 350.537 129.251 350.583C129.155 350.63 129.048 350.649 128.942 350.639C128.836 350.629 128.734 350.589 128.649 350.525L124.671 347.404L119.836 348.856C119.733 348.886 119.623 348.888 119.519 348.86C119.415 348.832 119.321 348.775 119.248 348.697C119.174 348.619 119.123 348.522 119.101 348.416C119.08 348.311 119.088 348.202 119.124 348.101L120.881 343.353L117.977 339.229C117.913 339.142 117.876 339.039 117.869 338.931C117.862 338.824 117.885 338.716 117.937 338.622C117.989 338.527 118.067 338.449 118.161 338.397C118.256 338.346 118.363 338.322 118.471 338.329L123.524 338.518L126.544 334.467C126.606 334.377 126.693 334.307 126.794 334.265C126.895 334.223 127.006 334.212 127.113 334.232C127.221 334.252 127.32 334.302 127.399 334.377C127.479 334.453 127.534 334.549 127.56 334.655L129.012 339.519L133.804 341.146C133.911 341.188 134.003 341.261 134.067 341.357C134.131 341.453 134.165 341.565 134.163 341.681C134.162 341.796 134.125 341.908 134.058 342.002C133.991 342.095 133.897 342.167 133.789 342.206Z" fill="white"/>
<path d="M503.195 258.922C503.195 257.712 503.675 256.553 504.53 255.698C505.385 254.843 506.545 254.362 507.754 254.362C508.963 254.362 510.123 254.843 510.978 255.698C511.833 256.553 512.313 257.712 512.313 258.922C512.313 261.448 510.28 352.282 507.754 352.282C505.228 352.282 503.195 261.448 503.195 258.922Z" fill="#FFAA17"/>
<path d="M504.56 258.922C504.56 258.29 504.747 257.672 505.098 257.147C505.449 256.622 505.948 256.212 506.531 255.97C507.115 255.729 507.757 255.665 508.377 255.789C508.997 255.912 509.566 256.216 510.013 256.663C510.459 257.11 510.764 257.679 510.887 258.298C511.01 258.918 510.947 259.56 510.705 260.144C510.463 260.728 510.054 261.227 509.529 261.578C509.003 261.929 508.386 262.116 507.754 262.116C506.908 262.112 506.098 261.774 505.499 261.176C504.901 260.578 504.563 259.768 504.56 258.922Z" fill="#FFAA17"/>
<path d="M505.707 258.922C505.707 258.517 505.827 258.121 506.052 257.784C506.276 257.448 506.596 257.185 506.97 257.03C507.344 256.875 507.756 256.835 508.153 256.914C508.55 256.993 508.915 257.188 509.201 257.474C509.488 257.76 509.683 258.125 509.762 258.522C509.841 258.919 509.8 259.331 509.645 259.705C509.49 260.079 509.228 260.399 508.891 260.624C508.555 260.849 508.159 260.969 507.754 260.969C507.211 260.969 506.69 260.753 506.306 260.369C505.922 259.985 505.707 259.465 505.707 258.922Z" fill="white"/>
<path d="M199.562 350.293C199.562 349.65 199.818 349.033 200.273 348.578C200.727 348.124 201.344 347.868 201.987 347.868C202.63 347.868 203.247 348.124 203.702 348.578C204.157 349.033 204.412 349.65 204.412 350.293C204.412 351.629 203.338 400.051 201.987 400.051C200.637 400.051 199.562 351.629 199.562 350.293Z" fill="#FFAA17"/>
<path d="M201.915 351.992C202.853 351.992 203.613 351.231 203.613 350.293C203.613 349.355 202.853 348.594 201.915 348.594C200.976 348.594 200.216 349.355 200.216 350.293C200.216 351.231 200.976 351.992 201.915 351.992Z" fill="#FFAA17"/>
<path d="M200.826 350.293C200.826 350.078 200.89 349.867 201.009 349.688C201.129 349.509 201.299 349.369 201.498 349.287C201.697 349.204 201.916 349.183 202.127 349.225C202.338 349.267 202.532 349.371 202.685 349.523C202.837 349.675 202.941 349.869 202.983 350.081C203.025 350.292 203.003 350.511 202.921 350.71C202.838 350.909 202.699 351.079 202.52 351.198C202.341 351.318 202.13 351.382 201.915 351.382C201.626 351.382 201.349 351.267 201.145 351.063C200.94 350.859 200.826 350.582 200.826 350.293Z" fill="white"/>
<path d="M235.382 161.147C235.437 160.343 235.794 159.589 236.383 159.039C236.972 158.488 237.748 158.182 238.555 158.182C239.361 158.182 240.137 158.488 240.726 159.039C241.315 159.589 241.673 160.343 241.727 161.147C241.727 162.904 240.275 226.035 238.547 226.035C236.82 226.035 235.382 162.904 235.382 161.147Z" fill="#FFAA17"/>
<path d="M236.341 161.147C236.341 160.707 236.471 160.277 236.716 159.911C236.961 159.546 237.309 159.261 237.715 159.093C238.122 158.926 238.57 158.883 239.001 158.969C239.432 159.056 239.828 159.269 240.138 159.582C240.448 159.894 240.659 160.291 240.743 160.723C240.827 161.155 240.781 161.602 240.61 162.007C240.44 162.413 240.153 162.759 239.786 163.001C239.418 163.244 238.988 163.371 238.548 163.369C237.961 163.365 237.4 163.129 236.986 162.713C236.573 162.297 236.341 161.734 236.341 161.147Z" fill="#FFAA17"/>
<path d="M238.547 162.57C239.333 162.57 239.97 161.933 239.97 161.147C239.97 160.361 239.333 159.724 238.547 159.724C237.762 159.724 237.125 160.361 237.125 161.147C237.125 161.933 237.762 162.57 238.547 162.57Z" fill="white"/>
</svg>
