<svg width="426" height="522" viewBox="0 0 426 522" fill="none" xmlns="http://www.w3.org/2000/svg">
<path d="M212.993 505.916C263.184 505.916 303.871 489.235 303.871 468.659C303.871 448.082 263.184 431.402 212.993 431.402C162.803 431.402 122.116 448.082 122.116 468.659C122.116 489.235 162.803 505.916 212.993 505.916Z" fill="#FFAA17"/>
<path d="M212.993 505.916C263.184 505.916 303.871 489.235 303.871 468.659C303.871 448.082 263.184 431.402 212.993 431.402C162.803 431.402 122.116 448.082 122.116 468.659C122.116 489.235 162.803 505.916 212.993 505.916Z" fill="#FFAA17"/>
<path opacity="0.9" d="M212.993 505.916C263.184 505.916 303.871 489.235 303.871 468.659C303.871 448.082 263.184 431.402 212.993 431.402C162.803 431.402 122.116 448.082 122.116 468.659C122.116 489.235 162.803 505.916 212.993 505.916Z" fill="white"/>
<path d="M120.446 449.406C120.728 438.888 125.105 428.896 132.644 421.556C140.183 414.217 150.289 410.11 160.81 410.11C171.332 410.11 181.438 414.217 188.977 421.556C196.516 428.896 200.892 438.888 201.175 449.406C201.175 449.798 201.175 450.147 201.175 450.539C201.175 450.931 201.175 451.279 201.175 451.657C200.71 457.247 196.819 462.735 189.356 467.033C173.602 476.136 148.004 476.136 132.221 467.033C124.845 462.677 120.896 457.247 120.446 451.657C120.446 451.279 120.446 450.931 120.446 450.539C120.446 450.147 120.417 449.798 120.446 449.406Z" fill="#FFAA17"/>
<path opacity="0.8" d="M120.446 449.406C120.728 438.888 125.105 428.896 132.644 421.556C140.183 414.217 150.289 410.11 160.81 410.11C171.332 410.11 181.438 414.217 188.977 421.556C196.516 428.896 200.892 438.888 201.175 449.406C201.175 449.798 201.175 450.147 201.175 450.539C201.175 450.931 201.175 451.279 201.175 451.657C200.71 457.247 196.819 462.735 189.356 467.033C173.602 476.136 148.004 476.136 132.221 467.033C124.845 462.677 120.896 457.247 120.446 451.657C120.446 451.279 120.446 450.931 120.446 450.539C120.446 450.147 120.417 449.798 120.446 449.406Z" fill="white"/>
<g style="mix-blend-mode:lighten" opacity="0.3">
<path d="M143.256 414.167C149.324 411.235 156.03 409.87 162.761 410.196C169.492 410.521 176.035 412.528 181.791 416.032C187.548 419.536 192.335 424.426 195.716 430.256C199.096 436.086 200.963 442.669 201.146 449.406C201.146 449.798 201.146 450.147 201.146 450.539C201.146 450.931 201.146 451.279 201.146 451.657C200.681 457.247 196.79 462.735 189.327 467.033C183.061 470.461 176.176 472.608 169.072 473.349C179.541 471.534 186.321 459.846 183.098 446.938C179.395 431.954 164.252 410.305 143.256 414.167Z" fill="white"/>
</g>
<path opacity="0.1" d="M120.446 451.657C120.446 451.279 120.446 450.931 120.446 450.539C120.446 450.147 120.446 449.798 120.446 449.406C120.594 443.861 121.888 438.407 124.247 433.387C126.606 428.367 129.979 423.889 134.152 420.236C129.797 424.752 120.01 441.74 130.61 454.706C137.579 463.229 170.684 475.381 197.922 459.758C195.578 462.724 192.666 465.193 189.356 467.018C173.602 476.122 148.004 476.122 132.221 467.018C124.845 462.735 120.896 457.247 120.446 451.657Z" fill="#FFAA17"/>
<g style="mix-blend-mode:lighten" opacity="0.5">
<path d="M161.217 419.249C159.416 423.358 162.887 428.861 168.97 431.532C175.054 434.204 181.472 432.984 183.272 428.934C185.072 424.883 181.602 419.307 175.519 416.635C169.435 413.964 163.032 415.125 161.217 419.249Z" fill="white"/>
</g>
<g style="mix-blend-mode:lighten" opacity="0.5">
<path d="M184.608 435.99C183.664 438.139 185.029 440.81 187.657 441.972C190.285 443.134 193.174 442.32 194.118 440.172C195.062 438.023 193.697 435.351 191.069 434.204C188.441 433.057 185.552 433.914 184.608 435.99Z" fill="white"/>
</g>
<path d="M286.622 458.132C286.438 449.165 282.745 440.626 276.338 434.35C269.931 428.073 261.318 424.557 252.349 424.557C243.379 424.557 234.767 428.073 228.359 434.35C221.952 440.626 218.26 449.165 218.075 458.132C218.075 458.466 218.075 458.771 218.075 459.091C218.075 459.41 218.075 459.715 218.075 460.049C218.453 464.797 221.807 469.457 228.108 473.116C241.481 480.841 263.217 480.841 276.618 473.116C282.891 469.472 286.23 464.811 286.622 460.049C286.622 459.715 286.622 459.424 286.622 459.091C286.622 458.757 286.651 458.466 286.622 458.132Z" fill="#FFAA17"/>
<path opacity="0.8" d="M286.622 458.132C286.438 449.165 282.745 440.626 276.338 434.35C269.931 428.073 261.318 424.557 252.349 424.557C243.379 424.557 234.767 428.073 228.359 434.35C221.952 440.626 218.26 449.165 218.075 458.132C218.075 458.466 218.075 458.771 218.075 459.091C218.075 459.41 218.075 459.715 218.075 460.049C218.453 464.797 221.807 469.457 228.108 473.116C241.481 480.841 263.217 480.841 276.618 473.116C282.891 469.472 286.23 464.811 286.622 460.049C286.622 459.715 286.622 459.424 286.622 459.091C286.622 458.757 286.651 458.466 286.622 458.132Z" fill="white"/>
<g style="mix-blend-mode:lighten" opacity="0.3">
<path d="M267.224 428.208C262.072 425.713 256.377 424.549 250.66 424.823C244.942 425.098 239.385 426.801 234.496 429.778C229.607 432.755 225.542 436.91 222.674 441.863C219.805 446.817 218.224 452.41 218.075 458.132C218.075 458.466 218.075 458.771 218.075 459.091C218.075 459.41 218.075 459.715 218.075 460.049C218.453 464.797 221.807 469.458 228.108 473.116C233.426 476.027 239.27 477.849 245.3 478.474C236.414 476.95 230.649 467.018 233.394 456.041C236.559 443.308 249.423 424.926 267.224 428.208Z" fill="white"/>
</g>
<path opacity="0.1" d="M286.622 460.049C286.622 459.715 286.622 459.424 286.622 459.09C286.622 458.757 286.622 458.466 286.622 458.132C286.502 453.425 285.408 448.794 283.409 444.53C281.41 440.267 278.549 436.464 275.006 433.362C278.723 437.195 287.014 451.627 278.012 462.633C272.088 469.893 243.978 480.202 220.834 466.989C222.82 469.508 225.288 471.606 228.094 473.16C241.466 480.884 263.202 480.884 276.603 473.16C282.89 469.457 286.23 464.797 286.622 460.049Z" fill="#FFAA17"/>
<g style="mix-blend-mode:lighten" opacity="0.5">
<path d="M251.993 432.462C253.532 435.961 250.541 440.636 245.416 442.901C240.29 445.166 234.802 444.179 233.263 440.68C231.724 437.181 234.715 432.52 239.855 430.24C244.995 427.961 250.469 429.021 251.993 432.462Z" fill="white"/>
</g>
<g style="mix-blend-mode:lighten" opacity="0.5">
<path d="M232.13 446.749C232.678 447.5 232.979 448.403 232.993 449.332C233.007 450.262 232.733 451.173 232.208 451.941C231.683 452.708 230.934 453.294 230.062 453.618C229.191 453.943 228.24 453.989 227.342 453.751C226.443 453.513 225.64 453.003 225.043 452.29C224.445 451.578 224.084 450.698 224.007 449.771C223.93 448.845 224.143 447.917 224.614 447.116C225.086 446.315 225.794 445.679 226.642 445.297C227.566 444.779 228.656 444.641 229.68 444.912C230.704 445.183 231.583 445.842 232.13 446.749Z" fill="white"/>
</g>
<path d="M321.469 464.013C321.259 458.142 318.779 452.582 314.551 448.503C310.324 444.424 304.678 442.145 298.804 442.145C292.929 442.145 287.284 444.424 283.057 448.503C278.829 452.582 276.349 458.142 276.139 464.013C276.1 464.438 276.1 464.865 276.139 465.29C276.386 468.427 278.607 471.505 282.774 473.915C291.617 479.026 306.006 479.026 314.848 473.915C319.001 471.505 321.207 468.427 321.469 465.29C321.469 465.073 321.469 464.869 321.469 464.652C321.469 464.434 321.483 464.23 321.469 464.013Z" fill="#FFAA17"/>
<path opacity="0.9" d="M321.469 464.013C321.259 458.142 318.779 452.582 314.551 448.503C310.324 444.424 304.678 442.145 298.804 442.145C292.929 442.145 287.284 444.424 283.057 448.503C278.829 452.582 276.349 458.142 276.139 464.013C276.1 464.438 276.1 464.865 276.139 465.29C276.386 468.427 278.607 471.505 282.774 473.915C291.617 479.026 306.006 479.026 314.848 473.915C319.001 471.505 321.207 468.427 321.469 465.29C321.469 465.073 321.469 464.869 321.469 464.652C321.469 464.434 321.483 464.23 321.469 464.013Z" fill="white"/>
<g style="mix-blend-mode:lighten" opacity="0.5">
<path d="M308.648 444.237C305.242 442.589 301.477 441.82 297.697 442.001C293.917 442.182 290.243 443.307 287.01 445.274C283.776 447.241 281.088 449.986 279.189 453.26C277.29 456.533 276.241 460.23 276.139 464.013C276.1 464.438 276.1 464.865 276.139 465.29C276.386 468.427 278.607 471.505 282.774 473.915C286.288 475.847 290.154 477.052 294.143 477.458C288.263 476.441 284.459 469.879 286.274 462.633C288.364 454.241 296.873 442.059 308.648 444.237Z" fill="white"/>
</g>
<path opacity="0.1" d="M321.469 465.29C321.469 465.073 321.469 464.869 321.469 464.652C321.469 464.434 321.469 464.23 321.469 464.013C321.387 460.899 320.661 457.837 319.336 455.018C318.012 452.199 316.118 449.685 313.774 447.635C316.242 450.161 321.716 459.715 315.763 466.989C311.842 471.781 293.257 478.605 278.012 469.893C279.335 471.557 280.973 472.943 282.832 473.973C291.675 479.084 306.064 479.084 314.906 473.973C318.943 471.505 321.208 468.427 321.469 465.29Z" fill="#FFAA17"/>
<g style="mix-blend-mode:lighten" opacity="0.5">
<path d="M298.615 447.083C299.632 449.391 297.686 452.484 294.259 453.98C290.833 455.475 287.246 454.822 286.23 452.528C285.214 450.234 287.159 447.126 290.586 445.631C294.012 444.135 297.555 444.76 298.615 447.083Z" fill="white"/>
</g>
<g style="mix-blend-mode:lighten" opacity="0.5">
<path d="M285.431 456.491C285.575 457.162 285.482 457.862 285.169 458.472C284.856 459.082 284.342 459.566 283.714 459.841C283.085 460.116 282.381 460.165 281.721 459.981C281.06 459.796 280.484 459.39 280.088 458.829C279.935 458.478 279.852 458.101 279.844 457.718C279.837 457.335 279.905 456.954 280.044 456.598C280.184 456.241 280.392 455.915 280.658 455.639C280.923 455.363 281.24 455.142 281.591 454.989C281.942 454.835 282.319 454.752 282.702 454.745C283.085 454.737 283.466 454.805 283.822 454.945C284.179 455.084 284.505 455.293 284.781 455.558C285.057 455.823 285.278 456.141 285.431 456.491Z" fill="white"/>
</g>
<path d="M373.507 467.904C373.332 459.85 370.01 452.185 364.252 446.551C358.494 440.917 350.759 437.762 342.704 437.762C334.648 437.762 326.913 440.917 321.155 446.551C315.397 452.185 312.075 459.85 311.9 467.904C311.886 468.189 311.886 468.475 311.9 468.761C311.886 469.046 311.886 469.332 311.9 469.617C312.249 473.886 315.254 478.068 320.917 481.349C332.939 488.304 352.468 488.304 364.476 481.349C370.109 478.068 373.115 473.886 373.463 469.617C373.478 469.332 373.478 469.046 373.463 468.761C373.492 468.476 373.507 468.19 373.507 467.904Z" fill="#FFAA17"/>
<path opacity="0.7" d="M373.507 467.904C373.332 459.85 370.01 452.185 364.252 446.551C358.494 440.917 350.759 437.762 342.704 437.762C334.648 437.762 326.913 440.917 321.155 446.551C315.397 452.185 312.075 459.85 311.9 467.904C311.886 468.189 311.886 468.475 311.9 468.761C311.886 469.046 311.886 469.332 311.9 469.617C312.249 473.886 315.254 478.068 320.917 481.349C332.939 488.304 352.468 488.304 364.476 481.349C370.109 478.068 373.115 473.886 373.463 469.617C373.478 469.332 373.478 469.046 373.463 468.761C373.492 468.476 373.507 468.19 373.507 467.904Z" fill="white"/>
<g style="mix-blend-mode:lighten" opacity="0.3">
<path d="M356.083 441.014C351.453 438.772 346.335 437.727 341.196 437.973C336.057 438.22 331.063 439.75 326.668 442.425C322.273 445.1 318.619 448.833 316.04 453.284C313.46 457.735 312.037 462.761 311.9 467.904C311.886 468.189 311.886 468.475 311.9 468.761C311.886 469.046 311.886 469.332 311.9 469.617C312.249 473.886 315.254 478.068 320.917 481.349C325.695 483.971 330.946 485.614 336.366 486.184C328.366 484.805 323.197 475.89 325.65 466.031C328.525 454.575 340.083 438.052 356.083 441.014Z" fill="white"/>
</g>
<path opacity="0.1" d="M373.507 469.617C373.522 469.332 373.522 469.046 373.507 468.761C373.521 468.475 373.521 468.189 373.507 467.904C373.395 463.671 372.408 459.507 370.609 455.674C368.81 451.841 366.237 448.422 363.053 445.631C366.392 449.087 373.841 462.053 365.753 471.94C360.425 478.445 335.175 487.723 314.383 475.803C316.165 478.073 318.388 479.959 320.917 481.349C332.939 488.304 352.468 488.304 364.476 481.349C370.153 478.068 373.158 473.886 373.507 469.617Z" fill="#FFAA17"/>
<g style="mix-blend-mode:lighten" opacity="0.5">
<path d="M342.392 444.876C343.844 448.027 341.128 452.223 336.468 454.27C331.807 456.317 326.943 455.417 325.563 452.266C324.184 449.116 326.827 444.934 331.473 442.887C336.119 440.839 341.012 441.74 342.392 444.876Z" fill="white"/>
</g>
<g style="mix-blend-mode:lighten" opacity="0.5">
<path d="M324.547 457.668C324.735 458.577 324.605 459.523 324.179 460.348C323.752 461.173 323.056 461.826 322.205 462.198C321.355 462.571 320.402 462.64 319.507 462.394C318.612 462.148 317.828 461.602 317.287 460.847C317.099 459.938 317.229 458.992 317.656 458.167C318.082 457.343 318.779 456.689 319.629 456.317C320.479 455.944 321.432 455.875 322.327 456.121C323.223 456.367 324.006 456.913 324.547 457.668Z" fill="white"/>
</g>
<path d="M249.873 395.684C249.878 401.025 248.718 406.304 246.473 411.151C244.229 415.999 240.954 420.298 236.878 423.75C234.182 425.972 232.006 428.758 230.501 431.911C228.996 435.064 228.199 438.508 228.166 442.001V501.865C228.166 504.101 226.714 506.352 223.738 508.05C222.003 509.018 220.126 509.704 218.177 510.083C214.776 510.78 211.269 510.78 207.868 510.083C205.929 509.699 204.062 509.013 202.336 508.05C199.432 506.352 197.908 504.101 197.908 501.865V441.827C197.86 438.365 197.056 434.956 195.551 431.838C194.046 428.72 191.877 425.97 189.196 423.779C185.061 420.303 181.745 415.955 179.486 411.048C177.227 406.141 176.081 400.795 176.128 395.393C176.167 385.62 180.086 376.262 187.024 369.379C193.962 362.495 203.351 358.65 213.124 358.688C222.897 358.727 232.255 362.646 239.139 369.584C246.022 376.522 249.868 385.91 249.829 395.684H249.873Z" fill="#FFAA17"/>
<path opacity="0.5" d="M249.873 395.684C249.878 401.025 248.718 406.304 246.473 411.151C244.229 415.999 240.954 420.298 236.878 423.75C234.182 425.972 232.006 428.758 230.501 431.911C228.996 435.064 228.199 438.508 228.166 442.001V501.865C228.166 504.101 226.714 506.352 223.738 508.05C222.003 509.018 220.126 509.704 218.177 510.083C214.776 510.78 211.269 510.78 207.868 510.083C205.929 509.699 204.062 509.013 202.336 508.05C199.432 506.352 197.908 504.101 197.908 501.865V441.827C197.86 438.365 197.056 434.956 195.551 431.838C194.046 428.72 191.877 425.97 189.196 423.779C185.061 420.303 181.745 415.955 179.486 411.048C177.227 406.141 176.081 400.795 176.128 395.393C176.167 385.62 180.086 376.262 187.024 369.379C193.962 362.495 203.351 358.65 213.124 358.688C222.897 358.727 232.255 362.646 239.139 369.584C246.022 376.522 249.868 385.91 249.829 395.684H249.873Z" fill="white"/>
<path d="M233.582 395.684C233.575 398.968 232.78 402.202 231.264 405.115C229.748 408.028 227.556 410.534 224.871 412.425C222.74 414.004 221.016 416.069 219.842 418.448C218.668 420.826 218.077 423.45 218.119 426.102V494.765C218.135 496.138 217.608 497.461 216.654 498.448C215.7 499.434 214.395 500.005 213.023 500.036H212.95C211.575 500.009 210.267 499.44 209.309 498.453C208.352 497.465 207.824 496.14 207.839 494.765V425.826C207.862 423.216 207.263 420.637 206.092 418.304C204.92 415.971 203.21 413.951 201.102 412.41C198.336 410.467 196.093 407.87 194.573 404.851C193.053 401.831 192.303 398.482 192.39 395.103C192.467 389.65 194.707 384.451 198.618 380.65C202.528 376.849 207.788 374.757 213.24 374.834C218.693 374.911 223.892 377.151 227.693 381.061C231.494 384.971 233.587 390.231 233.51 395.684H233.582Z" fill="#FFAA17"/>
<path opacity="0.7" d="M233.582 395.684C233.575 398.968 232.78 402.202 231.264 405.115C229.748 408.028 227.556 410.534 224.871 412.425C222.74 414.004 221.016 416.069 219.842 418.448C218.668 420.826 218.077 423.45 218.119 426.102V494.765C218.135 496.138 217.608 497.461 216.654 498.448C215.7 499.434 214.395 500.005 213.023 500.036H212.95C211.575 500.009 210.267 499.44 209.309 498.453C208.352 497.465 207.824 496.14 207.839 494.765V425.826C207.862 423.216 207.263 420.637 206.092 418.304C204.92 415.971 203.21 413.951 201.102 412.41C198.336 410.467 196.093 407.87 194.573 404.851C193.053 401.831 192.303 398.482 192.39 395.103C192.467 389.65 194.707 384.451 198.618 380.65C202.528 376.849 207.788 374.757 213.24 374.834C218.693 374.911 223.892 377.151 227.693 381.061C231.494 384.971 233.587 390.231 233.51 395.684H233.582Z" fill="white"/>
<path opacity="0.7" d="M228.399 418.915C233.707 418.915 238.011 414.612 238.011 409.303C238.011 403.995 233.707 399.691 228.399 399.691C223.09 399.691 218.787 403.995 218.787 409.303C218.787 414.612 223.09 418.915 228.399 418.915Z" fill="white"/>
<path opacity="0.7" d="M222.518 390.181C222.518 389.035 222.857 387.915 223.492 386.962C224.127 386.008 225.03 385.264 226.087 384.822C227.144 384.381 228.308 384.262 229.433 384.48C230.557 384.698 231.592 385.244 232.407 386.049C233.222 386.854 233.781 387.882 234.013 389.004C234.246 390.126 234.141 391.291 233.712 392.354C233.284 393.416 232.551 394.328 231.605 394.975C230.66 395.622 229.544 395.974 228.399 395.989C227.63 395.998 226.867 395.855 226.154 395.568C225.441 395.28 224.792 394.854 224.245 394.314C223.698 393.773 223.264 393.13 222.967 392.42C222.671 391.711 222.518 390.95 222.518 390.181Z" fill="white"/>
<path opacity="0.7" d="M211.309 380.816C211.309 380.241 211.48 379.68 211.799 379.202C212.118 378.725 212.571 378.353 213.102 378.133C213.633 377.913 214.216 377.856 214.78 377.968C215.343 378.08 215.86 378.356 216.267 378.762C216.673 379.169 216.949 379.686 217.061 380.249C217.173 380.813 217.116 381.396 216.896 381.927C216.676 382.458 216.304 382.911 215.827 383.23C215.349 383.549 214.788 383.72 214.213 383.72C213.443 383.72 212.704 383.414 212.16 382.869C211.615 382.325 211.309 381.586 211.309 380.816Z" fill="white"/>
<path opacity="0.7" d="M188.078 384.301C188.078 382.738 188.542 381.21 189.41 379.911C190.279 378.612 191.513 377.599 192.957 377.002C194.401 376.404 195.99 376.249 197.523 376.555C199.055 376.861 200.463 377.614 201.567 378.721C202.671 379.827 203.422 381.235 203.725 382.768C204.028 384.302 203.87 385.89 203.27 387.333C202.67 388.776 201.655 390.009 200.354 390.875C199.053 391.741 197.525 392.202 195.962 392.199C194.925 392.199 193.899 391.995 192.942 391.598C191.984 391.201 191.114 390.618 190.382 389.885C189.65 389.151 189.069 388.28 188.674 387.322C188.279 386.364 188.076 385.337 188.078 384.301Z" fill="white"/>
<path opacity="0.7" d="M186.815 398.573C186.815 399.305 187.032 400.021 187.439 400.63C187.846 401.239 188.424 401.714 189.1 401.994C189.777 402.274 190.521 402.347 191.24 402.205C191.958 402.062 192.617 401.709 193.135 401.191C193.653 400.673 194.006 400.014 194.148 399.295C194.291 398.577 194.218 397.833 193.938 397.156C193.658 396.48 193.183 395.902 192.574 395.495C191.965 395.088 191.249 394.871 190.517 394.871C189.535 394.871 188.593 395.261 187.899 395.955C187.205 396.649 186.815 397.591 186.815 398.573Z" fill="white"/>
<path opacity="0.7" d="M195.526 417.536C198.846 417.536 201.538 414.844 201.538 411.525C201.538 408.205 198.846 405.513 195.526 405.513C192.207 405.513 189.515 408.205 189.515 411.525C189.515 414.844 192.207 417.536 195.526 417.536Z" fill="white"/>
<path opacity="0.7" d="M203.861 420.599C203.861 419.62 204.151 418.663 204.695 417.849C205.239 417.034 206.013 416.4 206.917 416.025C207.822 415.65 208.817 415.552 209.778 415.743C210.738 415.934 211.621 416.406 212.313 417.098C213.005 417.791 213.477 418.673 213.668 419.633C213.859 420.594 213.761 421.589 213.386 422.494C213.012 423.399 212.377 424.172 211.563 424.716C210.748 425.26 209.791 425.55 208.812 425.55C207.499 425.55 206.24 425.029 205.311 424.1C204.382 423.172 203.861 421.912 203.861 420.599Z" fill="white"/>
<path opacity="0.7" d="M179.729 390.181C179.726 389.681 179.872 389.191 180.148 388.773C180.424 388.356 180.817 388.03 181.279 387.837C181.74 387.643 182.249 387.591 182.74 387.687C183.231 387.783 183.682 388.022 184.037 388.375C184.392 388.728 184.634 389.178 184.732 389.668C184.831 390.159 184.782 390.667 184.591 391.13C184.4 391.592 184.077 391.988 183.661 392.266C183.245 392.544 182.756 392.693 182.256 392.693C181.588 392.693 180.948 392.429 180.474 391.958C180.001 391.487 179.733 390.848 179.729 390.181Z" fill="white"/>
<path opacity="0.7" d="M234.628 379.741C234.628 379.084 234.823 378.441 235.188 377.894C235.553 377.347 236.073 376.921 236.68 376.669C237.288 376.418 237.956 376.352 238.601 376.48C239.246 376.609 239.839 376.925 240.304 377.39C240.769 377.855 241.085 378.448 241.214 379.093C241.342 379.738 241.276 380.406 241.025 381.014C240.773 381.621 240.347 382.141 239.8 382.506C239.253 382.871 238.61 383.066 237.953 383.066C237.516 383.066 237.084 382.98 236.68 382.813C236.277 382.646 235.91 382.401 235.602 382.092C235.293 381.784 235.048 381.417 234.881 381.014C234.714 380.61 234.628 380.178 234.628 379.741Z" fill="white"/>
<path opacity="0.7" d="M237.938 396.047C237.935 395.382 238.13 394.732 238.497 394.178C238.865 393.624 239.388 393.192 240.002 392.936C240.615 392.681 241.291 392.613 241.943 392.742C242.595 392.871 243.194 393.191 243.664 393.661C244.134 394.131 244.453 394.73 244.582 395.382C244.711 396.033 244.644 396.709 244.388 397.322C244.132 397.936 243.7 398.46 243.146 398.827C242.593 399.194 241.942 399.389 241.278 399.386C240.393 399.382 239.546 399.029 238.92 398.404C238.295 397.778 237.942 396.931 237.938 396.047Z" fill="white"/>
<path opacity="0.7" d="M203.28 398.747C203.28 398.083 203.477 397.434 203.846 396.883C204.216 396.331 204.74 395.901 205.354 395.647C205.968 395.394 206.643 395.328 207.294 395.459C207.945 395.59 208.542 395.91 209.011 396.381C209.479 396.851 209.798 397.45 209.925 398.102C210.053 398.754 209.985 399.428 209.729 400.041C209.473 400.654 209.04 401.176 208.487 401.543C207.933 401.91 207.284 402.104 206.62 402.101C206.18 402.101 205.744 402.015 205.338 401.846C204.932 401.677 204.563 401.43 204.253 401.118C203.943 400.807 203.697 400.437 203.53 400.03C203.363 399.623 203.278 399.187 203.28 398.747Z" fill="white"/>
<path d="M256.508 33.1749C256.101 33.1651 255.7 33.2818 255.361 33.5089C253.786 35.2827 252.331 37.1599 251.006 39.1279C247.869 43.8613 241.321 53.1973 239.012 63.0706C238.759 64.175 238.642 65.3063 238.664 66.4392C234.671 136.264 237.444 186.864 238.533 265.603C238.533 268.362 240.958 271.179 245.982 272.776C249.801 273.994 253.893 274.075 257.757 273.008C262.839 271.556 265.423 268.899 265.481 266.141C269.924 187.503 274.426 137.048 273.162 67.107C273.24 65.9801 273.172 64.8479 272.959 63.7385C271.042 53.7781 264.857 44.1952 261.91 39.3457C260.641 37.3152 259.235 35.3747 257.699 33.5379C257.353 33.2888 256.934 33.1612 256.508 33.1749Z" fill="#455A64"/>
<path d="M273.104 67.6587C271.959 69.1205 270.5 70.3064 268.836 71.1289C261.431 74.9766 249.728 74.4829 242.7 70.0109C241.042 69.011 239.644 67.6328 238.62 65.989C238.62 66.1197 238.62 66.2504 238.62 66.3956L238.272 72.7551C239.293 74.4567 240.719 75.8786 242.425 76.8932C249.467 81.3652 261.169 81.8734 268.56 78.0112C270.452 77.1021 272.063 75.6972 273.22 73.9457C273.177 71.8694 273.148 69.7641 273.104 67.6587Z" fill="#FFAA17"/>
<path d="M255.361 33.4653C253.786 35.2391 252.331 37.1163 251.006 39.0844C247.869 43.8177 241.321 53.1538 239.012 63.027C238.759 64.1314 238.642 65.2627 238.664 66.3956C234.671 136.22 237.444 186.82 238.533 265.56C238.533 268.028 240.464 270.525 244.472 272.181C244.748 231.904 245.357 133.055 245.256 103.043C245.067 65.1178 253.75 38.7359 256.508 33.1749C256.106 33.154 255.706 33.2552 255.361 33.4653Z" fill="#37474F"/>
<path d="M188.601 282.911C181.951 304.443 175.185 325.947 167.983 347.305C166.705 351.036 168.331 355.857 171.889 358.92C183.371 368.622 197.993 373.81 213.022 373.512C228.089 373.507 242.665 368.156 254.156 358.412C257.699 355.334 259.325 350.601 258.062 346.956C250.73 325.932 243.993 304.719 237.444 283.448L188.601 282.911Z" fill="#37474F"/>
<path d="M213.023 356.728C198.053 357.222 181.196 351.544 169.972 341.424L167.939 347.334C166.662 351.065 168.288 355.886 171.845 358.949C183.345 368.621 197.956 373.804 212.979 373.542C228.059 373.508 242.642 368.15 254.156 358.412C257.699 355.334 259.325 350.601 258.062 346.956C257.264 344.662 256.872 343.501 256.073 341.148C244.254 351.573 228.515 356.22 213.023 356.728Z" fill="#455A64"/>
<path d="M254.156 358.412C242.639 368.164 228.041 373.524 212.95 373.542C211.919 373.542 210.903 373.542 209.915 373.542C208.928 373.542 207.941 373.454 207.011 373.382L205.56 373.237L203.338 372.99C202.859 372.99 202.38 372.859 201.886 372.772L200.434 372.525L198.097 372.075L197.675 371.973C196.775 371.77 195.89 371.538 195.033 371.306C194.176 371.073 192.928 370.696 191.926 370.362L190.183 369.737C189.414 369.476 188.731 369.171 187.947 368.866C186.495 368.285 185.16 367.661 183.896 367.037L182.938 366.543C182.546 366.354 182.169 366.137 181.835 365.948C181.501 365.759 180.775 365.352 180.281 365.062L178.669 364.075L177.145 363.087C176.666 362.768 176.216 362.434 175.693 362.115C176.753 356.408 177.29 353.534 178.35 347.726C181.594 349.664 185.011 351.297 188.557 352.604C188.18 355.407 187.701 357.614 187.802 358.02C191.751 372.482 226.337 375.052 254.156 358.412Z" fill="#263238"/>
<path d="M252.69 77.7063C252.813 74.7841 252.574 71.858 251.978 68.9946C246.534 43.4547 230.664 20.7026 222.33 8.72404C220.528 6.09039 218.39 3.70348 215.97 1.62399C215.1 1.02779 214.07 0.70874 213.015 0.70874C211.961 0.70874 210.931 1.02779 210.061 1.62399C207.598 3.65507 205.458 6.04917 203.716 8.72404C195.904 21.0511 179.497 43.4547 174.052 68.9946C173.457 71.858 173.218 74.7841 173.341 77.7063L178.292 304.458C178.292 311.558 184.811 318.672 197.835 322.549C207.748 325.482 218.297 325.482 228.21 322.549C241.278 318.672 247.739 311.558 247.739 304.458L252.69 77.7063Z" fill="#FFAA17"/>
<path opacity="0.5" d="M237.633 95.5217C237.633 116.72 236.036 234.401 234.831 320.037C243.412 316.001 247.71 310.222 247.71 304.458L252.661 77.7062C252.784 74.7841 252.545 71.858 251.949 68.9945C246.505 43.4547 230.635 20.7026 222.301 8.72401C221.604 7.73668 220.761 6.64771 219.905 5.61682C230.969 26.5395 237.633 61.5315 237.633 95.5217Z" fill="white"/>
<path opacity="0.1" d="M228.21 322.549C241.278 318.672 247.739 311.558 247.739 304.458L251.717 122.325C250.669 120.516 249.395 118.848 247.928 117.359C247.124 116.802 246.169 116.504 245.191 116.504C244.212 116.504 243.258 116.802 242.454 117.359C241.132 118.274 237.953 123.53 236.428 125.795C228.907 136.873 214.126 157.81 209.088 181.477C208.539 184.121 208.315 186.823 208.42 189.521L212.95 321.983C212.953 322.915 213.08 323.843 213.327 324.741C218.367 324.712 223.377 323.974 228.21 322.549Z" fill="black"/>
<path opacity="0.2" d="M215.97 1.66755C215.1 1.07135 214.07 0.752289 213.015 0.752289C211.961 0.752289 210.931 1.07135 210.061 1.66755C207.598 3.69863 205.458 6.09272 203.716 8.76759C195.904 21.0947 179.497 43.4983 174.052 69.0381C173.457 71.9016 173.218 74.8277 173.341 77.7498L178.292 304.501C178.292 310.759 183.359 317.017 193.45 321.068V188.94C193.45 113.729 195.585 62.8818 198.895 44.1952C202.206 25.5086 212.253 -0.321628 215.97 1.66755Z" fill="black"/>
<path d="M182.459 83.9932C199.185 93.6487 226.322 93.6487 243.049 83.9932C246.879 81.912 250.182 78.9816 252.704 75.4267C252.666 73.2789 252.423 71.1397 251.978 69.0381C251.746 67.9201 251.485 66.8311 251.209 65.7277C248.884 68.3694 246.124 70.594 243.049 72.305C226.322 81.9605 199.185 81.9605 182.459 72.305C179.571 70.6851 176.955 68.6225 174.706 66.1923C174.473 67.1361 174.255 68.0798 174.052 69.0962C173.571 71.4471 173.328 73.8403 173.326 76.2398C175.804 79.426 178.913 82.0657 182.459 83.9932Z" fill="#455A64"/>
<path d="M173.587 71.942C173.587 72.2469 173.587 72.5373 173.486 72.8423C173.384 73.1472 173.486 73.7134 173.399 74.1635C173.399 74.3087 173.399 74.4539 173.399 74.6136V76.1817C175.849 79.3812 178.934 82.0405 182.459 83.9932C186.456 86.2445 190.739 87.9442 195.192 89.046C195.367 84.9806 195.555 81.1329 195.759 77.503C191.11 76.4182 186.634 74.6932 182.459 72.3776C179.571 70.7578 176.955 68.6951 174.705 66.2649C174.473 67.2087 174.255 68.1524 174.052 69.1688C173.921 69.8077 173.805 70.4465 173.718 71.0999C173.66 71.2887 173.631 71.6226 173.587 71.942Z" fill="#37474F"/>
<path d="M281.192 354.143H268.531C266.73 365.077 272.538 373.469 274.861 373.469C277.184 373.469 282.934 365.077 281.192 354.143Z" fill="#FFAA17"/>
<path opacity="0.7" d="M281.192 354.143H268.531C266.73 365.077 272.538 373.469 274.861 373.469C277.184 373.469 282.934 365.077 281.192 354.143Z" fill="white"/>
<path d="M274.803 354.143H276.966C277.96 355.907 278.372 357.94 278.143 359.951C277.881 362.855 276.11 366.732 274.803 366.732C273.496 366.732 271.725 362.899 271.464 359.951C271.234 357.94 271.646 355.907 272.64 354.143H274.803Z" fill="white"/>
<path d="M281.09 334.484L268.022 339.101L266.991 343.457C266.953 344.368 267.151 345.273 267.566 346.084C267.98 346.896 268.598 347.586 269.358 348.089C269.97 348.539 270.639 348.905 271.347 349.178C273.785 350.1 276.475 350.1 278.912 349.178C279.604 348.904 280.258 348.543 280.858 348.103C281.62 347.603 282.239 346.913 282.654 346.101C283.069 345.289 283.266 344.383 283.224 343.472L281.09 334.484Z" fill="#FFAA17"/>
<path opacity="0.25" d="M281.09 334.484L268.022 339.101L266.991 343.457C266.953 344.368 267.151 345.273 267.566 346.084C267.98 346.896 268.598 347.586 269.358 348.089C269.97 348.539 270.639 348.905 271.347 349.178C273.785 350.1 276.475 350.1 278.912 349.178C279.604 348.904 280.258 348.543 280.858 348.103C281.62 347.603 282.239 346.913 282.654 346.101C283.069 345.289 283.266 344.383 283.224 343.472L281.09 334.484Z" fill="black"/>
<path d="M283.5 344.778L283.936 346.622C283.932 347.578 283.693 348.517 283.24 349.358C282.787 350.199 282.133 350.915 281.337 351.443C280.684 351.933 279.965 352.329 279.202 352.619C276.559 353.617 273.642 353.617 270.999 352.619C270.222 352.324 269.489 351.924 268.821 351.428C268.025 350.897 267.373 350.178 266.922 349.335C266.471 348.491 266.236 347.55 266.237 346.593L265.046 351.704C265.094 352.675 265.385 353.619 265.892 354.449C266.399 355.278 267.107 355.967 267.95 356.452C268.741 356.978 269.601 357.394 270.505 357.686C273.472 358.659 276.672 358.659 279.638 357.686C280.524 357.381 281.367 356.967 282.15 356.452C282.993 355.967 283.7 355.278 284.208 354.449C284.715 353.619 285.006 352.675 285.054 351.704L283.5 344.778Z" fill="#FFAA17"/>
<path opacity="0.25" d="M283.5 344.778L283.936 346.622C283.932 347.578 283.693 348.517 283.24 349.358C282.787 350.199 282.133 350.915 281.337 351.443C280.684 351.933 279.965 352.329 279.202 352.619C276.559 353.617 273.642 353.617 270.999 352.619C270.222 352.324 269.489 351.924 268.821 351.428C268.025 350.897 267.373 350.178 266.922 349.335C266.471 348.491 266.236 347.55 266.237 346.593L265.046 351.704C265.094 352.675 265.385 353.619 265.892 354.449C266.399 355.278 267.107 355.967 267.95 356.452C268.741 356.978 269.601 357.394 270.505 357.686C273.472 358.659 276.672 358.659 279.638 357.686C280.524 357.381 281.367 356.967 282.15 356.452C282.993 355.967 283.7 355.278 284.208 354.449C284.715 353.619 285.006 352.675 285.054 351.704L283.5 344.778Z" fill="black"/>
<path d="M283.5 344.749L283.399 344.314L283.195 343.457C283.237 344.368 283.04 345.274 282.625 346.086C282.21 346.898 281.591 347.588 280.829 348.089C280.229 348.529 279.575 348.89 278.883 349.163C276.446 350.086 273.756 350.086 271.318 349.163C270.61 348.89 269.941 348.524 269.329 348.074C268.569 347.572 267.951 346.881 267.537 346.07C267.122 345.258 266.924 344.353 266.963 343.443L266.237 346.593C266.236 347.55 266.472 348.491 266.922 349.335C267.373 350.178 268.025 350.897 268.821 351.428C269.489 351.924 270.222 352.324 270.999 352.619C273.642 353.617 276.559 353.617 279.202 352.619C279.966 352.329 280.684 351.933 281.337 351.443C282.133 350.915 282.787 350.199 283.24 349.358C283.694 348.517 283.933 347.578 283.936 346.622L283.5 344.749Z" fill="#455A64"/>
<path opacity="0.15" d="M282.194 339.174L281.09 334.484L268.023 339.101L266.992 343.457L266.701 344.749L266.266 346.608L265.424 350.165C272.858 348.045 278.854 344.096 282.194 339.174Z" fill="black"/>
<path d="M236.399 354.143H223.738C221.938 365.077 227.745 373.469 230.069 373.469C232.392 373.469 238.214 365.077 236.399 354.143Z" fill="#FFAA17"/>
<path opacity="0.7" d="M236.399 354.143H223.738C221.938 365.077 227.745 373.469 230.069 373.469C232.392 373.469 238.214 365.077 236.399 354.143Z" fill="white"/>
<path d="M230.068 354.143H232.246C233.24 355.907 233.652 357.94 233.422 359.951C233.161 362.855 231.375 366.732 230.068 366.732C228.762 366.732 226.99 362.899 226.729 359.951C226.5 357.94 226.911 355.907 227.905 354.143H230.068Z" fill="white"/>
<path d="M236.355 334.484H224.377L222.243 343.457C222.198 344.367 222.392 345.273 222.804 346.085C223.217 346.897 223.834 347.588 224.595 348.089C225.206 348.539 225.875 348.905 226.584 349.178C229.021 350.1 231.711 350.1 234.149 349.178C234.842 348.907 235.496 348.546 236.094 348.103C236.857 347.603 237.476 346.913 237.891 346.101C238.306 345.289 238.502 344.383 238.461 343.472L236.355 334.484Z" fill="#FFAA17"/>
<path opacity="0.25" d="M236.355 334.484H224.377L222.243 343.457C222.198 344.367 222.392 345.273 222.804 346.085C223.217 346.897 223.834 347.588 224.595 348.089C225.206 348.539 225.875 348.905 226.584 349.178C229.021 350.1 231.711 350.1 234.149 349.178C234.842 348.907 235.496 348.546 236.094 348.103C236.857 347.603 237.476 346.913 237.891 346.101C238.306 345.289 238.502 344.383 238.461 343.472L236.355 334.484Z" fill="black"/>
<path d="M238.664 344.314L238.766 344.749L239.201 346.622C239.198 347.578 238.959 348.517 238.506 349.358C238.052 350.199 237.398 350.915 236.602 351.443C235.949 351.933 235.231 352.329 234.468 352.619C231.824 353.617 228.908 353.617 226.264 352.619C225.488 352.321 224.756 351.92 224.086 351.428C223.291 350.897 222.639 350.178 222.188 349.335C221.737 348.491 221.501 347.55 221.502 346.593L220.311 351.704C220.359 352.675 220.65 353.619 221.157 354.449C221.665 355.278 222.372 355.967 223.215 356.452C224.007 356.978 224.866 357.394 225.771 357.686C228.737 358.659 231.937 358.659 234.903 357.686C235.79 357.384 236.634 356.969 237.415 356.452C238.258 355.967 238.966 355.278 239.473 354.449C239.98 353.619 240.271 352.675 240.319 351.704L238.664 344.314Z" fill="#FFAA17"/>
<path opacity="0.25" d="M238.664 344.314L238.766 344.749L239.201 346.622C239.198 347.578 238.959 348.517 238.506 349.358C238.052 350.199 237.398 350.915 236.602 351.443C235.949 351.933 235.231 352.329 234.468 352.619C231.824 353.617 228.908 353.617 226.264 352.619C225.488 352.321 224.756 351.92 224.086 351.428C223.291 350.897 222.639 350.178 222.188 349.335C221.737 348.491 221.501 347.55 221.502 346.593L220.311 351.704C220.359 352.675 220.65 353.619 221.157 354.449C221.665 355.278 222.372 355.967 223.215 356.452C224.007 356.978 224.866 357.394 225.771 357.686C228.737 358.659 231.937 358.659 234.903 357.686C235.79 357.384 236.634 356.969 237.415 356.452C238.258 355.967 238.966 355.278 239.473 354.449C239.98 353.619 240.271 352.675 240.319 351.704L238.664 344.314Z" fill="black"/>
<path d="M238.766 344.749L238.664 344.314L238.461 343.457C238.502 344.368 238.305 345.274 237.89 346.086C237.476 346.898 236.856 347.588 236.094 348.089C235.496 348.531 234.842 348.892 234.148 349.163C231.711 350.086 229.021 350.086 226.584 349.163C225.875 348.89 225.206 348.524 224.595 348.074C223.834 347.573 223.217 346.883 222.804 346.07C222.392 345.258 222.198 344.352 222.242 343.443L221.502 346.593C221.501 347.55 221.737 348.491 222.188 349.335C222.639 350.178 223.291 350.897 224.086 351.428C224.756 351.92 225.489 352.321 226.264 352.619C228.908 353.617 231.824 353.617 234.468 352.619C235.231 352.329 235.949 351.933 236.602 351.443C237.399 350.915 238.052 350.199 238.506 349.358C238.959 348.517 239.198 347.578 239.201 346.622L238.766 344.749Z" fill="#455A64"/>
<path opacity="0.15" d="M224.377 334.484L223.273 339.13C226.584 344.067 232.58 348.016 240.029 350.151L238.664 344.343L238.461 343.486L236.355 334.513L224.377 334.484Z" fill="black"/>
<path d="M265.046 362.115L252.719 358.92L240.392 362.115C239.467 367.729 239.511 373.46 240.522 379.059C242.134 389.411 249.35 399.764 252.719 399.764C256.087 399.764 263.289 389.411 264.901 379.059C265.911 373.46 265.96 367.73 265.046 362.115Z" fill="#FFAA17"/>
<path opacity="0.7" d="M265.046 362.115L252.719 358.92L240.392 362.115C239.467 367.729 239.511 373.46 240.522 379.059C242.134 389.411 249.35 399.764 252.719 399.764C256.087 399.764 263.289 389.411 264.901 379.059C265.911 373.46 265.96 367.73 265.046 362.115Z" fill="white"/>
<path d="M260.777 363.61H243.906C241.495 378.13 249.234 389.353 252.342 389.353C255.449 389.353 263.188 378.173 260.777 363.61Z" fill="#FFAA17"/>
<path d="M252.342 363.61H255.245C256.587 365.97 257.137 368.698 256.814 371.393C256.465 375.313 254.098 380.424 252.356 380.424C250.614 380.424 248.247 375.313 247.899 371.393C247.584 368.698 248.133 365.973 249.467 363.61H252.371" fill="white"/>
<path d="M263.536 348.321L262.171 342.513H243.296L241.945 348.321C241.891 349.534 242.153 350.741 242.706 351.823C243.258 352.905 244.082 353.824 245.096 354.492C245.91 355.097 246.805 355.585 247.753 355.944C250.999 357.178 254.584 357.178 257.83 355.944C258.755 355.583 259.625 355.094 260.414 354.492C261.425 353.822 262.243 352.901 262.791 351.819C263.338 350.737 263.595 349.532 263.536 348.321Z" fill="#FFAA17"/>
<path d="M263.768 349.468L263.899 350.034L264.48 352.532C264.483 353.807 264.17 355.063 263.57 356.188C262.969 357.313 262.1 358.271 261.039 358.978C260.146 359.626 259.169 360.149 258.135 360.532C254.611 361.861 250.725 361.861 247.201 360.532C246.166 360.139 245.189 359.606 244.298 358.949C243.234 358.241 242.361 357.28 241.758 356.153C241.155 355.025 240.841 353.767 240.842 352.488L239.259 359.298C239.33 360.597 239.727 361.857 240.411 362.963C241.096 364.07 242.048 364.986 243.18 365.628C244.233 366.338 245.382 366.895 246.592 367.284C250.542 368.591 254.808 368.591 258.759 367.284C259.942 366.882 261.069 366.33 262.113 365.643C263.244 365 264.196 364.084 264.881 362.978C265.566 361.872 265.962 360.611 266.033 359.312L263.768 349.468Z" fill="#FFAA17"/>
<path d="M263.928 350.034L263.797 349.468L263.536 348.321C263.59 349.536 263.327 350.744 262.771 351.826C262.216 352.908 261.389 353.827 260.371 354.492C259.581 355.094 258.711 355.583 257.786 355.944C254.541 357.178 250.955 357.178 247.71 355.944C246.761 355.585 245.867 355.097 245.053 354.492C244.038 353.824 243.214 352.905 242.662 351.823C242.11 350.741 241.848 349.534 241.902 348.321L240.915 352.517C240.913 353.796 241.228 355.055 241.831 356.182C242.434 357.309 243.306 358.27 244.37 358.978C245.262 359.635 246.239 360.168 247.274 360.561C250.797 361.89 254.684 361.89 258.207 360.561C259.242 360.178 260.219 359.655 261.111 359.007C262.172 358.3 263.042 357.342 263.642 356.217C264.243 355.092 264.555 353.836 264.552 352.561L263.928 350.034Z" fill="#455A64"/>
<path opacity="0.15" d="M252.69 351.893C256.515 351.902 260.328 351.449 264.044 350.543L263.928 350.034L263.797 349.468L263.536 348.321L262.171 342.513H243.296L241.945 348.321L241.423 350.557C245.112 351.447 248.894 351.895 252.69 351.893Z" fill="black"/>
<path d="M267.761 309.873L320.772 290.359C320.839 288.087 320.762 285.812 320.54 283.55C320.54 282.853 320.394 282.185 320.307 281.517C320.22 280.849 320.104 280.225 319.973 279.615C319.843 279.005 319.683 278.337 319.509 277.742C319.422 277.422 319.32 277.132 319.218 276.827C319.117 276.522 319.088 276.362 319.001 276.145C317.85 272.475 315.369 269.368 312.046 267.433L305.251 263.527L304.525 263.092C302.37 261.93 300.015 261.186 297.584 260.899C292.406 260.312 287.319 259.088 282.44 257.255C280.956 256.032 279.663 254.593 278.607 252.986C273.438 245.087 272.132 228.114 272.465 219.678L271.014 248.456C265.932 240.47 264.654 223.773 264.973 215.322L260.298 305.532L268.197 302.628V302.861L267.761 309.873Z" fill="#FFAA17"/>
<path d="M320.772 290.359L267.761 309.873L268.139 302.86V302.628L271.028 248.456L272.48 219.678C272.146 228.114 273.453 245.087 278.622 252.986C279.678 254.593 280.97 256.032 282.455 257.255C287.682 261.611 295.523 263.934 305.12 265.24C306.1 265.363 307.07 265.552 308.024 265.807C309.435 266.183 310.795 266.729 312.075 267.433C315.398 269.368 317.879 272.475 319.03 276.145C319.117 276.362 319.175 276.595 319.247 276.827C319.32 277.059 319.451 277.422 319.538 277.742C319.712 278.337 319.857 278.961 320.002 279.615C320.148 280.268 320.235 280.863 320.336 281.517C320.438 282.17 320.511 282.853 320.569 283.55C320.781 285.813 320.849 288.087 320.772 290.359Z" fill="#FFAA17"/>
<path opacity="0.35" d="M312.031 267.433C310.752 266.729 309.391 266.183 307.98 265.807C307.026 265.552 306.056 265.363 305.076 265.24C295.421 263.934 287.653 261.64 282.411 257.255C287.29 259.088 292.376 260.312 297.555 260.899C299.986 261.186 302.341 261.93 304.496 263.092L305.222 263.527L312.031 267.433Z" fill="black"/>
<path d="M268.56 294.73L319.015 276.145C319.822 278.548 320.338 281.038 320.554 283.564L268.124 302.86L268.56 294.73Z" fill="#455A64"/>
<path d="M289.482 194.792C289.592 192.094 289.373 189.393 288.829 186.748C283.776 163.081 269.634 143.654 261.474 131.066C260.022 128.771 256.784 123.544 255.449 122.63C254.648 122.071 253.695 121.772 252.719 121.773C251.738 121.774 250.781 122.072 249.975 122.63C248.653 123.544 245.488 128.8 243.949 131.066C236.428 142.144 221.647 163.081 216.609 186.748C216.06 189.392 215.836 192.093 215.941 194.792L220.544 327.253C220.544 333.845 226.569 340.437 238.635 344.023C247.823 346.739 257.6 346.739 266.788 344.023C278.854 340.437 284.894 333.86 284.894 327.253L289.482 194.792Z" fill="#FFAA17"/>
<path opacity="0.5" d="M289.482 194.792C289.592 192.094 289.373 189.393 288.829 186.748C283.776 163.081 269.634 143.654 261.474 131.066C260.022 128.771 256.784 123.544 255.449 122.63C254.648 122.071 253.695 121.772 252.719 121.773C251.738 121.774 250.781 122.072 249.975 122.63C248.653 123.544 245.488 128.8 243.949 131.066C236.428 142.144 221.647 163.081 216.609 186.748C216.06 189.392 215.836 192.093 215.941 194.792L220.544 327.253C220.544 333.845 226.569 340.437 238.635 344.023C247.823 346.739 257.6 346.739 266.788 344.023C278.854 340.437 284.894 333.86 284.894 327.253L289.482 194.792Z" fill="white"/>
<path opacity="0.5" d="M284.894 327.253L289.482 194.792C289.585 192.094 289.366 189.394 288.829 186.748C283.776 163.081 269.634 143.654 261.474 131.066L260.24 129.134C266.933 146.151 277.518 173.419 278.201 211.591C278.607 234.125 276.996 294.541 275.616 340.292C281.787 336.633 284.894 331.972 284.894 327.253Z" fill="white"/>
<path d="M243.949 131.066C241.19 135.131 237.43 140.561 233.553 146.95C237.372 149.505 242.526 153.426 252.719 153.426C259.64 153.645 266.411 151.385 271.812 147.051C268.066 140.939 264.393 135.552 261.474 131.08C260.022 128.786 256.784 123.559 255.449 122.644C254.648 122.086 253.695 121.787 252.719 121.788C251.739 121.788 250.782 122.087 249.975 122.644C248.654 123.544 245.488 128.8 243.949 131.066Z" fill="#37474F"/>
<path d="M260.24 129.134C262.491 134.826 265.162 141.708 267.761 149.723C269.213 148.852 270.578 147.923 271.812 147.051C268.908 142.289 266.004 138.006 263.536 134.216L261.474 131.066L260.647 129.759L260.24 129.134Z" fill="#455A64"/>
<path d="M241.394 134.812L240.595 136.002L239.826 137.164C239.346 137.861 238.867 138.616 238.374 139.342L237.662 140.416L236.733 141.868C236.486 142.231 236.239 142.609 236.007 143.001L235.049 144.453C234.555 145.251 234.047 146.05 233.597 146.877C235.78 148.448 238.103 149.814 240.537 150.957C245.779 136.176 251.964 121.265 255.057 122.31C254.72 122.127 254.365 121.981 253.997 121.875H253.88C253.512 121.77 253.131 121.716 252.748 121.715C251.768 121.716 250.81 122.014 250.004 122.572C248.682 123.486 245.517 128.742 243.978 131.007L242.221 133.592L241.394 134.812Z" fill="#263238"/>
<path d="M283.675 170.05C284.414 172.686 284.091 175.506 282.774 177.905C280.987 181.057 278.331 183.628 275.123 185.31C271.294 187.447 267.131 188.92 262.81 189.666C257.772 190.581 253.416 194.632 253.198 199.743L253.111 201.848C252.893 206.974 256.886 211.184 261.953 210.429C267.791 209.634 273.432 207.768 278.593 204.926C285.853 200.73 289.41 195.227 289.294 189.739C289.276 188.449 289.055 187.17 288.64 185.949C287.403 180.528 285.743 175.212 283.675 170.05Z" fill="#37474F"/>
<path d="M289.293 189.797C289.177 188.781 289.032 187.764 288.829 186.748C288.684 186.095 288.509 185.456 288.364 184.802C288.132 183.829 287.9 182.857 287.638 181.898L287.333 180.838C287.043 179.822 286.753 178.806 286.448 177.804C286.143 176.802 285.809 175.916 285.489 174.987C285.359 174.624 285.243 174.247 285.126 173.898C284.662 172.62 284.183 171.372 283.674 170.138C284.388 172.748 284.06 175.533 282.76 177.905C281.157 180.754 278.821 183.12 275.994 184.759C276.937 191.162 277.62 197.971 277.968 205.202L278.578 204.897C285.794 200.73 289.366 195.256 289.293 189.797Z" fill="#455A64"/>
<path d="M293.635 340.408C293.635 337.388 286.767 303.136 276.792 294.439C276.304 294.001 275.702 293.707 275.056 293.592C274.409 293.476 273.744 293.543 273.133 293.786C271.868 294.391 270.767 295.292 269.925 296.414C263.483 304.646 260.064 314.842 260.24 325.293V341.148L274.179 346.521C279.496 348.322 285.308 347.951 290.354 345.49C291.302 345.013 292.105 344.289 292.677 343.395C293.25 342.501 293.57 341.469 293.606 340.408H293.635Z" fill="#FFAA17"/>
<path d="M289.09 336.909C289.974 336.458 290.724 335.784 291.266 334.953C291.809 334.123 292.125 333.165 292.183 332.175C291.849 330.607 291.443 328.879 290.978 327.05C290.946 328.026 290.651 328.976 290.125 329.799C289.599 330.621 288.86 331.287 287.987 331.725C283.34 333.991 277.986 334.33 273.09 332.669L260.255 327.732V332.698L273.627 337.838C278.703 339.573 284.259 339.24 289.09 336.909Z" fill="#455A64"/>
<path opacity="0.25" d="M273.177 293.786C271.893 294.381 270.776 295.284 269.925 296.414C263.483 304.652 260.065 314.852 260.24 325.308V341.148L274.179 346.521C275.478 346.994 276.828 347.316 278.201 347.479C275.689 332.175 270.433 297.837 273.177 293.786Z" fill="black"/>
<path d="M276.836 338.68C276.575 336.996 276.299 335.239 276.037 333.439C275.047 333.291 274.074 333.043 273.133 332.698L260.298 327.762V332.727L273.671 337.867C274.695 338.245 275.756 338.517 276.836 338.68Z" fill="#37474F"/>
<path d="M179.874 339.304L167.547 336.11L155.22 339.304C154.306 344.92 154.355 350.65 155.365 356.249C156.977 366.587 164.179 376.939 167.547 376.939C170.916 376.939 178.132 366.587 179.744 356.249C180.755 350.65 180.799 344.919 179.874 339.304Z" fill="#FFAA17"/>
<path opacity="0.7" d="M179.874 339.304L167.547 336.11L155.22 339.304C154.306 344.92 154.355 350.65 155.365 356.249C156.977 366.587 164.179 376.939 167.547 376.939C170.916 376.939 178.132 366.587 179.744 356.249C180.755 350.65 180.799 344.919 179.874 339.304Z" fill="white"/>
<path d="M175.62 340.785H158.748C156.338 355.305 164.077 366.543 167.184 366.543C170.291 366.543 178.103 355.363 175.62 340.785Z" fill="#FFAA17"/>
<path d="M167.184 340.785H170.088C171.419 343.149 171.968 345.873 171.656 348.568C171.308 352.503 168.941 357.614 167.199 357.614C165.457 357.614 163.09 352.503 162.741 348.568C162.421 345.873 162.971 343.146 164.31 340.785H167.213" fill="white"/>
<path d="M178.364 325.511L177.014 319.703H158.139L156.774 325.511C156.724 326.725 156.99 327.932 157.544 329.013C158.099 330.094 158.924 331.014 159.939 331.682C160.752 332.281 161.64 332.769 162.582 333.134C165.833 334.361 169.421 334.361 172.673 333.134C173.595 332.767 174.464 332.278 175.257 331.682C176.265 331.01 177.081 330.088 177.625 329.007C178.17 327.925 178.425 326.72 178.364 325.511Z" fill="#FFAA17"/>
<path d="M178.64 326.658L178.771 327.224L179.352 329.722C179.351 330.996 179.035 332.25 178.432 333.372C177.829 334.494 176.958 335.45 175.896 336.154C175.001 336.802 174.025 337.329 172.992 337.722C169.469 339.051 165.582 339.051 162.059 337.722C161.021 337.334 160.043 336.801 159.155 336.139C158.09 335.435 157.217 334.477 156.614 333.352C156.011 332.227 155.697 330.969 155.699 329.693L154.102 336.502C154.173 337.801 154.57 339.062 155.254 340.168C155.939 341.274 156.891 342.19 158.023 342.833C159.081 343.534 160.229 344.09 161.435 344.488C165.391 345.788 169.66 345.788 173.617 344.488C174.796 344.089 175.919 343.537 176.956 342.847C178.089 342.207 179.042 341.291 179.728 340.185C180.413 339.078 180.808 337.817 180.876 336.517L178.64 326.658Z" fill="#FFAA17"/>
<path d="M178.771 327.224L178.64 326.658L178.364 325.511C178.42 326.725 178.159 327.932 177.606 329.014C177.054 330.096 176.229 331.015 175.214 331.682C174.421 332.278 173.551 332.767 172.629 333.134C169.378 334.361 165.79 334.361 162.538 333.134C161.597 332.769 160.708 332.281 159.896 331.682C158.88 331.014 158.055 330.094 157.501 329.013C156.946 327.932 156.681 326.725 156.73 325.511L155.758 329.707C155.755 330.984 156.069 332.241 156.672 333.366C157.275 334.492 158.149 335.449 159.213 336.154C160.102 336.816 161.079 337.349 162.117 337.736C165.64 339.065 169.527 339.065 173.05 337.736C174.083 337.343 175.059 336.816 175.954 336.168C177.016 335.464 177.887 334.509 178.49 333.386C179.093 332.264 179.409 331.01 179.41 329.736L178.771 327.224Z" fill="#455A64"/>
<path opacity="0.15" d="M167.547 331.595C171.555 331.595 177.305 330.317 178.887 327.732L178.771 327.224L178.64 326.658L178.364 325.511L177.014 319.703H158.139L156.774 325.511L156.251 327.747C157.311 330.433 163.584 331.595 167.547 331.595Z" fill="black"/>
<path d="M163.075 86.4615C163.487 86.4586 163.89 86.5746 164.237 86.7955C165.836 88.573 167.316 90.455 168.665 92.4291C171.787 97.1479 178.35 106.484 180.658 116.357C180.915 117.461 181.027 118.593 180.992 119.726C185 189.565 182.227 240.151 181.138 318.905C181.138 321.663 178.713 324.466 173.689 326.077C171.786 326.681 169.805 327.009 167.809 327.05C165.819 327.08 163.835 326.83 161.914 326.31C156.817 324.858 154.233 322.186 154.189 319.427C149.732 240.79 145.245 190.334 146.494 120.408C146.429 119.276 146.502 118.14 146.712 117.025C148.628 107.065 154.814 97.4819 157.747 92.6323C159.023 90.6076 160.43 88.6676 161.957 86.8245C162.296 86.5924 162.694 86.4614 163.104 86.447L163.075 86.4615Z" fill="#455A64"/>
<path d="M174.314 325.845C178.902 324.219 181.181 321.489 181.138 318.905C182.227 240.151 185 189.565 180.993 119.726C181.027 118.593 180.915 117.461 180.659 116.357C178.35 106.484 171.787 97.1479 168.666 92.4291C167.316 90.455 165.837 88.573 164.237 86.7955C169.566 99.4565 172.353 120.8 173.326 159.117C174.023 186.08 174.241 275.317 174.314 325.845Z" fill="#37474F"/>
<path d="M176.796 130.746C178.698 129.756 180.279 128.245 181.355 126.39C181.254 124.314 181.138 122.223 181.021 120.103C179.934 121.688 178.486 122.991 176.796 123.907C169.536 128.075 157.921 128.075 150.661 123.907C149.024 123.002 147.611 121.742 146.523 120.219V120.452C146.523 122.659 146.523 124.808 146.421 127C147.512 128.584 148.965 129.883 150.661 130.79C157.863 134.928 169.58 134.928 176.796 130.746Z" fill="#FFAA17"/>
<path d="M152.462 140.779C153.304 141.321 154.007 142.055 154.512 142.92C155.016 143.786 155.309 144.759 155.365 145.759C155.365 147.589 154.073 148.329 152.462 147.414C151.62 146.871 150.919 146.137 150.414 145.271C149.91 144.406 149.616 143.434 149.558 142.434C149.587 140.619 150.879 139.864 152.462 140.779Z" fill="#FFAA17"/>
<path d="M152.346 152.569C153.14 153.085 153.802 153.781 154.276 154.601C154.75 155.421 155.024 156.342 155.075 157.288C155.075 159.03 153.856 159.727 152.346 158.856C151.554 158.338 150.895 157.641 150.423 156.821C149.951 156.002 149.68 155.082 149.63 154.137C149.63 152.409 150.85 151.698 152.346 152.569Z" fill="#FFAA17"/>
<path d="M152.491 164.359C153.237 164.854 153.859 165.516 154.307 166.292C154.756 167.067 155.018 167.937 155.075 168.831C155.075 170.472 153.914 171.139 152.491 170.283C151.741 169.795 151.117 169.138 150.67 168.363C150.223 167.588 149.967 166.718 149.921 165.825C149.921 164.214 151.068 163.546 152.491 164.359Z" fill="#FFAA17"/>
<path d="M152.81 176.163C153.519 176.624 154.11 177.245 154.534 177.976C154.958 178.708 155.203 179.53 155.249 180.374C155.249 181.927 154.16 182.552 152.81 181.826C152.105 181.365 151.519 180.746 151.098 180.017C150.676 179.288 150.432 178.47 150.385 177.63C150.385 176.018 151.474 175.466 152.81 176.163Z" fill="#FFAA17"/>
<path d="M153.26 187.968C153.922 188.402 154.474 188.985 154.869 189.671C155.265 190.357 155.495 191.126 155.54 191.917C155.54 193.369 154.509 193.964 153.26 193.238C152.596 192.806 152.043 192.223 151.647 191.537C151.25 190.851 151.022 190.08 150.981 189.289C150.981 187.837 151.968 187.242 153.26 187.968Z" fill="#FFAA17"/>
<path d="M153.754 199.772C154.375 200.175 154.892 200.72 155.262 201.36C155.633 202.001 155.848 202.721 155.888 203.46C155.888 204.825 154.93 205.362 153.754 204.694C153.133 204.288 152.616 203.741 152.245 203.097C151.874 202.454 151.66 201.733 151.619 200.992C151.619 199.641 152.578 199.089 153.754 199.772Z" fill="#FFAA17"/>
<path d="M154.233 211.562C154.812 211.935 155.294 212.44 155.64 213.036C155.985 213.631 156.185 214.301 156.222 214.988C156.222 216.266 155.336 216.774 154.233 216.135C153.657 215.761 153.178 215.255 152.834 214.659C152.491 214.064 152.294 213.395 152.258 212.709C152.258 211.446 153.144 210.923 154.233 211.562Z" fill="#FFAA17"/>
<path d="M230.097 331.42L177.101 373.106L169.609 368.75C169.203 353.403 174.183 339.842 185.29 325.525C190.009 319.427 194.35 313.75 198.242 308.378C203.976 300.727 209.112 292.644 213.603 284.203C219.992 271.6 221.575 255.062 221.473 246.365C221.495 246.075 221.495 245.784 221.473 245.494C221.473 245.203 221.473 244.928 221.473 244.666L225.451 246.612L230.097 331.42Z" fill="#FFAA17"/>
<path opacity="0.35" d="M219.28 287.034C214.533 299.768 205.197 313.866 192.782 329.881C181.675 344.212 176.695 357.744 177.101 373.106L169.609 368.75C169.203 353.403 174.183 339.842 185.29 325.525C190.009 319.427 194.35 313.75 198.242 308.378C203.976 300.727 209.112 292.644 213.603 284.203C219.992 271.6 221.575 255.062 221.473 246.365C221.495 246.075 221.495 245.784 221.473 245.494C221.473 245.203 221.473 244.928 221.473 244.666L225.451 246.612C225.742 254.685 224.449 273.154 219.28 287.034Z" fill="black"/>
<path d="M171.352 352.604C170.627 355.615 170.142 358.679 169.9 361.766L177.377 366.122V365.89C177.635 362.9 178.12 359.934 178.829 357.018L171.352 352.604Z" fill="#37474F"/>
<path d="M225.422 246.612C225.742 254.67 224.449 273.154 219.28 287.02C214.533 299.768 205.196 313.866 192.782 329.867C181.675 344.183 176.68 357.744 177.101 373.091L230.097 331.406L225.422 246.612Z" fill="#FFAA17"/>
<path d="M229.313 317.206L178.844 356.96C178.076 359.971 177.561 363.04 177.304 366.137L229.734 324.901L229.313 317.206Z" fill="#455A64"/>
<path d="M409.486 476.761C409.486 471.782 407.508 467.006 403.987 463.486C400.467 459.965 395.691 457.987 390.712 457.987C385.733 457.987 380.958 459.965 377.437 463.486C373.917 467.006 371.939 471.782 371.939 476.761C371.924 476.935 371.924 477.11 371.939 477.283C371.925 477.457 371.925 477.632 371.939 477.806C372.142 480.405 373.971 482.961 377.427 484.95C384.759 489.189 396.665 489.189 403.998 484.95C407.439 482.961 409.268 480.405 409.486 477.806C409.486 477.617 409.486 477.458 409.486 477.283C409.486 477.109 409.501 476.935 409.486 476.761Z" fill="#FFAA17"/>
<path opacity="0.5" d="M409.486 476.761C409.486 471.782 407.508 467.006 403.987 463.486C400.467 459.965 395.691 457.987 390.712 457.987C385.733 457.987 380.958 459.965 377.437 463.486C373.917 467.006 371.939 471.782 371.939 476.761C371.924 476.935 371.924 477.11 371.939 477.283C371.925 477.457 371.925 477.632 371.939 477.806C372.142 480.405 373.971 482.961 377.427 484.95C384.759 489.189 396.665 489.189 403.998 484.95C407.439 482.961 409.268 480.405 409.486 477.806C409.486 477.617 409.486 477.458 409.486 477.283C409.486 477.109 409.501 476.935 409.486 476.761Z" fill="white"/>
<g style="mix-blend-mode:lighten" opacity="0.5">
<path d="M398.8 460.368C395.978 459.004 392.859 458.368 389.728 458.519C386.597 458.671 383.554 459.604 380.876 461.234C378.199 462.865 375.973 465.14 374.402 467.852C372.83 470.565 371.963 473.627 371.881 476.761C371.866 476.935 371.866 477.11 371.881 477.284C371.866 477.458 371.866 477.632 371.881 477.806C372.084 480.405 373.913 482.961 377.369 484.95C380.283 486.542 383.488 487.529 386.792 487.854C381.914 487.026 378.763 481.581 380.273 475.57C382.059 468.63 389.101 458.597 398.8 460.368Z" fill="white"/>
</g>
<path opacity="0.2" d="M409.486 477.806C409.486 477.617 409.486 477.458 409.486 477.283C409.486 477.109 409.486 476.935 409.486 476.761C409.417 474.181 408.815 471.643 407.718 469.307C406.622 466.97 405.053 464.886 403.112 463.185C405.145 465.276 409.689 473.189 404.753 479.157C401.515 483.12 386.11 488.783 373.449 481.509C374.534 482.893 375.887 484.043 377.427 484.892C384.759 489.131 396.665 489.131 403.998 484.892C407.511 482.961 409.268 480.376 409.486 477.806Z" fill="#FFAA17"/>
<g style="mix-blend-mode:lighten" opacity="0.5">
<path d="M390.509 462.72C391.351 464.637 389.74 467.192 386.908 468.441C384.077 469.69 381.1 469.138 380.258 467.221C379.416 465.305 381.028 462.749 383.859 461.515C386.69 460.281 389.682 460.804 390.509 462.72Z" fill="white"/>
</g>
<g style="mix-blend-mode:lighten" opacity="0.5">
<path d="M379.634 470.517C379.807 471.078 379.751 471.684 379.479 472.203C379.207 472.723 378.741 473.114 378.182 473.291C377.808 473.367 377.42 473.335 377.063 473.2C376.707 473.065 376.395 472.831 376.166 472.526C375.937 472.221 375.799 471.857 375.768 471.477C375.737 471.096 375.814 470.715 375.991 470.377C376.168 470.039 376.437 469.758 376.768 469.567C377.098 469.375 377.476 469.282 377.857 469.296C378.238 469.311 378.608 469.434 378.922 469.65C379.237 469.866 379.484 470.167 379.634 470.517Z" fill="white"/>
</g>
<path d="M380.752 490.874C380.592 484.123 377.798 477.703 372.967 472.986C368.137 468.268 361.652 465.627 354.9 465.627C348.148 465.627 341.664 468.268 336.833 472.986C332.002 477.703 329.208 484.123 329.048 490.874C329.048 491.121 329.048 491.338 329.048 491.585C329.048 491.832 329.048 492.064 329.048 492.311C329.338 495.883 331.865 499.397 336.613 502.155C346.704 507.963 363.096 507.963 373.216 502.155C377.935 499.397 380.476 495.883 380.752 492.311C380.767 492.069 380.767 491.827 380.752 491.585C380.767 491.348 380.767 491.111 380.752 490.874Z" fill="#FFAA17"/>
<path opacity="0.6" d="M380.752 490.874C380.592 484.123 377.798 477.703 372.967 472.986C368.137 468.268 361.652 465.627 354.9 465.627C348.148 465.627 341.664 468.268 336.833 472.986C332.002 477.703 329.208 484.123 329.048 490.874C329.048 491.121 329.048 491.338 329.048 491.585C329.048 491.832 329.048 492.064 329.048 492.311C329.338 495.883 331.865 499.397 336.613 502.155C346.704 507.963 363.096 507.963 373.216 502.155C377.935 499.397 380.476 495.883 380.752 492.311C380.767 492.069 380.767 491.827 380.752 491.585C380.767 491.348 380.767 491.111 380.752 490.874Z" fill="white"/>
<g style="mix-blend-mode:lighten" opacity="0.5">
<path d="M366.116 468.296C362.233 466.425 357.943 465.557 353.637 465.77C349.332 465.983 345.148 467.27 341.468 469.515C337.789 471.76 334.729 474.891 332.57 478.622C330.411 482.352 329.22 486.565 329.106 490.874C329.106 491.121 329.106 491.338 329.106 491.585C329.106 491.832 329.106 492.064 329.106 492.311C329.397 495.883 331.923 499.397 336.671 502.155C340.687 504.349 345.099 505.721 349.651 506.192C342.943 505.045 338.602 497.553 340.664 489.277C343.001 479.679 352.7 465.857 366.116 468.296Z" fill="white"/>
</g>
<path opacity="0.1" d="M380.752 492.311C380.766 492.069 380.766 491.827 380.752 491.585C380.767 491.348 380.767 491.111 380.752 490.874C380.661 487.319 379.833 483.821 378.321 480.602C376.809 477.383 374.645 474.513 371.968 472.173C374.784 475.077 381.028 485.952 374.247 494.257C369.775 499.716 348.577 507.499 331.124 497.495C332.625 499.398 334.491 500.983 336.613 502.155C346.704 507.963 363.096 507.963 373.216 502.155C377.935 499.397 380.462 495.883 380.752 492.311Z" fill="#FFAA17"/>
<g style="mix-blend-mode:lighten" opacity="0.3">
<path d="M354.631 471.548C355.793 474.176 353.571 477.705 349.666 479.418C345.76 481.131 341.665 480.391 340.504 477.748C339.342 475.106 341.578 471.592 345.484 469.879C349.39 468.165 353.484 468.906 354.631 471.548Z" fill="white"/>
</g>
<g style="mix-blend-mode:lighten" opacity="0.3">
<path d="M339.662 482.278C340.067 482.85 340.285 483.534 340.287 484.236C340.288 484.937 340.073 485.621 339.669 486.195C339.266 486.769 338.695 487.204 338.035 487.441C337.375 487.677 336.658 487.704 335.982 487.516C335.306 487.329 334.705 486.937 334.26 486.394C333.816 485.852 333.551 485.185 333.5 484.485C333.45 483.786 333.618 483.088 333.98 482.487C334.342 481.887 334.881 481.413 335.524 481.131C336.227 480.746 337.053 480.65 337.826 480.864C338.599 481.078 339.257 481.586 339.662 482.278Z" fill="white"/>
</g>
<path d="M334.653 500.065C334.402 491.721 330.911 483.804 324.921 477.991C318.93 472.178 310.911 468.927 302.564 468.927C294.217 468.927 286.199 472.178 280.208 477.991C274.218 483.804 270.727 491.721 270.476 500.065C270.476 500.37 270.476 500.645 270.476 500.95C270.476 501.255 270.476 501.546 270.476 501.851C270.839 506.294 273.976 510.649 279.87 514.061C292.386 521.321 312.743 521.321 325.288 514.061C331.095 510.649 334.29 506.294 334.653 501.851C334.653 501.546 334.653 501.255 334.653 500.95C334.653 500.645 334.682 500.37 334.653 500.065Z" fill="#FFAA17"/>
<path opacity="0.8" d="M334.653 500.065C334.402 491.721 330.911 483.804 324.921 477.991C318.93 472.178 310.911 468.927 302.564 468.927C294.217 468.927 286.199 472.178 280.208 477.991C274.218 483.804 270.727 491.721 270.476 500.065C270.476 500.37 270.476 500.645 270.476 500.95C270.476 501.255 270.476 501.546 270.476 501.851C270.839 506.294 273.976 510.649 279.87 514.061C292.386 521.321 312.743 521.321 325.288 514.061C331.095 510.649 334.29 506.294 334.653 501.851C334.653 501.546 334.653 501.255 334.653 500.95C334.653 500.645 334.682 500.37 334.653 500.065Z" fill="white"/>
<g style="mix-blend-mode:lighten" opacity="0.3">
<path d="M316.489 472.042C311.665 469.712 306.334 468.627 300.983 468.887C295.632 469.147 290.431 470.743 285.855 473.53C281.28 476.316 277.475 480.205 274.789 484.84C272.102 489.475 270.62 494.709 270.476 500.065C270.476 500.37 270.476 500.645 270.476 500.95C270.476 501.255 270.476 501.546 270.476 501.851C270.839 506.294 273.976 510.649 279.87 514.061C284.851 516.788 290.325 518.496 295.973 519.085C287.653 517.633 282.266 508.355 284.822 498.09C287.798 486.184 299.835 468.964 316.489 472.042Z" fill="white"/>
</g>
<path opacity="0.1" d="M334.653 501.851C334.653 501.546 334.653 501.255 334.653 500.95C334.653 500.645 334.653 500.37 334.653 500.065C334.542 495.65 333.517 491.306 331.643 487.308C329.768 483.309 327.085 479.743 323.763 476.833C327.248 480.42 335.001 493.937 326.565 504.232C321.033 511.012 294.709 520.682 273.061 508.254C274.919 510.626 277.234 512.601 279.87 514.061C292.386 521.321 312.743 521.321 325.288 514.061C331.153 510.649 334.29 506.293 334.653 501.851Z" fill="#FFAA17"/>
<g style="mix-blend-mode:lighten" opacity="0.3">
<path d="M302.245 476.02C303.697 479.287 300.909 483.672 296.074 485.792C291.239 487.912 286.143 486.997 284.705 483.716C283.268 480.434 286.027 476.078 290.876 473.944C295.726 471.81 300.807 472.811 302.245 476.02Z" fill="white"/>
</g>
<g style="mix-blend-mode:lighten" opacity="0.3">
<path d="M283.646 489.393C284.142 490.105 284.406 490.953 284.401 491.821C284.397 492.69 284.124 493.535 283.62 494.242C283.117 494.949 282.407 495.483 281.588 495.772C280.769 496.06 279.881 496.088 279.046 495.852C278.211 495.616 277.468 495.127 276.921 494.453C276.374 493.779 276.049 492.953 275.99 492.087C275.931 491.22 276.141 490.357 276.591 489.615C277.041 488.873 277.71 488.288 278.506 487.941C279.381 487.459 280.411 487.341 281.373 487.613C282.335 487.885 283.151 488.524 283.646 489.393Z" fill="white"/>
</g>
<path d="M425.37 481.16C425.37 478.153 424.176 475.268 422.049 473.142C419.923 471.015 417.038 469.82 414.031 469.82C411.023 469.82 408.139 471.015 406.012 473.142C403.886 475.268 402.691 478.153 402.691 481.16C402.683 481.267 402.683 481.373 402.691 481.48C402.684 481.581 402.684 481.683 402.691 481.785C402.842 482.727 403.224 483.617 403.801 484.377C404.379 485.136 405.134 485.742 406.001 486.14C408.483 487.403 411.227 488.065 414.011 488.072C416.795 488.08 419.542 487.433 422.031 486.184C422.898 485.786 423.654 485.18 424.231 484.42C424.809 483.661 425.19 482.77 425.341 481.828C425.349 481.727 425.349 481.625 425.341 481.523C425.361 481.403 425.371 481.282 425.37 481.16Z" fill="#FFAA17"/>
<path opacity="0.2" d="M425.37 481.16C425.37 478.153 424.176 475.268 422.049 473.142C419.923 471.015 417.038 469.82 414.031 469.82C411.023 469.82 408.139 471.015 406.012 473.142C403.886 475.268 402.691 478.153 402.691 481.16C402.683 481.267 402.683 481.373 402.691 481.48C402.684 481.581 402.684 481.683 402.691 481.785C402.842 482.727 403.224 483.617 403.801 484.377C404.379 485.136 405.134 485.742 406.001 486.14C408.483 487.403 411.227 488.065 414.011 488.072C416.795 488.08 419.542 487.433 422.031 486.184C422.898 485.786 423.654 485.18 424.231 484.42C424.809 483.661 425.19 482.77 425.341 481.828C425.349 481.727 425.349 481.625 425.341 481.523C425.361 481.403 425.371 481.282 425.37 481.16Z" fill="white"/>
<g style="mix-blend-mode:lighten" opacity="0.5">
<path d="M418.953 471.258C417.248 470.432 415.364 470.046 413.472 470.136C411.58 470.227 409.74 470.791 408.122 471.776C406.504 472.761 405.16 474.136 404.211 475.776C403.262 477.415 402.739 479.267 402.691 481.16C402.683 481.267 402.683 481.373 402.691 481.48C402.684 481.581 402.684 481.683 402.691 481.785C402.842 482.727 403.224 483.617 403.801 484.377C404.379 485.136 405.134 485.742 406.001 486.14C407.763 487.1 409.698 487.702 411.693 487.912C408.789 487.404 406.844 484.122 407.758 480.492C408.804 476.253 413.058 470.212 418.953 471.258Z" fill="white"/>
</g>
<g style="mix-blend-mode:multiply" opacity="0.05">
<path d="M425.37 481.828C425.378 481.727 425.378 481.625 425.37 481.523C425.378 481.417 425.378 481.31 425.37 481.204C425.33 479.645 424.967 478.111 424.305 476.699C423.643 475.287 422.696 474.028 421.523 473C422.757 474.263 425.501 479.04 422.51 482.685C420.55 485.08 411.258 488.493 403.635 484.137C404.298 484.974 405.123 485.67 406.06 486.184C408.537 487.43 411.272 488.079 414.045 488.079C416.819 488.079 419.553 487.43 422.031 486.184C422.904 485.789 423.665 485.185 424.248 484.425C424.83 483.665 425.216 482.773 425.37 481.828Z" fill="#455A64"/>
</g>
<g style="mix-blend-mode:lighten" opacity="0.3">
<path d="M413.915 472.681C414.423 473.828 413.45 475.381 411.737 476.136C410.023 476.891 408.223 476.558 407.715 475.396C407.207 474.234 408.179 472.695 409.893 471.94C411.606 471.185 413.407 471.519 413.915 472.681Z" fill="white"/>
</g>
<g style="mix-blend-mode:lighten" opacity="0.3">
<path d="M407.337 477.385C407.503 477.632 407.589 477.923 407.584 478.22C407.579 478.517 407.483 478.805 407.309 479.046C407.135 479.286 406.891 479.468 406.611 479.565C406.33 479.663 406.027 479.673 405.741 479.593C405.455 479.513 405.2 479.347 405.011 479.118C404.823 478.889 404.709 478.607 404.685 478.311C404.661 478.015 404.729 477.719 404.878 477.462C405.028 477.206 405.253 477.002 405.522 476.877C405.832 476.708 406.194 476.667 406.533 476.762C406.872 476.857 407.161 477.08 407.337 477.385Z" fill="white"/>
</g>
<path d="M16.4137 467.497C16.4137 462.518 18.3916 457.743 21.9124 454.222C25.4331 450.702 30.2083 448.724 35.1874 448.724C40.1665 448.724 44.9417 450.702 48.4625 454.222C51.9832 457.743 53.9612 462.518 53.9612 467.497C53.9753 467.671 53.9753 467.846 53.9612 468.02C53.9761 468.194 53.9761 468.369 53.9612 468.543C53.7579 471.142 51.9284 473.697 48.4728 475.701C41.1404 479.926 29.2344 479.926 21.9021 475.701C18.4609 473.697 16.6315 471.142 16.4137 468.543C16.4137 468.369 16.4137 468.209 16.4137 468.02C16.4137 467.831 16.3992 467.686 16.4137 467.497Z" fill="#FFAA17"/>
<path opacity="0.5" d="M16.4137 467.497C16.4137 462.518 18.3916 457.743 21.9124 454.222C25.4331 450.702 30.2083 448.724 35.1874 448.724C40.1665 448.724 44.9417 450.702 48.4625 454.222C51.9832 457.743 53.9612 462.518 53.9612 467.497C53.9753 467.671 53.9753 467.846 53.9612 468.02C53.9761 468.194 53.9761 468.369 53.9612 468.543C53.7579 471.142 51.9284 473.697 48.4728 475.701C41.1404 479.926 29.2344 479.926 21.9021 475.701C18.4609 473.697 16.6315 471.142 16.4137 468.543C16.4137 468.369 16.4137 468.209 16.4137 468.02C16.4137 467.831 16.3992 467.686 16.4137 467.497Z" fill="white"/>
<g style="mix-blend-mode:lighten" opacity="0.5">
<path d="M27.1001 451.105C29.9221 449.74 33.0411 449.105 36.172 449.256C39.303 449.407 42.3461 450.341 45.0234 451.971C47.7007 453.601 49.9268 455.876 51.4982 458.589C53.0697 461.301 53.9364 464.364 54.0193 467.497C54.0334 467.671 54.0334 467.846 54.0193 468.02C54.0342 468.194 54.0342 468.369 54.0193 468.543C53.816 471.142 51.9866 473.697 48.5309 475.701C45.612 477.281 42.4095 478.267 39.1077 478.605C43.9863 477.763 47.137 472.332 45.6415 466.321C43.8411 459.381 36.7991 449.304 27.1001 451.105Z" fill="white"/>
</g>
<path opacity="0.2" d="M16.4136 468.543C16.4136 468.369 16.4136 468.209 16.4136 468.02C16.4136 467.831 16.4136 467.686 16.4136 467.497C16.4819 464.919 17.0835 462.383 18.1806 460.049C19.2776 457.715 20.8463 455.634 22.7876 453.936C20.7549 456.027 16.2103 463.94 21.1469 469.908C24.3848 473.871 39.79 479.52 52.451 472.26C51.3632 473.641 50.0107 474.791 48.4727 475.643C41.1403 479.868 29.2343 479.868 21.902 475.643C18.4608 473.697 16.6314 471.142 16.4136 468.543Z" fill="#FFAA17"/>
<g style="mix-blend-mode:lighten" opacity="0.3">
<path d="M35.3907 453.471C34.5485 455.388 36.1602 457.943 38.9915 459.192C41.8228 460.441 44.7993 459.889 45.6415 457.973C46.4836 456.056 44.8719 453.5 42.0406 452.252C39.2093 451.003 36.2183 451.555 35.3907 453.471Z" fill="white"/>
</g>
<g style="mix-blend-mode:lighten" opacity="0.3">
<path d="M46.2658 461.254C45.9702 461.669 45.8105 462.166 45.8084 462.675C45.8063 463.185 45.962 463.683 46.2541 464.1C46.5463 464.518 46.9605 464.835 47.44 465.008C47.9194 465.18 48.4406 465.2 48.932 465.065C49.4233 464.93 49.8607 464.646 50.1842 464.252C50.5076 463.858 50.7012 463.374 50.7384 462.865C50.7756 462.357 50.6545 461.85 50.3918 461.413C50.1292 460.976 49.7378 460.632 49.2713 460.426C48.7612 460.146 48.1618 460.075 47.6006 460.23C47.0393 460.385 46.5605 460.752 46.2658 461.254Z" fill="white"/>
</g>
<path d="M72.5753 465.537C72.7396 458.424 75.6807 451.657 80.7697 446.684C85.8587 441.712 92.6914 438.927 99.8067 438.927C106.922 438.927 113.755 441.712 118.844 446.684C123.933 451.657 126.874 458.424 127.038 465.537C127.038 465.799 127.038 466.031 127.038 466.292C127.038 466.554 127.038 466.8 127.038 467.062C126.733 470.822 124.134 474.525 119.067 477.414C108.439 483.57 91.1748 483.57 80.5175 477.414C75.5373 474.51 72.8802 470.822 72.5753 467.062C72.5608 466.805 72.5608 466.548 72.5753 466.292C72.5608 466.041 72.5608 465.789 72.5753 465.537Z" fill="#FFAA17"/>
<path opacity="0.7" d="M72.5753 465.537C72.7396 458.424 75.6807 451.657 80.7697 446.684C85.8587 441.712 92.6914 438.927 99.8067 438.927C106.922 438.927 113.755 441.712 118.844 446.684C123.933 451.657 126.874 458.424 127.038 465.537C127.038 465.799 127.038 466.031 127.038 466.292C127.038 466.554 127.038 466.8 127.038 467.062C126.733 470.822 124.134 474.525 119.067 477.414C108.439 483.57 91.1748 483.57 80.5175 477.414C75.5373 474.51 72.8802 470.822 72.5753 467.062C72.5608 466.805 72.5608 466.548 72.5753 466.292C72.5608 466.041 72.5608 465.789 72.5753 465.537Z" fill="white"/>
<g style="mix-blend-mode:lighten" opacity="0.3">
<path d="M87.9805 441.754C92.075 439.776 96.5999 438.855 101.142 439.075C105.684 439.295 110.099 440.65 113.983 443.015C117.867 445.38 121.096 448.68 123.377 452.614C125.657 456.549 126.916 460.991 127.038 465.537C127.038 465.799 127.038 466.031 127.038 466.292C127.038 466.554 127.038 466.8 127.038 467.062C126.733 470.822 124.134 474.525 119.067 477.414C114.844 479.737 110.198 481.188 105.404 481.683C112.46 480.463 117.02 472.579 114.871 463.867C112.344 453.762 102.122 439.155 87.9805 441.754Z" fill="white"/>
</g>
<path opacity="0.1" d="M72.5753 467.062C72.5608 466.805 72.5608 466.549 72.5753 466.292C72.5608 466.041 72.5608 465.789 72.5753 465.537C72.6721 461.794 73.5439 458.112 75.1359 454.723C76.7278 451.335 79.0052 448.313 81.8242 445.849C78.9203 448.898 72.2704 460.368 79.4285 469.08C84.1328 474.888 106.464 483.033 124.846 472.492C123.259 474.498 121.284 476.162 119.038 477.385C108.41 483.541 91.1458 483.541 80.4885 477.385C75.5373 474.568 72.8802 470.822 72.5753 467.062Z" fill="#FFAA17"/>
<g style="mix-blend-mode:lighten" opacity="0.5">
<path d="M100.075 445.181C98.8556 447.954 101.208 451.671 105.317 453.471C109.426 455.272 113.738 454.488 114.958 451.715C116.177 448.941 113.84 445.224 109.731 443.424C105.622 441.624 101.295 442.408 100.075 445.181Z" fill="white"/>
</g>
<g style="mix-blend-mode:lighten" opacity="0.5">
<path d="M115.858 456.492C115.435 457.095 115.208 457.814 115.209 458.551C115.211 459.287 115.44 460.006 115.866 460.607C116.291 461.209 116.892 461.664 117.587 461.91C118.281 462.156 119.035 462.182 119.744 461.983C120.454 461.785 121.085 461.371 121.55 460.8C122.016 460.229 122.293 459.528 122.344 458.793C122.396 458.058 122.219 457.325 121.837 456.695C121.456 456.064 120.889 455.567 120.214 455.272C119.473 454.863 118.601 454.761 117.786 454.989C116.971 455.218 116.279 455.757 115.858 456.492Z" fill="white"/>
</g>
<path d="M48.589 481.523C48.749 474.773 51.5429 468.353 56.3737 463.635C61.2044 458.918 67.6888 456.277 74.441 456.277C81.1932 456.277 87.6776 458.918 92.5084 463.635C97.3391 468.353 100.133 474.773 100.293 481.523C100.308 481.765 100.308 482.007 100.293 482.249C100.308 482.486 100.308 482.724 100.293 482.961C100.003 486.547 97.4762 490.061 92.7284 492.805C82.6373 498.613 66.2448 498.613 56.1392 492.805C51.4058 490.061 48.8794 486.547 48.589 482.961C48.5745 482.724 48.5745 482.486 48.589 482.249C48.5745 482.007 48.5745 481.765 48.589 481.523Z" fill="#FFAA17"/>
<path opacity="0.6" d="M48.589 481.523C48.749 474.773 51.5429 468.353 56.3737 463.635C61.2044 458.918 67.6888 456.277 74.441 456.277C81.1932 456.277 87.6776 458.918 92.5084 463.635C97.3391 468.353 100.133 474.773 100.293 481.523C100.308 481.765 100.308 482.007 100.293 482.249C100.308 482.486 100.308 482.724 100.293 482.961C100.003 486.547 97.4762 490.061 92.7284 492.805C82.6373 498.613 66.2448 498.613 56.1392 492.805C51.4058 490.061 48.8794 486.547 48.589 482.961C48.5745 482.724 48.5745 482.486 48.589 482.249C48.5745 482.007 48.5745 481.765 48.589 481.523Z" fill="white"/>
<g style="mix-blend-mode:lighten" opacity="0.5">
<path d="M63.2246 458.96C67.1094 457.077 71.4045 456.198 75.7168 456.404C80.0291 456.609 84.2209 457.893 87.9086 460.138C91.5964 462.383 94.6623 465.517 96.8259 469.253C98.9894 472.989 100.181 477.207 100.293 481.523C100.307 481.765 100.307 482.007 100.293 482.249C100.307 482.486 100.307 482.724 100.293 482.961C100.003 486.547 97.4761 490.061 92.7283 492.805C88.7158 495.01 84.302 496.387 79.7478 496.856C86.4558 495.694 90.7972 488.144 88.7354 479.941C86.3397 470.343 76.6406 456.477 63.2246 458.96Z" fill="white"/>
</g>
<path opacity="0.15" d="M48.589 482.961C48.5745 482.724 48.5745 482.486 48.589 482.249C48.5745 482.007 48.5745 481.765 48.589 481.523C48.6715 477.976 49.4882 474.484 50.9876 471.267C52.487 468.051 54.6366 465.181 57.3007 462.837C54.484 465.74 48.2406 476.616 55.0212 484.906C59.4932 490.366 80.6917 498.163 98.1441 488.144C96.6513 490.055 94.7836 491.641 92.6558 492.805C82.5647 498.613 66.1722 498.613 56.0666 492.805C51.4058 490.061 48.8794 486.547 48.589 482.961Z" fill="#FFAA17"/>
<g style="mix-blend-mode:lighten" opacity="0.3">
<path d="M74.7097 462.198C73.5481 464.84 75.7696 468.369 79.6754 470.082C83.5811 471.795 87.6756 471.04 88.8372 468.412C89.9988 465.784 87.7627 462.241 83.857 460.528C79.9512 458.815 75.8567 459.57 74.7097 462.198Z" fill="white"/>
</g>
<g style="mix-blend-mode:lighten" opacity="0.3">
<path d="M89.6791 472.928C89.2737 473.5 89.0553 474.184 89.054 474.885C89.0526 475.586 89.2683 476.271 89.6715 476.845C90.0746 477.419 90.6455 477.854 91.3057 478.09C91.966 478.327 92.6832 478.353 93.3591 478.166C94.0349 477.978 94.6362 477.586 95.0805 477.044C95.5248 476.501 95.7902 475.834 95.8404 475.135C95.8906 474.435 95.7231 473.737 95.3608 473.137C94.9986 472.536 94.4594 472.062 93.8172 471.781C93.1139 471.395 92.288 471.299 91.5151 471.513C90.7423 471.728 90.0835 472.235 89.6791 472.928Z" fill="white"/>
</g>
<path d="M96.5178 496.188C96.6963 487.798 100.155 479.811 106.152 473.941C112.148 468.07 120.207 464.782 128.599 464.782C136.991 464.782 145.049 468.07 151.046 473.941C157.043 479.811 160.501 487.798 160.68 496.188C160.68 496.493 160.68 496.769 160.68 497.088C160.68 497.408 160.68 497.669 160.68 497.974C160.317 502.417 157.195 506.773 151.285 510.185C138.77 517.444 118.428 517.444 105.868 510.185C100.061 506.773 96.8808 502.417 96.5178 497.974C96.5178 497.669 96.5178 497.393 96.5178 497.088C96.5178 496.783 96.4888 496.493 96.5178 496.188Z" fill="#FFAA17"/>
<path opacity="0.8" d="M96.5178 496.188C96.6963 487.798 100.155 479.811 106.152 473.941C112.148 468.07 120.207 464.782 128.599 464.782C136.991 464.782 145.049 468.07 151.046 473.941C157.043 479.811 160.501 487.798 160.68 496.188C160.68 496.493 160.68 496.769 160.68 497.088C160.68 497.408 160.68 497.669 160.68 497.974C160.317 502.417 157.195 506.773 151.285 510.185C138.77 517.444 118.428 517.444 105.868 510.185C100.061 506.773 96.8808 502.417 96.5178 497.974C96.5178 497.669 96.5178 497.393 96.5178 497.088C96.5178 496.783 96.4888 496.493 96.5178 496.188Z" fill="white"/>
<g style="mix-blend-mode:lighten" opacity="0.3">
<path d="M114.667 468.18C119.489 465.842 124.821 464.751 130.174 465.007C135.527 465.262 140.73 466.856 145.307 469.643C149.885 472.429 153.691 476.319 156.376 480.956C159.062 485.594 160.541 490.831 160.68 496.188C160.68 496.493 160.68 496.769 160.68 497.088C160.68 497.408 160.68 497.669 160.68 497.974C160.317 502.417 157.195 506.773 151.285 510.185C146.307 512.919 140.832 514.632 135.183 515.223C143.518 513.771 148.904 504.493 146.334 494.228C143.372 482.307 131.336 465.102 114.667 468.18Z" fill="white"/>
</g>
<path opacity="0.1" d="M96.5178 497.974C96.5178 497.669 96.5178 497.393 96.5178 497.088C96.5178 496.783 96.5178 496.493 96.5178 496.188C96.6285 491.773 97.6534 487.429 99.5277 483.431C101.402 479.432 104.085 475.866 107.407 472.957C103.923 476.543 96.1693 490.046 104.591 500.34C110.137 507.121 136.447 516.791 158.095 504.362C156.245 506.742 153.927 508.719 151.285 510.17C138.77 517.43 118.428 517.43 105.868 510.17C100.003 506.773 96.8808 502.417 96.5178 497.974Z" fill="#FFAA17"/>
<g style="mix-blend-mode:lighten" opacity="0.3">
<path d="M128.926 472.202C127.474 475.483 130.247 479.854 135.082 481.973C139.917 484.093 145.013 483.178 146.451 479.912C147.888 476.645 145.129 472.26 140.294 470.125C135.459 467.991 130.363 468.935 128.926 472.202Z" fill="white"/>
</g>
<g style="mix-blend-mode:lighten" opacity="0.3">
<path d="M147.51 485.516C147.014 486.228 146.75 487.077 146.755 487.945C146.759 488.813 147.032 489.658 147.535 490.365C148.039 491.073 148.749 491.607 149.568 491.895C150.387 492.183 151.275 492.211 152.11 491.975C152.945 491.739 153.687 491.251 154.235 490.577C154.782 489.903 155.107 489.076 155.166 488.21C155.225 487.344 155.015 486.481 154.565 485.738C154.115 484.996 153.446 484.411 152.65 484.064C151.774 483.586 150.745 483.471 149.784 483.742C148.824 484.013 148.007 484.65 147.51 485.516Z" fill="white"/>
</g>
<path d="M276.299 501.952C276.128 494.296 272.967 487.011 267.492 481.657C262.017 476.302 254.664 473.304 247.006 473.304C239.348 473.304 231.994 476.302 226.519 481.657C221.044 487.011 217.883 494.296 217.712 501.952C217.674 502.494 217.674 503.037 217.712 503.578C218.046 507.644 220.907 511.622 226.293 514.729C237.72 521.336 256.291 521.336 267.747 514.729C273.104 511.622 275.965 507.644 276.299 503.578C276.337 503.037 276.337 502.494 276.299 501.952Z" fill="#FFAA17"/>
<path opacity="0.9" d="M276.299 501.952C276.128 494.296 272.967 487.011 267.492 481.657C262.017 476.302 254.664 473.304 247.006 473.304C239.348 473.304 231.994 476.302 226.519 481.657C221.044 487.011 217.883 494.296 217.712 501.952C217.674 502.494 217.674 503.037 217.712 503.578C218.046 507.644 220.907 511.622 226.293 514.729C237.72 521.336 256.291 521.336 267.747 514.729C273.104 511.622 275.965 507.644 276.299 503.578C276.337 503.037 276.337 502.494 276.299 501.952Z" fill="white"/>
<g style="mix-blend-mode:lighten" opacity="0.5">
<path d="M259.717 476.369C255.314 474.239 250.446 473.247 245.56 473.483C240.674 473.719 235.925 475.176 231.748 477.721C227.57 480.265 224.096 483.816 221.644 488.049C219.193 492.282 217.841 497.062 217.712 501.952C217.674 502.494 217.674 503.037 217.712 503.578C218.046 507.644 220.907 511.622 226.293 514.729C230.838 517.218 235.833 518.778 240.987 519.318C233.393 518.011 228.471 509.517 230.824 500.152C233.51 489.277 244.501 473.566 259.717 476.369Z" fill="white"/>
</g>
<path opacity="0.1" d="M276.299 503.607C276.337 503.066 276.337 502.523 276.299 501.981C276.192 497.955 275.254 493.994 273.542 490.349C271.83 486.703 269.383 483.451 266.353 480.797C269.532 484.079 276.618 496.406 268.923 505.814C263.855 512 239.884 520.828 220.064 509.488C221.766 511.645 223.884 513.437 226.293 514.758C237.72 521.365 256.291 521.365 267.747 514.758C273.104 511.622 275.965 507.644 276.299 503.607Z" fill="#FFAA17"/>
<g style="mix-blend-mode:lighten" opacity="0.5">
<path d="M241.095 488.96C245.515 487.019 248.034 483.023 246.722 480.035C245.41 477.046 240.763 476.198 236.343 478.139C231.923 480.08 229.404 484.076 230.716 487.064C232.028 490.052 236.675 490.901 241.095 488.96Z" fill="white"/>
</g>
<g style="mix-blend-mode:lighten" opacity="0.5">
<path d="M229.735 492.21C230.199 492.859 230.45 493.636 230.455 494.434C230.459 495.232 230.216 496.012 229.759 496.667C229.303 497.321 228.654 497.818 227.903 498.089C227.152 498.36 226.336 498.391 225.567 498.179C224.797 497.967 224.112 497.522 223.606 496.905C223.1 496.288 222.798 495.529 222.74 494.733C222.683 493.937 222.874 493.142 223.287 492.459C223.699 491.776 224.313 491.237 225.045 490.917C225.841 490.479 226.776 490.368 227.652 490.61C228.529 490.851 229.276 491.425 229.735 492.21Z" fill="white"/>
</g>
<path d="M153.942 505.132C154.176 497.898 157.214 491.038 162.414 486.004C167.614 480.969 174.568 478.154 181.805 478.154C189.043 478.154 195.997 480.969 201.197 486.004C206.397 491.038 209.435 497.898 209.668 505.132C209.668 505.393 209.668 505.64 209.668 505.916C209.668 506.192 209.668 506.424 209.668 506.686C209.349 510.548 206.634 514.337 201.508 517.285C190.633 523.572 172.978 523.572 162.073 517.285C156.977 514.381 154.262 510.548 153.942 506.686C153.942 506.424 153.942 506.177 153.942 505.916C153.942 505.655 153.928 505.393 153.942 505.132Z" fill="#FFAA17"/>
<path opacity="0.9" d="M153.942 505.132C154.176 497.898 157.214 491.038 162.414 486.004C167.614 480.969 174.568 478.154 181.805 478.154C189.043 478.154 195.997 480.969 201.197 486.004C206.397 491.038 209.435 497.898 209.668 505.132C209.668 505.393 209.668 505.64 209.668 505.916C209.668 506.192 209.668 506.424 209.668 506.686C209.349 510.548 206.634 514.337 201.508 517.285C190.633 523.572 172.978 523.572 162.073 517.285C156.977 514.381 154.262 510.548 153.942 506.686C153.942 506.424 153.942 506.177 153.942 505.916C153.942 505.655 153.928 505.393 153.942 505.132Z" fill="white"/>
<g style="mix-blend-mode:lighten" opacity="0.5">
<path d="M169.711 480.812C173.899 478.783 178.528 477.837 183.176 478.06C187.823 478.282 192.341 479.667 196.316 482.086C200.29 484.505 203.595 487.882 205.928 491.908C208.26 495.934 209.547 500.481 209.669 505.132C209.669 505.393 209.669 505.64 209.669 505.916C209.669 506.192 209.669 506.424 209.669 506.686C209.349 510.548 206.634 514.337 201.509 517.285C197.184 519.653 192.431 521.134 187.526 521.641C194.786 520.392 199.432 512.319 197.211 503.404C194.641 493.081 184.187 478.14 169.711 480.812Z" fill="white"/>
</g>
<path opacity="0.1" d="M153.943 506.686C153.943 506.424 153.943 506.177 153.943 505.916C153.943 505.655 153.943 505.393 153.943 505.132C154.048 501.304 154.943 497.539 156.572 494.074C158.201 490.608 160.529 487.517 163.409 484.993C160.375 488.115 153.652 499.847 160.97 508.791C165.776 514.671 188.557 523.064 207.433 512.276C205.821 514.327 203.811 516.031 201.523 517.285C190.648 523.572 172.992 523.572 162.088 517.285C156.977 514.337 154.262 510.548 153.943 506.686Z" fill="#FFAA17"/>
<g style="mix-blend-mode:lighten" opacity="0.5">
<path d="M182.096 484.311C180.847 487.215 183.243 490.946 187.439 492.79C191.635 494.634 196.064 493.836 197.312 490.99C198.561 488.144 196.165 484.355 191.955 482.511C187.744 480.667 183.33 481.465 182.096 484.311Z" fill="white"/>
</g>
<g style="mix-blend-mode:lighten" opacity="0.5">
<path d="M198.227 495.869C197.788 496.487 197.55 497.226 197.548 497.984C197.545 498.743 197.777 499.483 198.212 500.105C198.647 500.726 199.264 501.197 199.978 501.454C200.691 501.711 201.467 501.74 202.198 501.538C202.929 501.337 203.58 500.913 204.061 500.327C204.542 499.741 204.83 499.02 204.885 498.263C204.94 497.507 204.759 496.752 204.368 496.102C203.976 495.452 203.394 494.94 202.699 494.634C201.94 494.217 201.048 494.112 200.212 494.343C199.377 494.573 198.665 495.121 198.227 495.869Z" fill="white"/>
</g>
<path d="M226.235 514.875C226.13 511.935 224.889 509.152 222.772 507.11C220.656 505.067 217.829 503.926 214.888 503.926C211.947 503.926 209.121 505.067 207.004 507.11C204.888 509.152 203.646 511.935 203.541 514.875V515.513C203.694 516.457 204.078 517.348 204.658 518.108C205.238 518.868 205.996 519.473 206.866 519.869C209.355 521.13 212.106 521.787 214.896 521.787C217.685 521.787 220.436 521.13 222.925 519.869C223.792 519.471 224.548 518.865 225.125 518.106C225.702 517.346 226.084 516.456 226.235 515.513C226.242 515.407 226.242 515.3 226.235 515.194C226.243 515.088 226.243 514.981 226.235 514.875Z" fill="#FFAA17"/>
<path opacity="0.9" d="M226.235 514.875C226.13 511.935 224.889 509.152 222.772 507.11C220.656 505.067 217.829 503.926 214.888 503.926C211.947 503.926 209.121 505.067 207.004 507.11C204.888 509.152 203.646 511.935 203.541 514.875V515.513C203.694 516.457 204.078 517.348 204.658 518.108C205.238 518.868 205.996 519.473 206.866 519.869C209.355 521.13 212.106 521.787 214.896 521.787C217.685 521.787 220.436 521.13 222.925 519.869C223.792 519.471 224.548 518.865 225.125 518.106C225.702 517.346 226.084 516.456 226.235 515.513C226.242 515.407 226.242 515.3 226.235 515.194C226.243 515.088 226.243 514.981 226.235 514.875Z" fill="white"/>
<g style="mix-blend-mode:lighten" opacity="0.6">
<path d="M219.818 504.972C218.284 504.226 216.601 503.839 214.896 503.84C211.939 503.839 209.098 504.991 206.978 507.052C204.857 509.112 203.624 511.919 203.541 514.875V515.513C203.694 516.457 204.078 517.348 204.658 518.108C205.238 518.868 205.996 519.473 206.866 519.869C208.628 520.829 210.562 521.431 212.558 521.641C209.654 521.132 207.708 517.851 208.623 514.221C209.668 509.967 213.923 503.883 219.818 504.972Z" fill="white"/>
</g>
<path opacity="0.1" d="M226.235 515.513C226.242 515.407 226.242 515.3 226.235 515.194C226.243 515.088 226.243 514.981 226.235 514.875C226.195 513.316 225.832 511.782 225.17 510.37C224.508 508.958 223.56 507.699 222.388 506.671C223.622 507.949 226.366 512.726 223.375 516.356C221.415 518.751 212.122 522.163 204.5 517.808C205.159 518.644 205.978 519.34 206.91 519.855C209.399 521.115 212.149 521.772 214.939 521.772C217.729 521.772 220.479 521.115 222.968 519.855C223.826 519.452 224.571 518.846 225.141 518.09C225.71 517.333 226.086 516.449 226.235 515.513Z" fill="#FFAA17"/>
<g style="mix-blend-mode:lighten" opacity="0.5">
<path d="M214.779 506.395C215.288 507.557 214.315 509.096 212.602 509.851C210.888 510.606 209.088 510.272 208.58 509.125C208.071 507.978 209.044 506.41 210.758 505.655C212.471 504.9 214.271 505.234 214.779 506.395Z" fill="white"/>
</g>
<g style="mix-blend-mode:lighten" opacity="0.5">
<path d="M208.202 511.099C208.37 511.345 208.459 511.635 208.456 511.933C208.454 512.23 208.36 512.519 208.188 512.761C208.016 513.003 207.773 513.187 207.493 513.287C207.214 513.387 206.91 513.399 206.623 513.321C206.336 513.243 206.08 513.079 205.89 512.851C205.699 512.623 205.583 512.342 205.558 512.046C205.532 511.75 205.598 511.453 205.746 511.195C205.894 510.938 206.118 510.732 206.387 510.606C206.694 510.436 207.056 510.392 207.395 510.485C207.733 510.577 208.023 510.797 208.202 511.099Z" fill="white"/>
</g>
<path d="M0.529354 471.897C0.634509 468.958 1.87603 466.174 3.99252 464.132C6.109 462.09 8.93532 460.948 11.8764 460.948C14.8174 460.948 17.6437 462.09 19.7602 464.132C21.8767 466.174 23.1182 468.958 23.2234 471.897V472.536C23.0704 473.479 22.6869 474.371 22.1069 475.13C21.5269 475.89 20.7683 476.495 19.8984 476.892C17.4116 478.159 14.6602 478.819 11.8691 478.819C9.07805 478.819 6.32662 478.159 3.83981 476.892C2.97264 476.493 2.21695 475.888 1.63955 475.128C1.06216 474.368 0.68085 473.478 0.529354 472.536C0.522116 472.429 0.522116 472.323 0.529354 472.216C0.522458 472.11 0.522458 472.003 0.529354 471.897Z" fill="#FFAA17"/>
<path opacity="0.2" d="M0.529354 471.897C0.634509 468.958 1.87603 466.174 3.99252 464.132C6.109 462.09 8.93532 460.948 11.8764 460.948C14.8174 460.948 17.6437 462.09 19.7602 464.132C21.8767 466.174 23.1182 468.958 23.2234 471.897V472.536C23.0704 473.479 22.6869 474.371 22.1069 475.13C21.5269 475.89 20.7683 476.495 19.8984 476.892C17.4116 478.159 14.6602 478.819 11.8691 478.819C9.07805 478.819 6.32662 478.159 3.83981 476.892C2.97264 476.493 2.21695 475.888 1.63955 475.128C1.06216 474.368 0.68085 473.478 0.529354 472.536C0.522116 472.429 0.522116 472.323 0.529354 472.216C0.522458 472.11 0.522458 472.003 0.529354 471.897Z" fill="white"/>
<g style="mix-blend-mode:lighten" opacity="0.5">
<path d="M6.94702 461.994C8.65254 461.169 10.5377 460.784 12.4304 460.875C14.3231 460.965 16.1628 461.529 17.7816 462.514C19.4004 463.498 20.7466 464.873 21.6972 466.512C22.6478 468.151 23.1725 470.003 23.2234 471.897V472.536C23.0705 473.479 22.687 474.37 22.1069 475.13C21.5269 475.89 20.7683 476.495 19.8984 476.891C18.1375 477.856 16.2032 478.463 14.2068 478.677C17.1107 478.169 19.0563 474.873 18.1416 471.243C17.0962 466.989 12.8419 460.905 6.94702 461.994Z" fill="white"/>
</g>
<g style="mix-blend-mode:multiply" opacity="0.05">
<path d="M0.529354 472.536C0.522116 472.429 0.522116 472.323 0.529354 472.216C0.522458 472.11 0.522458 472.003 0.529354 471.897C0.568195 470.34 0.930294 468.808 1.59266 467.398C2.25503 465.988 3.20321 464.732 4.37703 463.708C3.14287 464.971 0.398681 469.748 3.3897 473.392C5.34984 475.788 14.6423 479.2 22.2651 474.844C21.605 475.676 20.7856 476.367 19.8548 476.877C17.368 478.144 14.6166 478.805 11.8256 478.805C9.03449 478.805 6.28305 478.144 3.79625 476.877C2.93904 476.475 2.19325 475.869 1.62385 475.112C1.05444 474.355 0.678693 473.471 0.529354 472.536Z" fill="#455A64"/>
</g>
<g style="mix-blend-mode:lighten" opacity="0.3">
<path d="M11.9851 463.417C11.4769 464.579 12.4498 466.133 14.1631 466.873C15.8764 467.613 17.6768 467.309 18.185 466.147C18.6932 464.985 17.7203 463.446 16.007 462.691C14.2937 461.936 12.4933 462.27 11.9851 463.417Z" fill="white"/>
</g>
<g style="mix-blend-mode:lighten" opacity="0.3">
<path d="M18.5626 468.136C18.397 468.383 18.311 468.674 18.3161 468.971C18.3213 469.268 18.4174 469.556 18.5914 469.797C18.7654 470.037 19.009 470.219 19.2894 470.317C19.5698 470.414 19.8734 470.424 20.1594 470.344C20.4453 470.264 20.6998 470.098 20.8886 469.869C21.0774 469.64 21.1914 469.358 21.2152 469.062C21.2389 468.766 21.1714 468.47 21.0216 468.213C20.8718 467.957 20.647 467.753 20.3775 467.628C20.0693 467.456 19.7053 467.412 19.3651 467.507C19.025 467.603 18.7365 467.829 18.5626 468.136Z" fill="white"/>
</g>
</svg>
